<svg xmlns="http://www.w3.org/2000/svg" width="17.995" height="20.566" viewBox="0 0 17.995 20.566">
  <path id="attachment" d="M15.086,7.854l-1.3-1.3L7.258,13.072a2.767,2.767,0,0,0,3.914,3.913L19,9.158a4.612,4.612,0,0,0-6.523-6.522L4.259,10.854l-.018.017a6.432,6.432,0,0,0,9.1,9.1l.016-.018h0l5.61-5.609-1.305-1.3-5.61,5.609-.017.017a4.587,4.587,0,0,1-6.489-6.487l.018-.017h0l8.22-8.218A2.767,2.767,0,0,1,17.7,7.854L9.868,15.68a.922.922,0,0,1-1.3-1.3l6.523-6.523Z" transform="translate(-2.357 -1.285)" fill="#a5a5a5"/>
</svg>
