<svg xmlns="http://www.w3.org/2000/svg" width="8.355" height="10.283" viewBox="0 0 8.355 10.283">
  <path id="bin" d="M2.142,3.856v6.427a.645.645,0,0,0,.643.643H8.569a.645.645,0,0,0,.643-.643V3.856H2.142ZM4.07,9.64H3.428v-4.5H4.07Zm1.285,0H4.713v-4.5h.643Zm1.285,0H6v-4.5h.643Zm1.285,0H7.284v-4.5h.643ZM9.372,1.928H7.284v-.8A.483.483,0,0,0,6.8.643H4.552a.483.483,0,0,0-.482.482v.8H1.982A.483.483,0,0,0,1.5,2.41v.8H9.854v-.8a.483.483,0,0,0-.482-.482Zm-2.731,0H4.713V1.293H6.641v.635Z" transform="translate(-1.5 -0.643)" fill="#bf1d1d" opacity="0.75"/>
</svg>
