<svg xmlns="http://www.w3.org/2000/svg" width="21.764" height="15.235" viewBox="0 0 21.764 15.235">
  <path id="card" d="M0,15.4a1.088,1.088,0,0,0,1.088,1.088H20.675A1.088,1.088,0,0,0,21.764,15.4V4.515H0ZM15.235,8.323a.544.544,0,0,1,.544-.544h3.265a.544.544,0,0,1,.544.544V9.411a.544.544,0,0,1-.544.544H15.779a.544.544,0,0,1-.544-.544Zm0,4.081a.272.272,0,0,1,.272-.272h3.809a.272.272,0,0,1,.272.272v.544a.272.272,0,0,1-.272.272H15.507a.272.272,0,0,1-.272-.272ZM2.176,9.139a.272.272,0,0,1,.272-.272H12.786a.272.272,0,0,1,.272.272v.544a.272.272,0,0,1-.272.272H2.448a.272.272,0,0,1-.272-.272Zm0,3.265a.272.272,0,0,1,.272-.272H8.433a.272.272,0,0,1,.272.272v.544a.272.272,0,0,1-.272.272H2.448a.272.272,0,0,1-.272-.272ZM21.22,1.25H.544A.544.544,0,0,0,0,1.794V3.426H21.764V1.794A.544.544,0,0,0,21.22,1.25Z" transform="translate(0 -1.25)"/>
</svg>
