<svg xmlns="http://www.w3.org/2000/svg" width="20" height="17.5" viewBox="0 0 20 17.5">
  <path id="cash" d="M10,1.25C4.477,1.25,0,4.887,0,9.375a7.219,7.219,0,0,0,2.227,5.107A10,10,0,0,1,.086,18.223a.312.312,0,0,0,.227.527A8.931,8.931,0,0,0,5.8,16.743,11.9,11.9,0,0,0,10,17.5c5.523,0,10-3.637,10-8.125S15.523,1.25,10,1.25Zm.938,11.814v.686a.625.625,0,0,1-.625.625H9.688a.625.625,0,0,1-.625-.625v-.693a2.853,2.853,0,0,1-1.241-.448.468.468,0,0,1-.061-.718l.684-.684A.482.482,0,0,1,9,11.128a.958.958,0,0,0,.4.087h1.28a.329.329,0,0,0,.091-.646l-1.956-.559A2.288,2.288,0,0,1,7.136,8.148,2.2,2.2,0,0,1,9.063,5.686V5a.625.625,0,0,1,.625-.625h.625A.625.625,0,0,1,10.938,5v.693a2.853,2.853,0,0,1,1.241.448.468.468,0,0,1,.061.718l-.684.684A.482.482,0,0,1,11,7.622a.958.958,0,0,0-.4-.087H9.323a.329.329,0,0,0-.091.646l1.956.559A2.288,2.288,0,0,1,12.864,10.6a2.2,2.2,0,0,1-1.927,2.462Z" transform="translate(0 -1.25)"/>
</svg>
