<svg xmlns="http://www.w3.org/2000/svg" width="18.767" height="18.767" viewBox="0 0 18.767 18.767">
  <path id="emoticon" d="M10.874,1.5a9.384,9.384,0,1,0,9.393,9.384A9.379,9.379,0,0,0,10.874,1.5Zm.009,16.89a7.507,7.507,0,1,1,7.507-7.507A7.5,7.5,0,0,1,10.884,18.39Zm3.284-8.445A1.408,1.408,0,1,0,12.76,8.538,1.406,1.406,0,0,0,14.168,9.945Zm-6.569,0A1.408,1.408,0,1,0,6.192,8.538,1.406,1.406,0,0,0,7.6,9.945Zm3.284,6.1a5.157,5.157,0,0,0,4.8-3.284H6.089A5.157,5.157,0,0,0,10.884,16.045Z" transform="translate(-1.5 -1.5)" fill="#a5a5a5"/>
</svg>
