<svg xmlns="http://www.w3.org/2000/svg" width="12.414" height="12.414" viewBox="0 0 12.414 12.414">
  <g id="eye-off" transform="translate(0.207 0.207)">
    <path id="Path_168" data-name="Path 168" d="M8.97,8.97A5.035,5.035,0,0,1,6,10C2.5,10,.5,6,.5,6A9.225,9.225,0,0,1,3.03,3.03m1.92-.91A4.56,4.56,0,0,1,6,2c3.5,0,5.5,4,5.5,4a9.25,9.25,0,0,1-1.08,1.6M7.06,7.06A1.5,1.5,0,1,1,4.94,4.94" fill="none" stroke="#0de27e" stroke-linecap="round" stroke-linejoin="round" stroke-width="1"/>
    <path id="Path_169" data-name="Path 169" d="M.5.5l11,11" fill="none" stroke="#0de27e" stroke-linecap="round" stroke-linejoin="round" stroke-width="1"/>
  </g>
</svg>
