<svg xmlns="http://www.w3.org/2000/svg" width="68.41" height="78.182" viewBox="0 0 68.41 78.182">
  <g id="fileUpload" transform="translate(-581 -527.599)">
    <path id="Icon_metro-file-empty" data-name="Icon metro-file-empty" d="M69.687,19.418a69.24,69.24,0,0,0-6.656-7.612A69.246,69.246,0,0,0,55.418,5.15c-3.938-2.888-5.848-3.222-6.942-3.222H10.607A6.115,6.115,0,0,0,4.5,8.036V74a6.115,6.115,0,0,0,6.108,6.108H66.8A6.115,6.115,0,0,0,72.908,74V26.36c0-1.094-.334-3-3.222-6.942ZM59.576,15.261a66.643,66.643,0,0,1,5.541,6.213H53.363V9.72a66.574,66.574,0,0,1,6.213,5.541ZM68.022,74A1.238,1.238,0,0,1,66.8,75.224H10.607A1.238,1.238,0,0,1,9.385,74V8.036a1.238,1.238,0,0,1,1.222-1.222h37.87v17.1A2.443,2.443,0,0,0,50.92,26.36h17.1Z" transform="translate(576.501 525.671)" fill="#0de27e"/>
    <path id="Icon_material-file-upload" data-name="Icon material-file-upload" d="M13.531,24.1h9.047V15.054h6.031L18.054,4.5,7.5,15.054h6.031ZM7.5,27.117H28.609v3.016H7.5Z" transform="translate(597.205 549.325)" fill="#0de27e"/>
  </g>
</svg>
