<svg id="fire" xmlns="http://www.w3.org/2000/svg" width="19.525" height="19.525" viewBox="0 0 19.525 19.525">
  <path id="Path_164" data-name="Path 164" d="M11.729.67a17.486,17.486,0,0,1,.6,3.905A2.823,2.823,0,0,1,9.557,7.61,2.961,2.961,0,0,1,6.6,4.575l.024-.293A11.2,11.2,0,0,0,4,11.515a6.508,6.508,0,1,0,13.017,0A13.924,13.924,0,0,0,11.729.67ZM10.273,15.583a2.584,2.584,0,0,1-2.62-2.555A2.548,2.548,0,0,1,9.939,10.49a6.274,6.274,0,0,0,3.759-2.1,11.352,11.352,0,0,1,.48,3.287,3.906,3.906,0,0,1-3.905,3.905Z" transform="translate(-0.746 -0.125)"/>
  <path id="Path_165" data-name="Path 165" d="M0,0H19.525V19.525H0Z" fill="none"/>
</svg>
