<svg xmlns="http://www.w3.org/2000/svg" width="17.715" height="18.002" viewBox="0 0 17.715 18.002">
  <path id="flag" d="M8.55,6.676V9.07c.918.207,1.733.548,2.588.784v-2.4c-.914-.2-1.737-.545-2.587-.78ZM16.4,2.352a10.266,10.266,0,0,1-4.113,1.121c-1.881,0-3.438-1.223-5.808-1.223a6.835,6.835,0,0,0-2.391.422,1.969,1.969,0,1,0-2.964.911V17.156A.842.842,0,0,0,1.969,18h.563a.842.842,0,0,0,.844-.844V13.837A9.8,9.8,0,0,1,7.4,13.061c1.884,0,3.438,1.223,5.808,1.223a7.346,7.346,0,0,0,4.307-1.438A1.122,1.122,0,0,0,18,11.918V3.371A1.124,1.124,0,0,0,16.4,2.352ZM5.963,11.443a11.076,11.076,0,0,0-2.588.584V9.548a10.058,10.058,0,0,1,2.588-.612Zm10.35-4.729a11.214,11.214,0,0,1-2.587.84v2.5a6.534,6.534,0,0,0,2.587-.914v2.479a5.681,5.681,0,0,1-2.587.953V10.055a5.947,5.947,0,0,1-2.587-.2v2.37a20.512,20.512,0,0,0-2.587-.749V9.07a7.815,7.815,0,0,0-2.588-.134V6.476a12.406,12.406,0,0,0-2.588.735V4.732a10.068,10.068,0,0,1,2.588-.773V6.476a5.98,5.98,0,0,1,2.588.2V4.307a20.014,20.014,0,0,0,2.587.749v2.4a6.7,6.7,0,0,0,2.587.095V5.027a12.439,12.439,0,0,0,2.587-.791Z" transform="translate(-0.281 0.002)"/>
</svg>
