<svg xmlns="http://www.w3.org/2000/svg" width="14.075" height="26.171" viewBox="0 0 14.075 26.171">
  <g id="soccer-player" transform="translate(-0.005 -0.001)">
    <path id="Path_25" data-name="Path 25" d="M118.464,421.523a2.313,2.313,0,1,0,1.766,3.8A2.308,2.308,0,0,0,118.464,421.523Zm0,0" transform="translate(-110.206 -399.976)"/>
    <path id="Path_26" data-name="Path 26" d="M13.814,94.482,10.9,91.232a1.042,1.042,0,0,0-.622-.335c-5.409-.814-2.022-.314-5.269-.826a1.044,1.044,0,0,0-.779.184L.5,92.938a1.044,1.044,0,0,0-.433.831L.005,98.137A1.044,1.044,0,0,0,1.033,99.2H1.05a1.044,1.044,0,0,0,1.044-1.028l.058-3.844,2.46-1.772.251,6.35-2.3,3.954a1.253,1.253,0,0,0,.352,1.647l3.321,2.387a3.072,3.072,0,0,1,2.4-.733,1.251,1.251,0,0,0-.522-1L5.3,103.133l1.53-2.63,1.422-.056,1.821,6.239a3.082,3.082,0,0,1,1.052,3.606l.126.432a1.253,1.253,0,1,0,2.405-.7L10.4,98.871l-.007,0-.4.251a1.74,1.74,0,1,1-1.841-2.953l2.084-1.3-.052-1.309,1.244,1.386L8.521,96.764a1.044,1.044,0,0,0,1.1,1.772l3.963-2.47a1.044,1.044,0,0,0,.225-1.583Zm0,0" transform="translate(0 -85.454)"/>
    <path id="Path_27" data-name="Path 27" d="M102.928,2.079a2.164,2.164,0,1,0-2.076,2.248A2.163,2.163,0,0,0,102.928,2.079Zm0,0" transform="translate(-93.557)"/>
  </g>
</svg>
