<svg id="boot" xmlns="http://www.w3.org/2000/svg" width="22.644" height="10.459" viewBox="0 0 22.644 10.459">
  <g id="Group_8" data-name="Group 8" transform="translate(0 0)">
    <path id="Path_28" data-name="Path 28" d="M1.712,139.128a.55.55,0,0,1,.606-.035.563.563,0,0,1,.28.546,1.2,1.2,0,0,0,.29.968,2.677,2.677,0,0,0,1.992.635c.207,0,.407-.006.592-.017h0a4.386,4.386,0,0,0,2.266-.677A1.9,1.9,0,0,1,7,139.364a1.807,1.807,0,0,1,.64-1.513.328.328,0,0,1,.414-.041l1.458.972c.89.3,3.283,1.3,3.67,1.461a.328.328,0,0,1-.246.608c-.381-.154-2.411-1-3.412-1.369l-.007.012-.019.034-.051.089-.023.039-.053.087-.02.031-.07.108.567.218.039-.061a.328.328,0,0,1,.58.3l.861.331.037-.057a.328.328,0,0,1,.582.295l.862.331.034-.053a.328.328,0,0,1,.583.29l.864.332.03-.047a.328.328,0,0,1,.586.284l.56.215,0,0h0l.012,0h0l.019.007h0l.022.008.006,0,.029.01.008,0,.035.012h0l.034.011.065-.1a.328.328,0,0,1,.59.27l.057.011.012,0,.077.013.011,0c.054.008.108.016.163.022h.012l.08.008h.012c.055,0,.111.008.166.009h.1l.081,0h0l.079-.006h.01l.076-.009.013,0,.075-.013h.006l.071-.016.008,0,.069-.021.012,0,.066-.025.007,0,.061-.029,0,0c-1.214-.332-2.39-.706-3.5-1.114a.328.328,0,0,1,.226-.616c1.256.46,2.6.877,3.98,1.239h0c.588.153,1.2.3,1.81.436,1.634.363,2.5,1.292,2.5,2.686h0c0,.905-1.553,1.459-2.646,1.682v.719a.755.755,0,0,1-1.509,0v-.58H17.264v.58a.755.755,0,0,1-1.509,0v-.58H14.53v.58a.755.755,0,0,1-1.509,0v-.605a2.52,2.52,0,0,1-.925-.426c-.349-.214-.223-.16-4.488-.16a1.087,1.087,0,0,0-.676.235,1.753,1.753,0,0,1-.753.345v.612a.755.755,0,0,1-1.509,0v-.58H4.091v.58a.755.755,0,0,1-1.509,0v-.58H2.389a1.825,1.825,0,0,1-1.821-1.745,6.648,6.648,0,0,1-.557-2.213h0A4.147,4.147,0,0,1,1.712,139.128Zm.689,1.919a1.819,1.819,0,0,1-.467-1.261,3.353,3.353,0,0,0-1.256,2.325L.7,142.1l.039-.029.035-.024.04-.027.035-.023.04-.025.035-.021.04-.023.035-.02.04-.021.036-.018.04-.019.036-.017.04-.018.036-.015.04-.016.037-.013.041-.014.037-.012.041-.012.037-.01.041-.01.037-.008.041-.008.037-.007.041-.007.037-.005.041,0,.037,0,.041,0,.037,0h.114l.042,0,.034,0,.042,0,.034,0,.042.005.033,0,.043.008.032.006.045.01.03.007.05.013.026.007.075.023.169.054.045.014.13.039.035.01.155.042.03.007.122.03.04.009.133.028.009,0,.136.024.035.005.1.014.031,0,.123.011h.021l.1,0h.146c.036,0,.072,0,.106-.008l.027,0,.08-.011.026,0c.033-.006.065-.013.1-.021l.012,0,.081-.024.025-.008.075-.029.013-.005c.029-.012.056-.026.084-.04l.005,0A3.123,3.123,0,0,1,2.4,141.046Zm5.521-2.533a1.027,1.027,0,0,0-.275.766,1.373,1.373,0,0,0,.605.837l.019-.019c.028-.029.055-.059.083-.089l.036-.04c.039-.044.077-.09.115-.137s.067-.086.1-.131l.025-.035c.031-.043.062-.087.092-.133l0-.007c.032-.048.063-.1.094-.147l.023-.038c.028-.047.056-.094.083-.142l.006-.011Zm11.222,8.946a.1.1,0,0,0,.2,0v-.615h-.015l-.178.017h0Zm-2.734,0a.1.1,0,0,0,.2,0v-.58h-.2Zm-2.734,0a.1.1,0,0,0,.2,0v-.58h-.2Zm-8.35,0a.1.1,0,0,0,.2,0v-.58h-.2Zm-2.089,0a.1.1,0,0,0,.2,0v-.58h-.2Zm-2.131-2.73H12.386a.328.328,0,0,1,0,.656H1.27a1.169,1.169,0,0,0,1.12.838H5.85a1.093,1.093,0,0,0,.676-.236,1.744,1.744,0,0,1,1.083-.377h3.919c.934,0,1.107.612,1.8.612h5.486l.091,0c.154-.006.323-.021.5-.045.071-.009.142-.02.215-.032a5.412,5.412,0,0,0,2.12-.758H13.786a.328.328,0,1,1,0-.656h8.179c-.127-.879-.786-1.456-1.962-1.718-.541-.12-1.079-.249-1.6-.382l-.012.015-.025.031-.017.02-.025.028-.018.019-.026.026-.019.018-.028.025-.019.016-.029.024-.018.015-.032.024-.017.012-.037.026-.013.009q-.052.034-.106.063l-.005,0-.049.025-.014.006-.042.019-.017.007-.04.016-.018.007-.04.015-.018.006-.041.013-.018.006-.043.012-.016,0-.047.012-.013,0-.055.012h-.005c-.062.013-.126.023-.189.031h0l-.058.006h-.011l-.052,0H17.15l-.05,0h-.014l-.05,0h-.224l-.038,0-.035,0-.064,0-.038,0-.037,0-.033,0-.038,0-.032,0-.037,0-.032,0-.036,0-.034-.005-.061-.01-.034-.006-.036-.006-.03-.005-.035-.007-.03-.006-.034-.007-.029-.006-.033-.007-.029-.006-.058-.013-.022-.005-.271.416a.328.328,0,1,1-.55-.358l.166-.255h0l-.008,0-.009,0-.007,0-.006,0-.005,0-.005,0-.006,0-.677-.26-.281.431a.328.328,0,0,1-.55-.358l.2-.314-.855-.329-.277.425a.328.328,0,0,1-.55-.358l.2-.308-.854-.329-.275.421a.328.328,0,1,1-.55-.358l.2-.3L10.1,140.9l-.272.417a.328.328,0,1,1-.55-.358l.2-.3-.617-.237-.088.1-.008.008c-.036.038-.072.074-.108.11l-.029.028c-.039.038-.078.074-.118.11h0a4.616,4.616,0,0,1-2.834,1.09l-.037.049-.037.048-.048.057-.037.043-.052.054-.036.037c-.019.019-.039.036-.058.054l-.032.029c-.027.024-.055.046-.083.068l-.009.008q-.047.036-.1.068l-.03.019-.067.042-.039.021-.061.033-.043.02-.059.027-.045.018-.058.023L4.7,142.6l-.058.019-.049.014-.058.015-.05.011-.059.012-.051.009-.059.009-.052.006-.06.006-.052,0-.061,0-.053,0H3.865l-.053,0-.062,0-.054,0-.063-.006-.053-.006-.064-.008-.053-.007-.065-.01-.053-.009-.066-.012-.052-.01-.067-.014-.052-.011L3.04,142.6l-.051-.012-.069-.017-.05-.013-.07-.019-.048-.013L2.68,142.5l-.045-.013-.076-.023-.042-.013-.084-.027-.032-.01-.116-.038c-.033-.011-.065-.02-.1-.028l-.006,0c-.031-.008-.063-.014-.094-.019l-.01,0c-.03,0-.061-.008-.091-.01H1.974c-.03,0-.06,0-.09,0H1.871c-.03,0-.059,0-.089.006l-.013,0c-.03,0-.059.008-.089.014l-.013,0c-.03.006-.06.014-.089.023l-.012,0c-.03.009-.06.02-.091.031l-.009,0c-.031.012-.062.026-.093.041l-.005,0q-.048.023-.1.051h0c-.032.018-.064.038-.1.059l-.006,0c-.03.02-.061.042-.091.065l-.01.008c-.03.023-.059.047-.088.072l-.012.011c-.029.025-.058.051-.087.078l-.014.013q-.043.041-.085.086l-.014.015q-.043.045-.085.093l-.006.007A6.15,6.15,0,0,0,1.108,144.729Z" transform="translate(0 -137.755)"/>
  </g>
</svg>
