<svg xmlns="http://www.w3.org/2000/svg" width="17.875" height="17.875" viewBox="0 0 17.875 17.875">
  <path id="gender" d="M19.353,7.24a.585.585,0,0,0,.584-.584V2.647a.585.585,0,0,0-.584-.584H15.344a.584.584,0,1,0,0,1.169h2.574L14.7,6.471a6.94,6.94,0,0,0-7.391,0L6.488,5.65,7.7,4.439a.584.584,0,0,0-.412-1,.571.571,0,0,0-.412.172L5.668,4.821,4.086,3.231H6.66a.584.584,0,0,0,0-1.169H2.647a.585.585,0,0,0-.584.584V6.656a.584.584,0,0,0,1.169,0V4.086L4.817,5.663,3.528,6.952a.584.584,0,0,0,.412,1,.571.571,0,0,0,.412-.172L5.646,6.484l.709.7a6.935,6.935,0,1,0,9.8,9.793l.7.7L15.6,18.941a.584.584,0,0,0,.413,1,.571.571,0,0,0,.413-.172l1.259-1.259,1.259,1.259a.579.579,0,0,0,.413.172.571.571,0,0,0,.413-.172.584.584,0,0,0,0-.825l-1.259-1.259,1.259-1.259a.584.584,0,0,0-.413-1,.571.571,0,0,0-.413.172l-1.259,1.259-.816-.816a6.931,6.931,0,0,0-1.22-8.847l3.124-3.1V6.664A.583.583,0,0,0,19.353,7.24Zm-2.591,5.1a5.765,5.765,0,1,1-1.689-4.073A5.727,5.727,0,0,1,16.762,12.336Z" transform="translate(-2.063 -2.063)"/>
</svg>
