<svg xmlns="http://www.w3.org/2000/svg" width="18.115" height="18.115" viewBox="0 0 18.115 18.115">
  <path id="Icon_ionic-md-globe" data-name="Icon ionic-md-globe" d="M10.932,1.875a9.057,9.057,0,1,0,9.057,9.057A9.057,9.057,0,0,0,10.932,1.875ZM9.994,18.64A7.764,7.764,0,0,1,5.024,5.9a8.6,8.6,0,0,1,.088,1.053,3.358,3.358,0,0,0,.433,2.559,4.222,4.222,0,0,1,.409,1.223c.112.386.562.588.872.825.625.479,1.223,1.037,1.886,1.458.438.278.711.417.583.951a3.374,3.374,0,0,1-.354,1.077,2.182,2.182,0,0,0,.364.975c.326.326.65.626,1.006.92C10.863,17.392,10.257,17.985,9.994,18.64Zm6.428-2.218a7.708,7.708,0,0,1-4.03,2.137,3.22,3.22,0,0,1,.953-1.279,3.244,3.244,0,0,0,.858-1.06,7.366,7.366,0,0,1,.591-1.011c.308-.475-.759-1.19-1.1-1.34a11.381,11.381,0,0,1-2.054-1.279c-.492-.346-1.492.181-2.047-.062a10.713,10.713,0,0,1-2.05-1.408c-.683-.514-.65-1.114-.65-1.872.535.02,1.3-.148,1.651.282.112.136.5.742.755.527.211-.176-.156-.882-.227-1.048-.218-.51.5-.709.862-1.055.477-.451,1.5-1.159,1.42-1.483s-1.024-1.24-1.578-1.1c-.083.021-.814.788-.955.908q.006-.375.011-.751c0-.158-.295-.32-.281-.422.035-.258.752-.725.93-.93-.125-.078-.551-.444-.68-.391-.312.13-.665.22-.978.35a1.988,1.988,0,0,0-.029-.311,7.689,7.689,0,0,1,1.973-.573l.613.246.433.514.432.446.378.122.6-.566-.155-.4V3.251a7.679,7.679,0,0,1,3.289,1.3c-.176.016-.369.042-.586.069a1.951,1.951,0,0,0-.3-.114c.284.611.581,1.214.882,1.818.322.645,1.036,1.336,1.161,2.016.148.8.045,1.53.126,2.474a4.226,4.226,0,0,0,1.024,1.941,2.051,2.051,0,0,0,.8.1A7.716,7.716,0,0,1,16.422,16.422Z" transform="translate(-1.875 -1.875)"/>
</svg>
