<svg xmlns="http://www.w3.org/2000/svg" width="14.955" height="17.703" viewBox="0 0 14.955 17.703">
  <path id="hourglass" d="M17.858,18.648h-.219c-.279,0-.516-.039-.546-.318v0c-.627-5.839-4.305-5.951-4.305-7.326s3.682-1.487,4.305-7.326v0c.03-.279.266-.318.546-.318h.219a.616.616,0,0,0,.619-.571.6.6,0,0,0-.6-.632H4.142a.616.616,0,0,0-.619.571.6.6,0,0,0,.6.632h.236c.279,0,.516.039.546.318v0C5.534,9.513,9.212,9.625,9.212,11S5.53,12.487,4.907,18.326v0c-.03.279-.266.318-.546.318H4.142a.616.616,0,0,0-.619.571.6.6,0,0,0,.6.632h13.75a.6.6,0,0,0,.6-.632A.616.616,0,0,0,17.858,18.648ZM7.017,17.179c1.233-3.429,3.42-3.012,3.42-4.366V10.424c0-.834-1.581-1.414-2.57-2.767a.336.336,0,0,1,.279-.533h5.711a.335.335,0,0,1,.288.524c-.971,1.358-2.582,1.942-2.582,2.776v2.389c0,1.341,2.1.975,3.429,4.366.12.305.03.688-.3.688H7.313C6.982,17.866,6.905,17.488,7.017,17.179Z" transform="translate(-3.523 -2.148)"/>
</svg>
