<svg xmlns="http://www.w3.org/2000/svg" width="14.667" height="19.25" viewBox="0 0 14.667 19.25">
  <path id="lock" d="M11,15.583A1.833,1.833,0,1,0,9.167,13.75,1.839,1.839,0,0,0,11,15.583Zm5.5-8.25h-.917V5.5a4.583,4.583,0,1,0-9.167,0V7.333H5.5A1.839,1.839,0,0,0,3.667,9.167v9.167A1.839,1.839,0,0,0,5.5,20.167h11a1.839,1.839,0,0,0,1.833-1.833V9.167A1.839,1.839,0,0,0,16.5,7.333ZM8.158,5.5a2.842,2.842,0,1,1,5.683,0V7.333H8.158ZM16.5,18.333H5.5V9.167h11Z" transform="translate(-3.667 -0.917)"/>
</svg>
