<svg xmlns="http://www.w3.org/2000/svg" width="20.167" height="12.833" viewBox="0 0 20.167 12.833">
  <path id="people" d="M15.125,11.917A10.988,10.988,0,0,0,11,12.833a10.813,10.813,0,0,0-4.125-.917c-1.989,0-5.958.99-5.958,2.979v2.521H21.083V14.9c0-1.989-3.969-2.979-5.958-2.979Zm-3.667,4.125H2.292V14.9c0-.495,2.347-1.6,4.583-1.6s4.583,1.109,4.583,1.6Zm8.25,0H12.833V14.9a1.668,1.668,0,0,0-.477-1.118,8.844,8.844,0,0,1,2.768-.486c2.237,0,4.583,1.109,4.583,1.6v1.146ZM6.875,11A3.208,3.208,0,1,0,3.667,7.792,3.212,3.212,0,0,0,6.875,11Zm0-5.042A1.833,1.833,0,1,1,5.042,7.792,1.839,1.839,0,0,1,6.875,5.958ZM15.125,11a3.208,3.208,0,1,0-3.208-3.208A3.212,3.212,0,0,0,15.125,11Zm0-5.042a1.833,1.833,0,1,1-1.833,1.833,1.839,1.839,0,0,1,1.833-1.833Z" transform="translate(-0.917 -4.583)"/>
</svg>
