<svg xmlns="http://www.w3.org/2000/svg" width="11.129" height="22.257" viewBox="0 0 11.129 22.257">
  <path id="ruler" d="M7.3,18.084a.348.348,0,0,1-.348-.348v-.7a.348.348,0,0,1,.348-.348h3.825V13.911H7.3a.348.348,0,0,1-.348-.348v-.7A.348.348,0,0,1,7.3,12.52h3.825V9.738H7.3a.348.348,0,0,1-.348-.348v-.7A.348.348,0,0,1,7.3,8.346h3.825V5.564H7.3a.348.348,0,0,1-.348-.348v-.7A.348.348,0,0,1,7.3,4.173h3.825V1.391A1.391,1.391,0,0,0,9.738,0H1.391A1.391,1.391,0,0,0,0,1.391V20.866a1.391,1.391,0,0,0,1.391,1.391H9.738a1.391,1.391,0,0,0,1.391-1.391V18.084Z"/>
</svg>
