<svg xmlns="http://www.w3.org/2000/svg" width="15.251" height="18.64" viewBox="0 0 15.251 18.64">
  <g id="Icon_ionic-md-switch" data-name="Icon ionic-md-switch" transform="translate(-4.375 -3.125)">
    <path id="Path_29" data-name="Path 29" d="M7.34,10.327h5.025a4.236,4.236,0,1,0,0-5.931H7.34a2.965,2.965,0,1,0,0,5.931Zm-.895-3.86A1.259,1.259,0,0,1,7.34,6.09h4.009a4.22,4.22,0,0,0,0,2.542H7.34a1.266,1.266,0,0,1-.895-2.166Z" transform="translate(0 0)"/>
    <path id="Path_30" data-name="Path 30" d="M16.66,11.9H11.635a4.236,4.236,0,1,0,0,5.931H16.66a2.965,2.965,0,1,0,0-5.931Zm.895,3.86a1.259,1.259,0,0,1-.895.376H12.652a4.22,4.22,0,0,0,0-2.542H16.66a1.266,1.266,0,0,1,.895,2.166Z" transform="translate(0 2.667)"/>
  </g>
</svg>
