<svg xmlns="http://www.w3.org/2000/svg" width="19.38" height="18" viewBox="0 0 19.38 18">
  <g id="t-shirt" transform="translate(-977 -615)">
    <path id="Icon_ionic-ios-shirt" data-name="Icon ionic-ios-shirt" d="M21.647,8.517a.186.186,0,0,0-.009-.248,42.786,42.786,0,0,0-4.177-3.923A5.394,5.394,0,0,0,14.531,3C13.5,3,13.5,3.375,12,3.375S10.5,3,9.469,3a5.394,5.394,0,0,0-2.93,1.345A42.786,42.786,0,0,0,2.363,8.269a.186.186,0,0,0-.009.248l2.892,3a.188.188,0,0,0,.333-.117V9.3a.434.434,0,0,1,.356-.431.421.421,0,0,1,.488.417V20.625A.376.376,0,0,0,6.8,21H17.2a.376.376,0,0,0,.375-.375V9.3a.434.434,0,0,1,.356-.431.421.421,0,0,1,.487.417V11.4a.187.187,0,0,0,.333.117ZM12,6.7c-1.406,0-2.531-.6-2.531-1.687,0-1.406,1.125-.5,2.531-.5s2.531-.9,2.531.5C14.531,6.108,13.4,6.7,12,6.7Z" transform="translate(974.689 612)"/>
    <text id="_27" data-name="27" transform="translate(983.4 626)" fill="#fff" font-size="6" font-family="Roboto-Regular, Roboto"><tspan x="0" y="0">27</tspan></text>
  </g>
</svg>
