<svg xmlns="http://www.w3.org/2000/svg" width="16.65" height="15.136" viewBox="0 0 16.65 15.136">
  <path id="Icon_material-thumb-down" data-name="Icon material-thumb-down" d="M11.512,2.75H4.7a1.5,1.5,0,0,0-1.393.923L1.023,9.009a1.5,1.5,0,0,0-.106.552v1.445l.008.008-.008.061A1.518,1.518,0,0,0,2.43,12.588H7.206l-.719,3.459-.023.242a1.139,1.139,0,0,0,.333.8l.8.795L12.587,12.9a1.5,1.5,0,0,0,.439-1.067V4.264A1.518,1.518,0,0,0,11.512,2.75Zm3.027,0v9.082h3.027V2.75Z" transform="translate(-0.917 -2.75)"/>
</svg>
