<svg xmlns="http://www.w3.org/2000/svg" width="20.345" height="20.345" viewBox="0 0 20.345 20.345">
  <path id="weight" d="M17.8,2.543H16.769A7.626,7.626,0,1,1,2.543,6.358,7.572,7.572,0,0,1,3.575,2.543H2.543A2.546,2.546,0,0,0,0,5.086V17.8a2.546,2.546,0,0,0,2.543,2.543H17.8A2.546,2.546,0,0,0,20.345,17.8V5.086A2.546,2.546,0,0,0,17.8,2.543ZM10.172,12.715A6.358,6.358,0,1,0,3.815,6.358,6.358,6.358,0,0,0,10.172,12.715ZM10.16,6.678l1.334-3.114a.636.636,0,0,1,1.17.5L11.327,7.186a1.582,1.582,0,1,1-1.166-.508Z"/>
</svg>
