<svg xmlns="http://www.w3.org/2000/svg" width="213.119" height="428.261" viewBox="0 0 213.119 428.261">
  <g id="body-front" transform="translate(-7358.668 -763.103)">
    <path id="Path_213" data-name="Path 213" d="M228,277.25c-.6,5.58-1.07,10.67-1.74,15.73a12.49,12.49,0,0,1-1.59,5.36,5.62,5.62,0,0,0-.61,5.25,41.59,41.59,0,0,1,1.43,17.6,4.55,4.55,0,0,0,.41,2.27c6.13,14.8,9.33,30.26,11.43,46.12a91.92,91.92,0,0,1-3.45,38.89c-.91,3-1.53,6.16-2.71,9.09-4.39,11-3.7,22.5-3.74,33.94a5.73,5.73,0,0,0,.62,2.25c6.23,14,7.25,28.75,5.1,43.71-1.05,7.34-3.05,14.53-4.41,21.83-.59,3.12-3.43,5.47-2.73,9a64.789,64.789,0,0,1,1.41,9.6,17,17,0,0,0,6,12.11c2.08,1.92,4.41,3.58,6.47,5.53a70.482,70.482,0,0,1,8.27,8.39c2.87,3.8,1.69,7-2.7,8.8a55.991,55.991,0,0,1-6,2.2,17.82,17.82,0,0,1-16.55-3.24,40,40,0,0,0-7.3-4.24A8.94,8.94,0,0,1,210,561c-2.25-10.9-3.82-21.75-.55-32.78,1.42-4.83.59-9.75-.88-14.5q-1.5-4.87-3.25-9.67a48.27,48.27,0,0,1-2-29.12,54.173,54.173,0,0,0,1.3-7.48A27.07,27.07,0,0,0,203,454c-5.61-13.95-6.6-28.58-4.85-43.4.28-2.4-.6-4.24-1.12-6.32-1-4.07-2.08-8.14-2.71-12.27-1.4-9.22-2.63-18.47-3.75-27.73a68.909,68.909,0,0,1,0-8.38h-3c0,4,.24,8-.05,12a184.312,184.312,0,0,1-6.4,36.63,25.1,25.1,0,0,0-.5,9.18,97.53,97.53,0,0,1-6.48,44.2c-1.22,3-.4,7-.22,10.46a34.54,34.54,0,0,0,1.19,6.77c2.74,10.48,1.05,20.52-2.59,30.47a68.75,68.75,0,0,0-3.65,12.49,25.52,25.52,0,0,0,.24,10.55c3.06,11.25,1.49,22.22-1,33.22-.7,3-3,4.4-5.63,5.62a33.47,33.47,0,0,0-6.71,3.88,17.85,17.85,0,0,1-17.37,3.36,57.478,57.478,0,0,1-6-2.25c-3.73-1.63-5-4.73-2.54-8a79.529,79.529,0,0,1,8.43-8.88c3.64-3.59,7.41-7.06,11-10.65a3.661,3.661,0,0,0,.66-2c.65-4.22.8-8.58,2-12.63.9-3-.13-5.24-1.14-7.76-3.18-7.92-4.49-16.29-5.64-24.68-2.1-15.33-1.16-30.3,5.28-44.63a5.64,5.64,0,0,0,.42-2.29c-.08-6.73-.18-13.45-.34-20.17a13.35,13.35,0,0,0-.64-3.48c-2.14-7.2-4.55-14.33-6.43-21.6a92,92,0,0,1-2.71-34.28,200.392,200.392,0,0,1,9.71-43.41,30.58,30.58,0,0,0,1.76-11.21c-.09-4.9,1.32-9.82,2-14.75a6.57,6.57,0,0,0-.43-2.74,35,35,0,0,1-2-5.74c-.72-5.39-1.12-10.82-1.69-16.68-2.11,3.71-4,7-5.81,10.33a2.65,2.65,0,0,0,.08,1.6,14.62,14.62,0,0,1-1.21,9.47,23.371,23.371,0,0,0-1.58,4.2,189.071,189.071,0,0,1-15.21,39c-1.21,2.4-2.41,4.81-3.52,7.26-1.32,2.92-2.43,5.71-1.78,9.26a12.33,12.33,0,0,1-1.9,7.57c-2.92,5-6.37,9.79-9.63,14.64-1.13,1.67-2.39,3.15-4.67,3.26a2.53,2.53,0,0,0-1.3.8,6,6,0,0,0-.66,1c-2.52,3.23-11.58,3.29-13.58-.19a23.86,23.86,0,0,1-2.88-8.22c-.25-1.64.84-3.59,1.64-5.26,1.07-2.22,2.45-4.31,4-6.94-3.21.89-5.61.43-7.63-1.39-3-2.69-2.46-6.4,1.22-7.94A15.26,15.26,0,0,0,91,351.66c3.1-3.25,6.58-6.12,9.85-9.21a7.581,7.581,0,0,0,1.36-2.13A90.28,90.28,0,0,0,110.94,308a45.61,45.61,0,0,1,9.87-24.3,2.27,2.27,0,0,0,.36-1.84c-3.51-9.69-.91-18.3,4.47-26.5a9.17,9.17,0,0,0,1.34-4.09c.31-3.62.29-7.26.51-10.89.67-11.14,11.26-20.82,20.43-22.25,8.17-1.26,15.09-5.5,22.47-8.67a2.37,2.37,0,0,0,.8-.49c.66-.72.73-8.13.45-9.06a50.135,50.135,0,0,1-1.6-6.83c-.22-1.37-.36-2.46-1.81-3.22a5.84,5.84,0,0,1-2-2.53c-1-1.88-1.87-3.84-2.72-5.8a5.78,5.78,0,0,1,2-7.53,4,4,0,0,0,1.89-3.69,24.7,24.7,0,0,1,4.07-13.44,21,21,0,0,1,22.25-8.7,21.46,21.46,0,0,1,16.44,17.67,8,8,0,0,1,.26,1.88c-.23,3.13.41,5.69,3.22,7.7,1.7,1.22,1.78,3.54,1,5.5-1.42,3.53-2.09,7.54-5.91,9.68-.48.27-.64,1.38-.7,2.12-.19,2.77-.26,5.5-2.09,7.89-.42.55.16,1.78.07,2.67-.46,4.76,1.85,7.43,6.27,8.66a22.18,22.18,0,0,1,3,1.37,49.38,49.38,0,0,0,14.08,4.7c9.31,1.23,21,11,21.26,24.34v.47A30.61,30.61,0,0,0,255,260.47,23.53,23.53,0,0,1,256.69,282a2,2,0,0,0,.27,1.64c6.79,8.46,9.68,18.32,10.59,28.95a68,68,0,0,0,8.7,28.11,14.918,14.918,0,0,0,2.59,3c2.74,2.74,5.46,5.51,8.31,8.12a24.1,24.1,0,0,0,4.89,3.5c1.73.9,3.11,1.84,3.24,3.95a4.58,4.58,0,0,1-2.65,4.68,39.387,39.387,0,0,1-6.32,1.73c1,1.7,2.11,3.83,3.41,5.88,1.92,3,3,6,.16,9.08-.35.39-.28,1.18-.33,1.78a4.79,4.79,0,0,1-4.09,4.82,54.587,54.587,0,0,1-6.52.39,2.22,2.22,0,0,1-1.57-.41c-3-3.4-8-4.21-10.36-8.58a131.1,131.1,0,0,0-7.81-11.86,14,14,0,0,1-2.34-10.82,6.58,6.58,0,0,0-.38-3.59c-4-8.94-8.5-17.68-12.21-26.74-3.11-7.59-5.36-15.52-8-23.29a42.1,42.1,0,0,1-1.93-5.08c-.51-2.59-.57-5.27-.89-7.9a10.85,10.85,0,0,0-.72-3.47C231.37,283.07,229.79,280.43,228,277.25ZM191.41,355a88.082,88.082,0,0,0,.08,10.9c1.22,9.73,2.73,19.41,4.26,29.1a81.007,81.007,0,0,0,2.19,9.46c.54,1.84,1.36,3.4,1.1,5.57-2,16.63-.43,32.84,6.49,48.3a3.08,3.08,0,0,1,.34,1.52c-.53,4.95-.65,10-1.79,14.8-2.48,10.51-1.26,20.55,2.48,30.5a54.22,54.22,0,0,1,3.3,10.62c.63,4.08,1.28,8.54.27,12.4-2.88,10.95-1.58,21.6.59,32.35a8.29,8.29,0,0,0,5.3,6.16,37.48,37.48,0,0,1,7.31,4.23,17,17,0,0,0,16.07,3.17c1.81-.55,3.59-1.23,5.35-1.94,4.5-1.84,5.44-4.58,2.35-8.43a42.691,42.691,0,0,0-8-7.69c-7.25-5.27-12.83-11.38-12.89-21a1.941,1.941,0,0,0,0-.24c-.54-2.59-1.69-5.25-1.43-7.76s2.29-4.87,2.91-7.46c1.74-7.29,3.53-14.61,4.64-22,2.23-15,1.15-29.67-5.1-43.71a5.12,5.12,0,0,1-.55-2c.24-10.78-1-21.68,3-32.14,1.36-3.53,2.15-7.28,3.25-10.91a91.94,91.94,0,0,0,3.54-39.58c-2.13-15.69-5.31-31-11.41-45.63a4.43,4.43,0,0,1-.41-2.26A40.4,40.4,0,0,0,223.33,304c-.63-2.31-1.06-4.23.81-6.21a5.91,5.91,0,0,0,1.18-3.3c.69-6.37,1.28-12.75,1.9-19.12.06-.56.13-1.11.19-1.71,1.87,3.69,3.51,7.28,5.48,10.68,1.13,2,2,3.67,1.32,6.09a10.35,10.35,0,0,0,.39,5.12c1.49,5.15,3.19,10.24,4.85,15.34,4.71,14.5,11.78,28,18.09,41.76a4.9,4.9,0,0,1,.28,2.88,13,13,0,0,0,2.12,10.81,95.6,95.6,0,0,1,7.53,11.47c2.24,4.47,7.44,5,10.15,8.61.22.3.89.38,1.34.37a47.629,47.629,0,0,0,6.43-.38,4,4,0,0,0,3.36-4.27,3.78,3.78,0,0,1,.34-2c2.22-3.28,2.23-4.49.14-7.92-1.66-2.71-3.2-5.49-5-8.64,1.47.3,2.39.48,3.31.68a5.92,5.92,0,0,0,5.64-1.76c2.22-2.21,1.74-5.11-1.14-6.28a14.76,14.76,0,0,1-5.87-4.18,62.45,62.45,0,0,0-7.61-7.47,13.21,13.21,0,0,1-3.56-4.3,71.9,71.9,0,0,1-8.19-27.32c-.94-11.13-4-21.38-11.44-29.95,3-7.33,3.51-14.39-.79-21.5a32.7,32.7,0,0,1-4.73-18.94c0-.32-.08-.63-.09-1-.36-12-11.44-21.31-20-22.73A31.351,31.351,0,0,1,223,217.5c-5.35-2.17-10.57-4.64-15.78-7.12a3.29,3.29,0,0,1-1.39-2.09c-.49-2.23-.77-4.49-1.1-6.75,0-.35-.08-.87.12-1.07,2.52-2.42,2-5.67,2.49-8.68.1-.64.25-1.62.68-1.83,4.11-2,4.64-6.2,5.91-9.84a5.21,5.21,0,0,0-.77-4,20,20,0,0,1-3.6-8.91,33.486,33.486,0,0,0-.78-3.71,20.46,20.46,0,0,0-32.93-10.22c-5.67,4.8-7.44,11.17-7.73,18.19a2.83,2.83,0,0,1-1.58,2.79,5.17,5.17,0,0,0-2.29,6.94,1.743,1.743,0,0,0,.1.19c.77,1.73,1.49,3.5,2.41,5.15a6.81,6.81,0,0,0,2.35,2.83,2.86,2.86,0,0,1,1.71,2.74c.28,2.94-.13,6.1,2.41,8.42.19.18.12.72.07,1.09-.3,2.18-.56,4.37-1,6.54a2.67,2.67,0,0,1-1.12,1.77c-7.62,3.4-14.94,7.34-23.3,9.14-10,2.15-16.73,8.62-19,18.71-1.06,4.72-.69,9.75-1.09,14.63a6.27,6.27,0,0,1-1.07,3c-6,8.56-8.35,17.63-4.19,27.68a45.77,45.77,0,0,0-11,27,89.91,89.91,0,0,1-9,31.75,3.6,3.6,0,0,1-.79,1.13c-3.2,2.93-6.6,5.66-9.6,8.77a17.41,17.41,0,0,1-6.4,4.63,3.38,3.38,0,0,0-1.4,5.62,5.91,5.91,0,0,0,6.08,2.32c1-.18,1.9-.38,3.34-.67-1.88,3.22-3.55,5.89-5,8.67-.72,1.36-1.69,3-1.44,4.36a25.51,25.51,0,0,0,2.83,8.14c1.83,3.15,5.47,1.27,8.24,1.87,1.21.26,2.85-1.45,4.27-2.31.23-.14.25-.62.48-.8.39-.32.87-.77,1.3-.76,2.14.08,3.34-1.22,4.39-2.77,3.3-4.92,6.62-9.82,9.85-14.79a12,12,0,0,0,1.48-9.57,5.17,5.17,0,0,1,.31-3.06c3-6.38,6.07-12.69,9.09-19.05,5.84-12.32,9.6-25.4,13.91-38.28a5.19,5.19,0,0,0,.39-2.78c-1.25-4.35.84-7.66,3-11.1a60.421,60.421,0,0,0,3.13-6.91c.22-.49.46-1,.74-1.58.65,7.09,1.17,13.95,2,20.78.22,1.87,1.39,3.62,2,5.47a6,6,0,0,1,.46,2.92c-1.25,6-2.89,12-1.93,18.29a8,8,0,0,1-.45,3.86c-4.8,13.28-8.7,26.76-10.23,40.86-.9,8.4-2.33,16.74-1.13,25.28a113.11,113.11,0,0,0,5.49,23.75,83.55,83.55,0,0,1,4.95,32.82A29.2,29.2,0,0,1,149.86,457c-5.2,12.88-5.8,26.33-4,39.93,1.11,8.63,2.47,17.24,5.72,25.39,1.08,2.7,2.36,5,1.2,8.37-1.34,3.9-1.34,8.24-2,12.38a4.57,4.57,0,0,1-.84,2.4c-3.75,3.71-7.66,7.26-11.4,11a73.479,73.479,0,0,0-8.06,8.58c-2.13,2.9-1.07,5.4,2.24,6.8a63.539,63.539,0,0,0,6.69,2.42,16.67,16.67,0,0,0,15.22-3,51.181,51.181,0,0,1,7.91-4.61c2.6-1.26,4.47-2.92,5-5.86.56-3.18,1.35-6.34,1.67-9.55.68-7,1.64-14-.63-20.9a24.34,24.34,0,0,1-.16-14.51c1.23-4.32,2.66-8.6,4.12-12.86a48.41,48.41,0,0,0,2.09-26.14c-1.15-5.55-1.51-11.26-2.18-16.9a2.45,2.45,0,0,1,.25-1.31c6.56-14.34,8.22-29.45,7.06-45a27.83,27.83,0,0,1,.59-9.58c4.19-16,7.24-32.19,6.55-49Z" transform="translate(7276.478 615.65)"/>
    <path id="Path_216" data-name="Path 216" d="M191.41,355h-4.56c.69,16.78-2.36,33-6.54,49a27.811,27.811,0,0,0-.6,9.58c1.16,15.54-.5,30.65-7.06,45a2.58,2.58,0,0,0-.25,1.31c.68,5.64,1,11.36,2.18,16.9a48.5,48.5,0,0,1-2.08,26.14c-1.46,4.26-2.89,8.54-4.13,12.87a24.42,24.42,0,0,0,.16,14.51c2.27,6.92,1.31,13.92.63,20.9-.31,3.2-1.11,6.36-1.66,9.55-.52,2.94-2.39,4.59-5,5.86a50.378,50.378,0,0,0-7.91,4.61,16.66,16.66,0,0,1-15.22,3,63.377,63.377,0,0,1-6.68-2.42c-3.31-1.39-4.37-3.9-2.25-6.8a74.343,74.343,0,0,1,8.06-8.58c3.76-3.7,7.66-7.25,11.41-11a4.48,4.48,0,0,0,.83-2.4c.64-4.14.64-8.49,2-12.38,1.15-3.35-.13-5.67-1.2-8.37-3.26-8.16-4.6-16.77-5.72-25.39-1.76-13.6-1.16-27,4-39.93a29.441,29.441,0,0,0,1.9-10.08,83.38,83.38,0,0,0-5-32.82,113.869,113.869,0,0,1-5.48-23.75c-1.2-8.54.22-16.88,1.13-25.28,1.52-14.1,5.43-27.58,10.23-40.86a8.19,8.19,0,0,0,.45-3.86c-1-6.29.67-12.25,1.93-18.29a6.08,6.08,0,0,0-.46-2.92c-.61-1.85-1.77-3.6-2-5.47-.81-6.83-1.33-13.7-2-20.78-.28.6-.52,1.08-.74,1.58a57.87,57.87,0,0,1-3.13,6.9c-2.1,3.46-4.19,6.76-2.94,11.11a5.11,5.11,0,0,1-.4,2.78c-4.3,12.88-8.06,26-13.91,38.28-3,6.36-6.12,12.67-9.08,19.05a5.1,5.1,0,0,0-.31,3.06,12,12,0,0,1-1.49,9.57c-3.23,5-6.55,9.87-9.85,14.79-1,1.55-2.25,2.86-4.39,2.77-.42,0-.91.44-1.3.76-.23.18-.24.65-.47.8-1.42.86-3.07,2.57-4.28,2.31-2.76-.6-6.4,1.28-8.24-1.87a25.76,25.76,0,0,1-2.83-8.14c-.25-1.32.72-3,1.44-4.36,1.47-2.78,3.14-5.45,5-8.67-1.44.29-2.39.49-3.34.67a5.91,5.91,0,0,1-6.08-2.32,3.38,3.38,0,0,1,0-4.78,3.321,3.321,0,0,1,1.39-.84,17.41,17.41,0,0,0,6.4-4.63c3-3.1,6.4-5.84,9.6-8.76a3.759,3.759,0,0,0,.79-1.14,89.87,89.87,0,0,0,9-31.75,45.7,45.7,0,0,1,11-27c-4.17-10.05-1.79-19.12,4.18-27.68a6.18,6.18,0,0,0,1.08-2.95c.4-4.88,0-9.92,1.09-14.63,2.28-10.1,9.05-16.57,19-18.72,8.36-1.79,15.68-5.74,23.3-9.14a2.68,2.68,0,0,0,1.13-1.77c.42-2.16.68-4.36,1-6.54.05-.36.13-.91-.06-1.08-2.54-2.33-2.14-5.49-2.42-8.43a2.83,2.83,0,0,0-1.7-2.74,6.81,6.81,0,0,1-2.35-2.83c-.92-1.65-1.65-3.42-2.41-5.15a5.17,5.17,0,0,1,2-7l.18-.09a2.83,2.83,0,0,0,1.58-2.8c.29-7,2.07-13.39,7.74-18.19a20.46,20.46,0,0,1,32.93,10.22,33.454,33.454,0,0,1,.77,3.71,20,20,0,0,0,3.61,8.91,5.26,5.26,0,0,1,.77,4c-1.28,3.64-1.81,7.83-5.92,9.84-.43.21-.58,1.19-.67,1.83-.46,3,0,6.26-2.49,8.68-.21.2-.17.72-.12,1.07.33,2.26.6,4.53,1.09,6.75a3.27,3.27,0,0,0,1.39,2.09c5.22,2.48,10.44,4.95,15.78,7.13a31.339,31.339,0,0,0,6.71,1.36c8.62,1.42,19.69,10.74,20.06,22.73,0,.32.09.64.08.95a32.68,32.68,0,0,0,4.73,18.94c4.31,7.11,3.85,14.17.8,21.5,7.42,8.58,10.5,18.81,11.44,29.95A71.61,71.61,0,0,0,275,340.25a13.311,13.311,0,0,0,3.55,4.3,62.529,62.529,0,0,1,7.62,7.47A14.73,14.73,0,0,0,292,356.2c2.88,1.17,3.37,4.07,1.14,6.28a5.91,5.91,0,0,1-5.63,1.76c-.92-.2-1.84-.38-3.31-.68,1.83,3.15,3.37,5.94,5,8.64,2.1,3.43,2.09,4.64-.14,7.92a3.9,3.9,0,0,0-.34,2,4,4,0,0,1-3.36,4.27,45.9,45.9,0,0,1-6.42.38,1.86,1.86,0,0,1-1.34-.37c-2.71-3.63-7.92-4.14-10.15-8.61a96,96,0,0,0-7.54-11.46,13,13,0,0,1-2.12-10.82,4.81,4.81,0,0,0-.27-2.88c-6.32-13.79-13.39-27.26-18.1-41.75-1.66-5.11-3.35-10.2-4.85-15.35a10.23,10.23,0,0,1-.38-5.12c.62-2.42-.19-4.12-1.33-6.09-2-3.4-3.61-7-5.47-10.68-.07.61-.14,1.16-.19,1.71-.63,6.37-1.21,12.75-1.91,19.12a6,6,0,0,1-1.17,3.3c-1.87,2-1.44,3.9-.81,6.21a40.24,40.24,0,0,1,1.34,17.38,4.41,4.41,0,0,0,.42,2.26c6.1,14.64,9.27,29.95,11.4,45.64A91.75,91.75,0,0,1,233,408.79c-1.1,3.63-1.89,7.38-3.25,10.91-4,10.46-2.78,21.36-3,32.15a5.13,5.13,0,0,0,.56,2c6.25,14,7.33,28.74,5.09,43.71-1.1,7.41-2.89,14.72-4.64,22-.61,2.57-2.63,4.89-2.9,7.45s.89,5.17,1.42,7.76a1,1,0,0,1,0,.24c.05,9.6,5.63,15.71,12.88,21a41.731,41.731,0,0,1,8,7.68c3.09,3.85,2.16,6.59-2.35,8.43-1.75.72-3.53,1.39-5.34,1.94a17,17,0,0,1-16.07-3.17,37.48,37.48,0,0,0-7.31-4.23,8.24,8.24,0,0,1-5.3-6.16c-2.18-10.75-3.48-21.4-.6-32.35,1-3.86.37-8.32-.26-12.4a54.9,54.9,0,0,0-3.3-10.62c-3.74-10-5-20-2.48-30.49,1.14-4.81,1.25-9.86,1.79-14.81a3.22,3.22,0,0,0-.34-1.52c-7-15.43-8.6-31.64-6.6-48.31.26-2.17-.57-3.73-1.1-5.57a76.32,76.32,0,0,1-2.19-9.46c-1.53-9.68-3-19.37-4.27-29.09a90.09,90.09,0,0,1-.03-10.88Zm-4.59-95.09c.69,1.1,1,3.08,3,2s3.48-5.1,2.93-7.32c2.94,3.31,6.46,5.58,11,5.53a78.79,78.79,0,0,0,8-.8,14.37,14.37,0,0,1-3.21,1.35c-2.49.4-2.84,1.87-2.41,3.95.76,3.63,1.78,7.24,2.18,10.91.73,6.68,4.77,11.11,9.53,15.17l-.07-.07,3.54,7.36.59.15a53.653,53.653,0,0,0,1.55-5.72c.41-2.41.39-4.88.76-7.3,1.42-9.23.9-18.44,0-27.66-.18-1.85-1-2.29-2.69-1.61-2.49,1-5,1.83-7.57,2.73,2.87-1.93,5.85-3.7,8.56-5.81,4.78-3.72,4.76-4.42,2-9.84-2.54-4.89-4.81-9.92-7.36-14.8a20.92,20.92,0,0,0-2.95-3.55,5.37,5.37,0,0,0-6-1.45c-3.79,1.32-7.6,2.58-11.38,4a8.81,8.81,0,0,0-6.23,7.9,92.452,92.452,0,0,0-.16,13.21c.12,1.89,1.44,3.71,2.22,5.55.08.31.17.62.25.92l-1.45-1.13a9,9,0,0,0-1.39-2.11,1.91,1.91,0,0,0-1.77-.28,5.74,5.74,0,0,0-1.35,8.78ZM110.54,338.1a4.782,4.782,0,0,0-1,.86c-1.83,2.75-3.78,5.3-7.26,6.16-.69.17-1.2,1.05-1.79,1.6l.07-.07c-.84.66-1.69,1.32-2.53,2-3.92,3.17-6.25,8.25-11.64,9.73-.31.08-.55,2.08-.33,2.19a9.66,9.66,0,0,0,4.18,1.34,44.6,44.6,0,0,0,6.7-1.11l.31.78c-2.18,3.81-4.38,7.62-6.55,11.44a8.83,8.83,0,0,0-1.37,3,3.55,3.55,0,0,0,1,2.37c.18.19,1.35-.37,2-.77a6.93,6.93,0,0,0,1.25-1.4c-.52,1.31-1,2.63-1.59,3.91s-1.42,3,.43,3.9,2.72-.57,3.56-1.85,1.57-2.5,2.35-3.75c-.53,1.31-1.12,2.61-1.57,3.94-.57,1.67.38,2.76,2,2.18a4.65,4.65,0,0,0,2.19-1.92,48.641,48.641,0,0,0,2.51-5l.6,2.73c.7-.23,1.75-.24,2-.72,2.17-3.43,4.19-7,6.26-10.45l1.4-1.36c4-3.92,5.6-8.4,3.53-13.91a10.67,10.67,0,0,1-.58-4.65c.61-6.18,1.41-12.34,2.16-18.51.21-1.77.5-3.54.75-5.31l-.69-.17-1.88,3.4.07-.09-1.59,1.27c.4-.84.73-1.73,1.21-2.53A75.9,75.9,0,0,0,126,305.1c.79-3.62,1.21-7.31,1.81-11,.32,1.92-.09,3.93.41,5.68a8.22,8.22,0,0,1-.8,5.69c-4.73,12.27-8.52,24.79-9.56,38-.2,2.45,0,4.93,0,7.39l.59.17c.33-.56.7-1.1,1-1.67q3-6.18,6-12.37a195,195,0,0,0,13-33.76c.58-2.2,1.64-4.28,2.16-6.49a39,39,0,0,0,.91-6.9c0-.68-.77-1.41-1.19-2.12a11.663,11.663,0,0,0-2.1,1.3,31.307,31.307,0,0,0-2.32,2.69l-2.2,2.64c4.5-6.64,6.88-14.11,9.6-21.46l-3.58,13.75c7.58-3.86,13.1-27.61,8.54-34.69-.6,2.83-1.17,5.49-1.74,8.16-.09-2.17.33-4.27.42-6.38a21.122,21.122,0,0,0-.61-4,12.75,12.75,0,0,0-3.63-.43,45.392,45.392,0,0,0-5.6,1.63l-.19-.7c2.11-.58,4.23-1.12,6.32-1.76,3.76-1.16,8-1.62,9.78-6-2.42,7-2.4,7.18,1.3,9.42l-.07-.07,7.16,5.87-3.93-1.48c-3-1.12-3.3-.84-3.72,2.28-1.6,12-.06,23.8,1.12,35.67A14.82,14.82,0,0,0,156.3,298h.82c.82-4.4,3.48-7.59,6.53-10.52a9.47,9.47,0,0,0,1.07-1.5l-.09.08a12.35,12.35,0,0,0,4.6-8c.85-3.86,1.56-7.75,2.35-11.62.92-4.49.93-4.49-3.28-6.14-.09,0-.12-.21-.27-.49l2.43.33c9.5,1.26,16.91-5.1,16.94-14.62,0-3.32-.16-6.64-.39-9.95a9.11,9.11,0,0,0-6.46-8.51c-3.48-1.27-7-2.41-10.49-3.72a6.61,6.61,0,0,0-7.39,1.66c-.77.71-1.43,1.54-2.14,2.32,1.36-4-2.49-4.69-4.26-6.66l.41-.41,4.88,3.47a10.23,10.23,0,0,1,9.45-.92c3.27,1.14,6.7,1.85,10.07,2.68a18.16,18.16,0,0,0,2.85.23,7.43,7.43,0,0,0-1.63-2.86,113.548,113.548,0,0,1-7.43-9.2c-1.25-1.89-2.13-2-4-1.13-7.71,3.57-15.21,7.55-23.79,9a17.49,17.49,0,0,0-11.56,8l.08-.08a12.43,12.43,0,0,0-4.65,8.42,145.239,145.239,0,0,0-.93,15,5.17,5.17,0,0,1-1.17,3.52,23.67,23.67,0,0,0-5.6,11.26c-1.29,5.71-1.12,11.2,2.51,16.26,1.07,1.5,1.31,3.58,1.94,5.4a20.5,20.5,0,0,1-2-3.29c-.68-1.12-1.62-1.54-2.58-.19a5.839,5.839,0,0,0-.85.8,42.85,42.85,0,0,0-8.45,21.54c-1.12,11.5-3.48,22.58-9,32.85a5.45,5.45,0,0,0-.17,1.33,13.92,13.92,0,0,0,5.38-5.49l1.37-1.27-1.07,2.62ZM236.36,557.06c-2.41-2.5-4.81-5-7.24-7.51a4,4,0,0,0-1.14-.61l-.88-1.39a23.466,23.466,0,0,1-1.65-4.29c-.75-4.1-1.24-8.25-1.88-12.37a11.11,11.11,0,0,0-.69-2l-.72-.09-2.94,5.68-2.82,2.77c-2.55,2.44-5.76,4.63-5.41,8.69.42,4.85,1.31,9.66,2,14.49a5.39,5.39,0,0,0,3.33,4,103.5,103.5,0,0,1,9.1,5.33,17.51,17.51,0,0,0,20.45-.93l-.08.08c1.63-.68.88-1.88.38-2.69a22.78,22.78,0,0,0-9.88-9.26ZM203.58,263.58l.08.08a11.541,11.541,0,0,0-2.2-1.93c-1.82-.92-3.78-1.57-5.63-2.45-1.55-.74-2.37-.08-3.37,1.09-2.82,3.29-3.39,7.06-3.18,11.23.11,2.2.9,3.19,3,3.35a32.72,32.72,0,0,1,14.11,4.34,6,6,0,0,0,1.31.38,5.54,5.54,0,0,0,.08-1.35c-1-4.45-2-8.9-3.13-13.33-.12-.52-.71-.94-1.08-1.41Zm-13.3,49-.08-.07a10.83,10.83,0,0,0,3,.68,51.585,51.585,0,0,0,5.37-.95c-1.78.61-3.55,1.25-5.33,1.82a3.92,3.92,0,0,0-3.09,3.7c-.35,4.36-.83,8.7-1.19,12.44-.23-2.6-.42-5.83-.83-9-.83-6.58-.92-6.41-7.4-8.28-3.74-1.08-8.19-.52-10.94-4.22l.07.09c-4-7.54-2.93-15.41-1-23.35l-.94-.3L166,287.63l.08-.05c-1.93,1.79-3.94,3.52-5.79,5.4a6.23,6.23,0,0,0-1.13,7.66c2.68,5.41,5.83,10.37,12.31,11.6a10.59,10.59,0,0,0-.38,2,92.371,92.371,0,0,0,4.25,23.88,4.83,4.83,0,0,1-.83-1.38,59.19,59.19,0,0,1-4.59-20.7,4.24,4.24,0,0,0-2.17-4.14,21.72,21.72,0,0,1-8.48-8.73c-.36-.61-.82-1.16-1.23-1.74l-.64.14c-.55,2.44-1.17,4.87-1.64,7.32-1.09,5.6-1.3,11.11,1.23,16.48a54.92,54.92,0,0,0,12.58,17.35,9.639,9.639,0,0,0,1.94,1.13l3.73,3.29,4,1.6.51-1.35L182,349.1l.41.91c2.07,1,4.07,2.61,6.22,2.83,4.2.43,7.06-2.35,9.07-5,.83.37,1.57,1,2,.83a19.58,19.58,0,0,0,9.61-7.45l.18-.18a6.22,6.22,0,0,0,1.53-.9,48.61,48.61,0,0,0,10.83-17c2.6-7.46.56-14.7-1.69-22.56l-4.72,8-3,2.56a5.11,5.11,0,0,0-4.47,5.21,41.571,41.571,0,0,1-.58,6.58c-1.16,5-2.6,10-3.92,14.94l-.77-.19c2.37-8.31,4.46-16.66,4-25.54,6.36-1.45,9.91-6.16,12.36-12a5.55,5.55,0,0,0-.48-5.85c-2-2.45-4.19-4.66-6.31-7l-2.6-2.15c1.25,9,3.21,17.72-3.27,25.45a6.35,6.35,0,0,1-1.77.92c-2,.35-4,.56-6,.8a25.173,25.173,0,0,0,3.15-1.25c1.33-.72,3.18-1.35,3.72-2.52a74.551,74.551,0,0,0,3.33-9.74c.47-1.58-.36-2.65-1.75-3.47A22.92,22.92,0,0,0,194.86,292c-4.63,0-5.45.8-5.49,5.53,0,4.17,0,8.35.06,12.52a8.84,8.84,0,0,0,.84,2.51ZM138,559.91l.08-.07c-2,2.15-4.15,4.19-6,6.5-1,1.31-.53,2.72,1.19,3.39s3.21,1.31,4.85,1.89a15.42,15.42,0,0,0,16-2.77,31.341,31.341,0,0,1,7.11-4.07c2.29-1,3.9-2.34,4.27-4.88.65-4.52,1.35-9,1.86-13.56a6.67,6.67,0,0,0-2.75-6.2l-.18-.18-9.07-11.2a18.24,18.24,0,0,0-.68,2.29c-.67,4.46-1.25,8.92-2,13.36a5.64,5.64,0,0,1-1.31,2.67c-3.75,4.38-7.47,8.82-12.57,11.77C138.45,559.05,138.27,559.55,138,559.91ZM285.73,355.29c-.57-.81-1.08-1.67-1.71-2.43a47.52,47.52,0,0,0-13.54-10.7l-3.5-4.93-.21-1.46,4.19,4.5,1.59,2,.58-.45a6.113,6.113,0,0,0-.31-1,73.39,73.39,0,0,1-8.15-27.28c-.78-8.94-2.74-17.48-7.89-25a27.288,27.288,0,0,0-3.34-3.46q-1.35,2.07-2.72,4.14l-.16.18c.65-2.07,1.22-4.17,2-6.2.68-1.83,1.93-3.52,2.29-5.39,1.56-8.22-.92-15.41-6-21.85a4.16,4.16,0,0,1-1-2.17c-.14-3.94.06-7.91-.27-11.83-.28-3.39-.55-6.93-3.14-9.63l.08.08a14,14,0,0,0-1-1.82,25.11,25.11,0,0,0-16.09-10,9.07,9.07,0,0,0-8.29,2c-1.63,1.39-2.26,2.78-1.39,4.73,1.75,3.88,3.74,7.66,5.27,11.63,2.41,6.24,7.17,9,13.42,10.06a40,40,0,0,1,5.66,1.79l-.18.54c-2.09-.65-4.18-1.28-6.26-1.94-3.63-1.14-5-.15-4.64,3.6.25,2.86.66,5.7,1,8.55h-.25l-2.15-10c-3.89,10,1.33,31.72,8.55,35l-2.71-11.08,8,17.85c-1.2-1.4-2.55-3.07-4-4.62s-2.61-1.25-2.9.76a13.36,13.36,0,0,0,.14,5.38c1.44,5.15,3.14,10.24,4.81,15.33,4.59,13.93,11.13,27,17.5,40.17.14.28.51.46,1,.95a15.419,15.419,0,0,0,.35-2.87c-.29-3.78-.52-7.57-1.06-11.32a148.541,148.541,0,0,0-9.62-33.64,4.53,4.53,0,0,1-.26-2c.12-1.49.41-3,.55-4.44.25-2.58.42-5.17.63-7.76a50,50,0,0,0,3.52,23.17c2.43,6.13,5.71,11.92,8.61,17.86l-4.47-5.17a19.109,19.109,0,0,0,0,2.27c.81,5.77,1.8,11.53,2.43,17.32a21.639,21.639,0,0,1-.16,8.67c-1.68,5.31-.94,9.74,2.75,13.82a30.005,30.005,0,0,1,2.85,3.79c1.75,2.71,3.32,5.55,5.16,8.21.51.74,1.7,1,2.57,1.49l.7-.75-2.91-6.56a71.449,71.449,0,0,1,4.84,8.62,5,5,0,0,0,1.68,2.17,3.4,3.4,0,0,0,2.6.05c.29-.11.35-1.55.1-2.22-.69-1.84-1.59-3.6-2.38-5.41,0,0,.36-.27.56-.41l-.07-.07a68.827,68.827,0,0,0,3.67,7c.42.65,2,.57,3,.82.15-1.06.68-2.25.38-3.15a49.359,49.359,0,0,0-2.67-5.65c.88.78,1.41,1.78,2.19,2.52a2.431,2.431,0,0,0,2,.66,2.26,2.26,0,0,0,.94-1.93,12,12,0,0,0-1.42-3.43c-2.13-3.82-4.33-7.6-6.5-11.39l.39-.75c2.17.39,4.32.92,6.51,1.13a6.45,6.45,0,0,0,3.54-.59c1.88-1.05,1.65-2.4-.29-3.38-1.73-.86-3.39-1.84-5.09-2.76Zm-111.19-5.84.08.07a8.54,8.54,0,0,0-1-1.23,51.23,51.23,0,0,1-13.22-15,4.411,4.411,0,0,0-.9-.88l-.61.22c.46,2.4.93,4.81,1.39,7.22-.46-1.12-1-2.23-1.36-3.37-.54-1.55-1-3.11-1.5-4.67l-.93.13a13.28,13.28,0,0,0-.39,2.59c.56,14.77-2.08,29.32-3.05,44-.5,7.41-1.08,14.85-.93,22.26.32,15.34,1.1,30.66,1.68,46v2.13l.7.14c2.34-3.46,4.66-6.93,7-10.37a47.069,47.069,0,0,0,7.67-19c.55-3.28,1.06-6.56,1.41-9.86,1.17-10.82,1.58-21.58-1.54-32.23-1.78-6.06-3.19-12.23-4.66-18.38-1.41-5.9-2.69-11.83-4-17.75,6.33,21,12.56,42.07,17.16,63.61a3.15,3.15,0,0,0,.85-1.53c1.89-10.16,3.94-20.31,5.56-30.52a96.061,96.061,0,0,0,.84-14.18,6,6,0,0,0-1.72-4.31A77.554,77.554,0,0,0,174.54,349.45ZM218.7,338.6q.24-3,.49-6.07l-.65-.19-6.45,9.88-5.67,4.68c-3.13,2.11-6.17,4.39-9.44,6.28a6.25,6.25,0,0,0-3.52,6.09c.11,15.21,3,30,6.56,44.69a5.51,5.51,0,0,0,.83,1.35c.3-1.07.52-1.8.71-2.53,4.15-16,8.26-31.95,12.46-47.9.82-3.1,2-6.1,3.06-9.15-1.42,6-2.82,12-4.25,18-1.82,7.59-4.28,15.09-5.35,22.79-1.81,13-.21,25.87,2.91,38.53,1.82,7.38,5.93,13.66,10.69,19.5l-.08-.07,2.84,4.61.63-.28v-3c.36-10.58.47-21.17,1.17-31.73a235.8,235.8,0,0,0-.41-36.92c-1.28-14.22-3.5-28.38-3-42.73a11,11,0,0,0-.5-2.48l-.84-.06ZM160.34,532.85l-.08-.08,7,9.31.72-.31a15.529,15.529,0,0,0,0-2.46c-.49-3-1.18-5.89-1.57-8.86-.44-3.43-1.35-7-.78-10.29a119.863,119.863,0,0,1,4.54-16.86c2.38-7.3,4.07-14.62,3-22.34l-2.88-20.62c0-.06-.23-.1-.67-.27-1.42,6.09-2.9,12.13-4.22,18.2s-2.78,12.17-3.59,18.34-.88,12.27-1.27,18.41c-.3-2.9-.46-5.81-.59-8.72-.45-9.79-1.08-19.57-1.28-29.37-.17-7.72.07-15.46.39-23.19a87.912,87.912,0,0,1,1.44-9.68l-.57-.25c-.48.57-1,1.1-1.43,1.7a56.2,56.2,0,0,0-9,19.46,88.83,88.83,0,0,0-.77,36.7c1.62,9.38,3.37,18.67,8.42,26.94a46.194,46.194,0,0,0,3.25,4.24ZM210,541.6l1,.23c5.74-6.72,11.62-13.37,14.37-22A113.5,113.5,0,0,0,231,478.94c-.67-12-3.89-23.18-10.89-33.1a22.509,22.509,0,0,0-1.72-2,2.62,2.62,0,0,0-.3,1.76c1.22,7.65,2.44,15.28,2.07,23.09-.71,14.68-1.3,29.38-2,44.07a4.61,4.61,0,0,1-.15.72c.06-18.4-5.4-35.73-9.68-53.3-.52,2.73-.52,5.47-.91,8.15-.71,4.92-1.89,9.78-2.44,14.72-.93,8.32,1.54,16.11,4.43,23.77,3.25,8.61,5,17.26,1.92,26.38a50.491,50.491,0,0,0-1.33,8.46Zm15.35-112.23.41.07c.2-.64.43-1.28.6-1.93,2-7.64,4.16-15.24,5.88-22.93,1.9-8.48,3.59-17.06,3-25.81a129.213,129.213,0,0,0-2.09-17.64c-2.51-12-5.54-23.81-8.39-35.7-.06-.28-.42-.49-1-1.15-.11,1.35-.18,2.19-.25,3-1.19,13.86-.14,27.64,1.62,41.37a217.662,217.662,0,0,1,.91,48c-.38,4.22-.43,8.47-.63,12.7ZM154.56,324.75l-.79-.09c-.4,1.68-.8,3.36-1.22,5-3.09,12.32-7.12,24.4-8.2,37.18-.67,7.94-1.9,15.76-.82,23.82,1.74,12.9,5.54,25.28,8.64,37.83a3.129,3.129,0,0,0,.35.65,135.6,135.6,0,0,0-.43-15.22,205.509,205.509,0,0,1,.9-43.51c1.61-13.18,2.87-26.39,2-39.71-.12-2-.3-4-.46-6Zm50.91-136.88c2.82.28,3.78-1.55,4.62-3.49.5-1.16.91-2.37,1.44-3.51.9-2,.51-3.7-1.4-4.65-2.49-1.25-3-3.18-2.68-5.65a12.659,12.659,0,0,0-.06-2.61,18.8,18.8,0,0,0-13.67-16.71,18.09,18.09,0,0,0-19.95,7.5,21.94,21.94,0,0,0-3.46,13.09c0,2-.32,3.36-2.45,4.18a2.88,2.88,0,0,0-2,3.59,3.191,3.191,0,0,0,.19.48c.89,2.1,1.87,4.17,2.9,6.22.26.53.85,1.29,1.27,1.27,2.5-.1,2.43,1.55,2.5,3.27a25.729,25.729,0,0,0,.5,5A5.67,5.67,0,0,0,175,199c7.5,5.31,15.42,7.15,23.95,2.31a20.219,20.219,0,0,1,2.33-1.16,5.8,5.8,0,0,0,3.69-5.8c.07-2,.34-4.08.54-6.46Zm-3.58,12.94L194,205.15H184l-8.19-4.47c-1.18,4-2.3,7.74-.6,11.28a27.48,27.48,0,0,0,9,10.83,19.249,19.249,0,0,0,3.06,1.41l.87-3.18,1.77-.09c.14,1.19.25,2.24.43,3.75a11.109,11.109,0,0,0,3.2-1.67c3.23-3.75,6.79-7.34,9.29-11.55,1.82-3.08.6-6.84-1-10.64Zm-28,195.61c-.12.08-.33.14-.37.24a6.4,6.4,0,0,0-.32,1.36,168.931,168.931,0,0,1-5,32.24,4.48,4.48,0,0,0,.06,2.3,68.38,68.38,0,0,1,2.18,21.12v3.11c7.94-9.47,10.07-51.69,3.42-60.37Zm31.06,0c-7.09,9.31-4.75,53.21,2.8,59.91,0-.57.09-1,.08-1.45-.14-7.61,0-15.17,2.28-22.55a6.46,6.46,0,0,0-.14-2.8c-1.37-8.24-2.83-16.48-4.16-24.73-.44-2.77-.57-5.58-.85-8.38Zm-44.1,95.48h.49c.31-1.09.67-2.16.92-3.26,1.77-7.76,3.24-15.6,5.34-23.28a50.52,50.52,0,0,0,1.79-20.81c-.45-3-1-6.08-1.54-9.1-.12-.62-.71-1.15-1.08-1.72a17.538,17.538,0,0,0-1.63,1.48,3.19,3.19,0,0,0-.63,1.26c-1.72,6.47-4.54,12.89-4.87,19.43-.57,11.46.37,23,.71,34.5a5.37,5.37,0,0,0,.47,1.53Zm56.08,0,.83-.1c.17-1.07.4-2.13.48-3.2.29-4.33.49-8.67.82-13,1-12.82.06-25.4-4.63-37.5-.62-1.59-1.5-3.08-2.31-4.72a7.576,7.576,0,0,0-1.07.79,2.6,2.6,0,0,0-.42.83c-1.85,8.06-3.06,16.19-1.31,24.39,2,9.25,4.26,18.43,6.41,27.63.39,1.63.8,3.25,1.21,4.88ZM188.39,304.57h.56c-.32-3.44-.54-6.89-1-10.3a2.89,2.89,0,0,0-1.86-2c-5.43-.44-10.77,0-15.4,3.3-.78.55-1.71,1.89-1.53,2.6a89.158,89.158,0,0,0,3.41,10.49,4.53,4.53,0,0,0,2.69,2.06c3.3,1,6.66,1.89,10,2.69,2,.47,3-.36,3.11-2.43s0-4.27,0-6.4ZM169,294.33l.68.41c5-4.19,10.93-3.76,16.77-3.8h.23c.61-.57,1.71-1.11,1.74-1.72a98.638,98.638,0,0,0-.08-10.6,3.11,3.11,0,0,0-2.06-2.05,14.4,14.4,0,0,0-17,11.22A15.27,15.27,0,0,0,169,290c-.07,1.44,0,2.88,0,4.32Zm40.3,0c-.47-3.5-.78-6.69-1.39-9.82a6.2,6.2,0,0,0-1.78-3.19,18.38,18.38,0,0,0-13.41-4.94,3,3,0,0,0-3.32,2.52,3.22,3.22,0,0,0,0,.82c0,2.69.11,5.38-.05,8.06-.14,2.36.75,3.34,3.11,3.22,5.43-.25,10.73.12,15.47,3.23.17.11.44,0,1.37.1Zm-15.91-69.18.37.62a23,23,0,0,0,2.74-.34c3.06-.74,6.16-1.39,9.14-2.38,3.68-1.23,7.19-1.65,10.18.58l6.16-4c-5.41-2.48-10.75-5-16.17-7.34a2.79,2.79,0,0,0-2.54.46c-3,3.46-5.75,7.06-8.58,10.62-.46.58-.86,1.19-1.29,1.79ZM170.25,280c5.4-3.48,11-4.59,16.7-5.46.55-.09,1.4-.84,1.42-1.29.09-3.4,1.07-6.91-1.1-10.09-3.65-5.39-2.25-4.94-8.47-2.72a8.93,8.93,0,0,0-6.33,7c-.58,2.94-1.38,5.83-2,8.76a30.211,30.211,0,0,0-.23,3.81Zm18.69-45.59,4.07-8h-8.14Z" transform="translate(7275.478 614.65)" fill="#fff"/>
    <path id="hand-right" d="M267,337.23l3.5,4.93a35.482,35.482,0,0,0,3,2.83c1.36,1,3,1.61,4.29,2.71,2.74,2.42,5.29,5.05,7.91,7.59l-.07-.08c.75,3.14,4.5,2.17,6,4.36a3.07,3.07,0,0,1-3.67,1.87c-1.47-.26-2.91-.77-4.39-.91a29.36,29.36,0,0,0-4.3.22c2.74,4.73,5.17,8.88,7.55,13.06.74,1.29,1.9,2.61-.19,4.63l-9.08-14.88-.81.35a14.293,14.293,0,0,0,.76,2.23c2.59,4.87,5.28,9.69,7.79,14.61.36.69-.06,1.79-.13,2.71a15.269,15.269,0,0,1-2.47-1.21c-.46-.34-.63-1.07-1-1.61L279,376.1l.06.07L275.18,368l-.9.19a7.541,7.541,0,0,0,.28,2.5c1.52,3.13,3.2,6.17,4.77,9.27.58,1.16,1,2.39,1.51,3.65-2.16.89-2.94-.26-3.61-1.61-1.67-3.37-3.32-6.74-5.26-10.67-2.13,3.76,1.95,5.68,1.47,9.2a35,35,0,0,1-2.52-2.91c-2.78-4.11-5.41-8.34-8.29-12.38A10.86,10.86,0,0,1,260.91,355a16.15,16.15,0,0,0,.84-5.56c-.17-4.1-.6-8.2-1.09-12.28-.37-3.17-1-6.3-1.5-9.45a98.142,98.142,0,0,1,6,7.92,12.088,12.088,0,0,0,1.84,1.6Z" transform="translate(7276.478 615.65)" fill="#fff"/>
    <path id="hand-left" d="M113.81,367.87l-1.39,1.35a16.323,16.323,0,0,0-1.67,2c-1.46,2.35-2.79,4.77-4.27,7.09a9.819,9.819,0,0,1-1.81,1.72l-.58-.46c.62-1.31,1.23-2.63,1.87-3.93,1.21-2.45,1.21-2.44-.34-3.7-1.69,3.42-3.37,6.8-5,10.19-.69,1.41-1.54,2.37-3.52,1.5a21.122,21.122,0,0,1,.81-2.18c1.78-3.52,3.64-7,5.36-10.54a8.9,8.9,0,0,0,.37-2.61l-.86-.21-3.24,6.49a5.734,5.734,0,0,0-.57.73c-1.28,2.36-2.44,4.79-3.89,7-.41.63-1.62.74-2.46,1.09a7.14,7.14,0,0,1-.15-2.52,44.276,44.276,0,0,1,2-4.52c2.07-3.6,4.17-7.18,6.18-10.81.27-.48.09-1.22.12-1.84l-.64-.12-6.3,11-2.93,3.67c-1.16-2-1.08-2.38.1-4.4,2.45-4.19,4.86-8.4,7.71-13.33a41.664,41.664,0,0,0-4.47,0c-1.48.19-2.93.71-4.4.92a2.82,2.82,0,0,1-3.52-1.9,2.339,2.339,0,0,1-.09-.38c6.58-2.18,9.86-8,14.38-12.49l-.08.07a19.522,19.522,0,0,1,2.91-1.41c3.73-1.1,5.57-4,7.13-7.21l-.07.08,6.72-9.58-.07.09,1.47-.91c-.56,4-1.21,7.7-1.59,11.46-.59,5.95-1.68,11.88.42,17.84,1,2.76-.25,5.42-1.94,7.78a28.088,28.088,0,0,0-1.7,2.98Z" transform="translate(7276.478 615.65)" fill="#fff"/>
    <path id="feet-right" d="M216.4,537.29l2.81-2.77,3.47-4.63a12.159,12.159,0,0,1,.3,1.19c.66,4.52,1.21,9.06,2,13.54.2,1.07,1.36,2,2.07,2.94l.88,1.38,8.39,8.12-.08-.06c.61.56,1.25,1.08,1.84,1.66,2.24,2.18,4.6,4.26,6.63,6.62.75.87.71,2.42,1,3.66l.08-.07c-2,.71-4,1.41-6,2.14a14.72,14.72,0,0,1-15.27-2.63,36.811,36.811,0,0,0-7.31-4.19c-2-.94-3.52-2-3.84-4.35-.59-4.28-1.23-8.55-1.84-12.82a7.47,7.47,0,0,1,2.3-6.44A34.752,34.752,0,0,0,216.4,537.29Z" transform="translate(7276.478 615.65)" fill="#fff"/>
    <path id="feet-left" d="M164.43,540l.18.18c.69,2,2,4.08,1.93,6.06-.22,4.61-1.16,9.18-1.76,13.77-.28,2.15-1.69,3.18-3.48,4.1a63.523,63.523,0,0,0-8.3,4.79,14.13,14.13,0,0,1-13.13,2.53c-1.73-.53-3.43-1.15-5.11-1.82-2.92-1.17-3.14-1.85-1.21-4.43,1.39-1.87,3-3.56,4.52-5.34l-.08.07a9.441,9.441,0,0,0,1-.45c5.17-3,9-7.39,12.76-11.87a6.77,6.77,0,0,0,1.49-3.05c.74-4.19,1.28-8.42,1.92-12.63.1-.62.32-1.23.54-2.07a39.342,39.342,0,0,0,3,4.4C160.5,536.24,162.51,538.06,164.43,540Z" transform="translate(7276.478 615.65)" fill="#fff"/>
    <path id="crotch-right" d="M206.43,346.91l5.66-4.68,6.12-7.58a110.369,110.369,0,0,1-2.59,12.47q-7.05,26.53-14.21,53.05c-.23.84-.45,1.69-.68,2.53a98.549,98.549,0,0,1-3.58-15.09c-1.25-9.54-2.08-19.13-3-28.7a4.38,4.38,0,0,1,2.49-4.68,54.857,54.857,0,0,0,6.29-3.78,30.348,30.348,0,0,0,3.5-3.54Z" transform="translate(7276.478 615.65)" fill="#fff"/>
    <path id="abs-left-down" d="M182.4,350l-.4-.91c-7.2-10.19-9.21-22-10.22-34-.21-2.53.85-3.39,3.28-2.84,2.84.64,5.64,1.5,8.49,2.11a4.32,4.32,0,0,1,3.77,4.64q.45,16.1,1,32.18a6.11,6.11,0,0,1-.26,1.2Z" transform="translate(7276.478 615.65)" fill="#fff"/>
    <path id="pocket-left" d="M175.28,347.17l-3.73-3.29A76.11,76.11,0,0,1,159.3,328.6c-5.09-8.47-3.88-17-1.25-26.34a25.91,25.91,0,0,0,10.18,10.82,3.36,3.36,0,0,1,1.07,2.49c.17,10.95,3.84,20.88,8.8,30.43.33.63.57,1.3,1,2.23Z" transform="translate(7276.478 615.65)" fill="#fff"/>
    <path id="pocket-right" d="M212.37,311.08l3-2.56,4.71-5.95c.46,1.91.91,3.58,1.26,5.28,1.53,7.26,1.47,14.36-2.87,20.77-2.86,4.24-6,8.28-9,12.41l-.19.18c-3.28,2.4-5.89,5.84-10.5,7,.56-1.08.9-1.77,1.25-2.45,4.34-8.56,7.87-17.4,8.4-27.1C208.6,315.37,209.26,312.69,212.37,311.08Z" transform="translate(7276.478 615.65)" fill="#fff"/>
    <path id="arm-two-right" d="M271,340.27l-4.19-4.5-1-1.41a19.269,19.269,0,0,0-.9-2.28c-3.05-5.77-6.44-11.4-9.13-17.34a53.61,53.61,0,0,1-4.65-22.32,9.06,9.06,0,0,1,2.51-7,13.441,13.441,0,0,1,1.8,2.19c2.24,4.59,5,9,6.42,13.86,1.53,5.16,1.78,10.7,2.65,16.07A82.48,82.48,0,0,0,271,338.69,4.647,4.647,0,0,1,271,340.27Z" transform="translate(7276.478 615.65)" fill="#fff"/>
    <path id="Path_279" data-name="Path 279" d="M244.42,232.27c2.6,2.7,2.86,6.24,3.14,9.63.33,3.92.13,7.89.27,11.83a4.13,4.13,0,0,0,1,2.17c5.1,6.44,7.58,13.63,6,21.85-.36,1.87-1.61,3.56-2.29,5.39-.75,2-1.32,4.13-2,6.2l.06-.08c-.21,2.59-.39,5.17-.63,7.76-.14,1.48-.43,3-.56,4.43a4.64,4.64,0,0,0,.27,2,148.678,148.678,0,0,1,9.62,33.64c.53,3.75.76,7.55,1.06,11.33a16.2,16.2,0,0,1-.35,2.86c-.55-.48-.91-.66-1-.95-6.37-13.15-12.91-26.23-17.5-40.16-1.67-5.09-3.38-10.18-4.82-15.34a13.49,13.49,0,0,1-.14-5.37c.3-2,1.51-2.27,2.91-.76s2.79,3.21,4,4.61l-8-17.85,2.71,11.09c-7.22-3.28-12.44-25-8.55-35l2.14,10h.26c-.34-2.85-.75-5.69-1-8.54-.33-3.76,1-4.75,4.64-3.6l6.26,1.93.18-.54a41.329,41.329,0,0,0-5.66-1.79c-6.25-1.05-11-3.82-13.42-10.06-1.53-4-3.53-7.74-5.27-11.62-.88-1.95-.25-3.34,1.39-4.74a9,9,0,0,1,8.28-2,25.15,25.15,0,0,1,16.1,10,15.278,15.278,0,0,1,1,1.82,14.928,14.928,0,0,1-1.6-1.58,24.35,24.35,0,0,0-17.68-9.87c-4.81-.52-8.25,3.34-6.33,7.64,2.37,5.32,5.24,10.44,8.06,15.55a5.32,5.32,0,0,0,2.78,2c5.81,2.1,11.67,4.08,17.47,6.09C247.35,245.7,247.39,238.79,244.42,232.27Zm3.92,67.32,1-.3v-4.15c.16-4.92.39-9.77,3.59-14a9.86,9.86,0,0,0,1.46-4.21,23,23,0,0,0-15.74-26c-1.28-.4-2.55-.82-3.84-1.18-2.3-.66-3.24.08-3.21,2.51,0,.79.13,1.57.21,2.37a92.28,92.28,0,0,0,6.78,26.28c2.71,6.46,6.49,12.48,9.79,18.69Zm10.59,49.64.68-.19c0-1,.05-2,0-2.94-.69-13.65-4.65-26.53-9.22-39.3-2.46-6.89-6.73-12.46-11.5-17.78a5.59,5.59,0,0,0-1.17-.76c-1.48,2.9-.9,5.53.16,8.15.67,1.69,1.38,3.36,1.94,5.08,2,6.13,3.66,12.43,6.11,18.4,4.07,9.89,8.64,19.57,13,29.34Zm-29.58-94.34c-2.19,11.38,1.24,21.16,7.77,30.14Z" transform="translate(7276.478 615.65)"/>
    <path id="Path_280" data-name="Path 280" d="M212.37,311.08c-3.11,1.61-3.76,4.29-4,7.61-.53,9.69-4.06,18.54-8.39,27.09-.35.69-.7,1.38-1.26,2.46,4.61-1.19,7.22-4.63,10.51-7a19.54,19.54,0,0,1-9.61,7.45c-.41.17-1.15-.47-2-.83-2,2.66-4.87,5.44-9.07,5-2.15-.22-4.15-1.84-6.22-2.83l5.63,2.37a6.93,6.93,0,0,0,.26-1.2q-.48-16.08-1-32.18a4.32,4.32,0,0,0-3.77-4.64c-2.85-.61-5.64-1.47-8.49-2.11-2.43-.55-3.49.31-3.28,2.84,1,12.05,3,23.82,10.22,34l-2.21-1.68-.51,1.34-4-1.59,3.79,1.06a22.916,22.916,0,0,0-1-2.23c-5-9.56-8.63-19.48-8.81-30.43a3.36,3.36,0,0,0-1.07-2.49A26,26,0,0,1,158,302.26c-2.62,9.33-3.83,17.87,1.25,26.34a76.47,76.47,0,0,0,12.25,15.28,10.42,10.42,0,0,1-1.93-1.14A54.84,54.84,0,0,1,157,325.39c-2.53-5.37-2.31-10.88-1.23-16.48.47-2.45,1.09-4.88,1.65-7.32l.63-.14a18.993,18.993,0,0,1,1.23,1.75,21.72,21.72,0,0,0,8.49,8.72,4.21,4.21,0,0,1,2.16,4.14,59.21,59.21,0,0,0,4.6,20.7,5.25,5.25,0,0,0,.82,1.39,92.93,92.93,0,0,1-4.24-23.89,10,10,0,0,1,.38-2c-6.48-1.23-9.64-6.19-12.32-11.6a6.22,6.22,0,0,1,1.14-7.66c1.85-1.88,3.85-3.61,5.79-5.4-1.81,2-3.62,3.93-5.4,5.92-1.51,1.71-2.42,3.83-1.25,5.85a67.832,67.832,0,0,0,6.62,9.59c1.09,1.3,3.17,1.77,4.8,2.61l.22-.52-1.3-2.35c2.75,3.7,7.2,3.14,10.94,4.22,6.48,1.87,6.57,1.7,7.41,8.28.4,3.2.59,6.43.82,9,.37-3.73.84-8.08,1.2-12.44a3.93,3.93,0,0,1,3.08-3.7c1.79-.57,3.55-1.21,5.34-1.83h-.05c2-.25,4-.46,6-.8a6.77,6.77,0,0,0,1.77-.92l.2.17a5.49,5.49,0,0,0,1.81.06c4.84-1.65,7.42-5.5,9.57-9.83a6.54,6.54,0,0,0-.92-7.85c-1.64-1.9-3.34-3.75-5-5.61l.22-.25c2.12,2.31,4.36,4.52,6.31,7a5.57,5.57,0,0,1,.48,5.86c-2.45,5.85-6,10.55-12.36,12,.45,8.88-1.64,17.23-4,25.54l.76.19c1.33-5,2.77-9.93,3.93-14.94a41.589,41.589,0,0,0,.58-6.59,5.1,5.1,0,0,1,4.49-5.18Zm-22.7,41.21a11.56,11.56,0,0,0,8.23-6.14c5.59-9.7,7.51-20.37,8.2-31.35.14-2.21-.91-3.1-3.14-2.62-3.16.68-6.24,1.68-9.37,2.49a3.48,3.48,0,0,0-2.84,3.58c-.36,8.21-.76,16.42-1.06,24.63-.12,3.12-.02,6.12-.02,9.41Z" transform="translate(7276.478 615.65)"/>
    <path id="Path_281" data-name="Path 281" d="M135.57,229.48a17.46,17.46,0,0,1,11.56-8c8.58-1.45,16.08-5.43,23.78-9,1.82-.84,2.71-.76,4,1.13a111.32,111.32,0,0,0,7.42,9.2,7.25,7.25,0,0,1,1.64,2.86,17.01,17.01,0,0,1-2.853-.241c-3.377-.819-6.8-1.529-10.077-2.669a10.26,10.26,0,0,0-9.45.91l-4.88-3.46-.4.41c1.77,2,5.61,2.7,4.26,6.65.71-.77,1.37-1.6,2.13-2.32a6.63,6.63,0,0,1,7.39-1.65c3.47,1.31,7,2.45,10.5,3.72a9.11,9.11,0,0,1,6.46,8.51c.22,3.31.4,6.63.39,9.95,0,9.52-7.44,15.88-16.94,14.62l-2.44-.33c.16.28.19.46.28.49,4.2,1.65,4.19,1.65,3.28,6.14-.8,3.87-1.51,7.76-2.36,11.62a12.34,12.34,0,0,1-4.59,8,46.1,46.1,0,0,0,6.08-18.57c1-5.1,1-5.11-3.8-6.93C163,259,159,257.51,155,256c-2.48,6.63-1.23,36.92,1.67,40.6a20.18,20.18,0,0,1,8-10.72,9.869,9.869,0,0,1-1.07,1.49c-3,2.94-5.71,6.12-6.52,10.52l-.83.05a15.248,15.248,0,0,1-1.53-3.85c-1.18-11.86-2.72-23.71-1.11-35.66.42-3.12.74-3.4,3.71-2.29l3.93,1.48-7.16-5.87a20.161,20.161,0,0,1,2.14,1.28,30.59,30.59,0,0,0,12.16,6.08c9.64,2,17.54-3.1,18.22-12.15a71.343,71.343,0,0,0-.36-12.05,8.35,8.35,0,0,0-5.92-7.32q-4.89-1.78-9.82-3.43c-4.34-1.45-7.7.1-9.65,4.19q-3.66,7.68-7.51,15.26c-2,4-2,4.45.77,7.77.08.1,0,.3.05.45-3.7-2.25-3.72-2.39-1.3-9.43-1.82,4.42-6,4.89-9.78,6-2.09.64-4.21,1.18-6.32,1.76l.19.7a45.4,45.4,0,0,1,5.6-1.63,12.761,12.761,0,0,1,3.63.44L146,250a6.38,6.38,0,0,0-2.45-.35c-5.16,1.56-10.52,2.77-14.39,7l-.26-.23a5.13,5.13,0,0,0,1.18-3.52,140.241,140.241,0,0,1,.93-15.05,12.36,12.36,0,0,1,4.65-8.41,5.46,5.46,0,0,1-.54,1.21c-5.41,6.61-4,14.49-4.52,21.6,4.69-1.61,9.23-3.08,13.69-4.74,2.24-.84,5.3-1.45,6.34-3.17,3.43-5.62,6.13-11.69,9-17.64a2.83,2.83,0,0,0-.26-2.59c-2.09-2-4.23-3.76-7.67-3.12-5.94,1.12-11.15,3.34-15.16,8a3.621,3.621,0,0,1-.97.49Zm47.77-4.14-10.63-12.89-15.58,7.14c2.59,2.23,5,3.86,8.41,1.9.89-.51,2.47,0,3.67.25C173.8,222.84,178.36,224.06,183.34,225.34Z" transform="translate(7276.478 615.65)"/>
    <path id="Path_282" data-name="Path 282" d="M146.24,249.73a20.23,20.23,0,0,1,.6,4c-.08,2.11-.5,4.21-.41,6.37.57-2.66,1.14-5.33,1.74-8.16,4.56,7.08-1,30.83-8.55,34.7l3.58-13.75c-2.71,7.34-5.09,14.81-9.59,21.46l2.2-2.64a33,33,0,0,1,2.32-2.7,11.61,11.61,0,0,1,2.1-1.29c.42.71,1.23,1.44,1.19,2.12a39.169,39.169,0,0,1-.91,6.9c-.52,2.21-1.58,4.29-2.16,6.49a195.358,195.358,0,0,1-13,33.76q-3,6.2-6,12.36a15.045,15.045,0,0,1-1,1.67l-.59-.16c0-2.47-.17-4.95,0-7.39,1-13.2,4.83-25.72,9.56-38a8.24,8.24,0,0,0,.8-5.7c-.51-1.74-.1-3.76-.42-5.67-.59,3.66-1,7.35-1.8,11a75.49,75.49,0,0,1-9.17,22.25c-.47.81-.8,1.69-1.2,2.54l-4.06,5.69-1.37,1.27-.26-.22c1.5-2.23,3.06-4.41,4.49-6.67,7-10.95,11.93-22.64,12.32-35.83A31.06,31.06,0,0,0,125.6,287a1.31,1.31,0,0,0-1.39-1.23,1.38,1.38,0,0,0-.77.31l-.23-.24c1-1.34,1.9-.93,2.58.2a20.7,20.7,0,0,0,2,3.29c-.63-1.81-.88-3.9-2-5.4-3.62-5.07-3.8-10.55-2.51-16.26a23.67,23.67,0,0,1,5.6-11.26l.26.23c-1.69,3.45-3.81,6.77-5,10.4-1.52,4.81-1.9,10,1,14.45a22.33,22.33,0,0,1,3.33,12.36v5.54l.68.13c2.8-4.72,6.27-9.16,8.24-14.2a226.769,226.769,0,0,0,7.65-24.57c.91-3.42.63-7.16.89-10.75ZM118,349.06l.65.14c.67-1.46,1.25-3,2-4.38,8.75-15.75,14.41-32.74,19.85-49.82a8,8,0,0,0-.58-7c-4.31,5-8.65,9.49-11,15.42A149.369,149.369,0,0,0,119.23,337c-.58,4-.83,8-1.23,12.08ZM148.53,255l-7.71,29.9C147.41,275.95,150.65,266.19,148.53,255Z" transform="translate(7276.478 615.65)"/>
    <path id="Path_283" data-name="Path 283" d="M160.34,532.85a47.471,47.471,0,0,1-3.25-4.23c-5.05-8.27-6.8-17.57-8.42-26.95a88.79,88.79,0,0,1,.77-36.69,56.3,56.3,0,0,1,9-19.46c.43-.6.95-1.13,1.43-1.7l.57.25a87.916,87.916,0,0,0-1.44,9.68c-.32,7.72-.56,15.47-.39,23.19.2,9.79.83,19.58,1.28,29.37.14,2.91.29,5.82.59,8.72.4-6.14.46-12.33,1.27-18.41s2.28-12.25,3.6-18.34,2.79-12.11,4.21-18.2c.44.17.66.2.67.27q1.46,10.31,2.89,20.62c1.08,7.73-.61,15-3,22.34a120.887,120.887,0,0,0-4.55,16.86c-.56,3.29.35,6.86.79,10.29.38,3,1.07,5.9,1.56,8.86a15.53,15.53,0,0,1,0,2.46l-.71.31-7-9.31,6.92,7.74c-.27-3.63-1.2-7.07-1.61-10.58-.45-3.8-1.11-7.79-.46-11.48a115.277,115.277,0,0,1,4.56-15.89c2.43-7.38,4-14.79,2.59-22.59-1-5.41-1.89-10.84-2.82-16.22-.16.55-.41,1.26-.58,2-1.53,6.7-3.11,13.39-4.53,20.11-3.4,16.1-4.92,32.2.56,48.21a6.27,6.27,0,0,1,.16,1.43,4.1,4.1,0,0,1-1.32-2,73.78,73.78,0,0,1-4.35-23.44c-.44-10.42-.81-20.85-1.34-31.27-.45-8.85-1.08-17.68.45-26.5.36-2.1.66-4.22,1-6.33a50.38,50.38,0,0,0-10.08,22,94.91,94.91,0,0,0,.19,35.36c1.8,10.36,4.3,20.41,10.75,29C160.41,532.5,160.34,532.7,160.34,532.85Z" transform="translate(7276.478 615.65)"/>
    <path id="Path_284" data-name="Path 284" d="M210,541.61a50.509,50.509,0,0,1,1.34-8.46c3-9.11,1.33-17.77-1.92-26.37-2.89-7.66-5.36-15.46-4.43-23.78.56-4.93,1.73-9.8,2.44-14.72.39-2.68.39-5.41.91-8.15,4.28,17.58,9.73,34.91,9.68,53.3a4.18,4.18,0,0,0,.15-.72c.64-14.69,1.24-29.38,1.95-44.07.37-7.8-.85-15.44-2.07-23.09a2.64,2.64,0,0,1,.3-1.76c.57.68,1.2,1.33,1.72,2.06,7,9.91,10.22,21.1,10.89,33.09a113.59,113.59,0,0,1-5.61,40.87c-2.75,8.65-8.63,15.31-14.37,22Zm-1.2-78.51c-.69,4.41-1.12,8.18-1.89,11.87-1.39,6.65-2.26,13.3-.44,20,1.39,5.1,3.1,10.11,4.78,15.13,2.44,7.29,3.28,14.58,1,22.11a59.871,59.871,0,0,0-1.39,8.19l.78.34c3.35-4.75,7-9.31,10-14.29,4.58-7.67,5.9-16.42,7.39-25.08,2.3-13.38,2.23-26.61-1.79-39.66a52.06,52.06,0,0,0-8.42-16.39c.09,1,.08,1.46.16,1.88a99.35,99.35,0,0,1,1.71,23.6c-.6,12.64-1.1,25.28-1.65,37.93-.36,8.57-1.39,17-4.54,25.08-.26.66-.6,1.29-.9,1.93l-.56-.21c.28-1,.53-2.1.87-3.13a69.4,69.4,0,0,0,3-23.39c-.25-11.09-2.54-21.8-5-32.5-1-4.28-1.95-8.56-3-13.37Z" transform="translate(7276.478 615.65)"/>
    <path id="Path_285" data-name="Path 285" d="M160.34,341.46c1.34,5.92,2.62,11.85,4,17.75,1.47,6.14,2.87,12.32,4.65,18.37,3.13,10.65,2.71,21.42,1.55,32.24-.36,3.3-.87,6.58-1.42,9.85a47,47,0,0,1-7.67,19c-2.35,3.44-4.68,6.91-7,10.36l-.7-.14v-2.12c-.59-15.33-1.37-30.66-1.68-46-.15-7.42.43-14.85.92-22.27,1-14.66,3.62-29.2,3-44a13.4,13.4,0,0,1,.4-2.6l.92-.12c.5,1.55,1,3.12,1.5,4.66.4,1.15.91,2.25,1.36,3.38A12.674,12.674,0,0,1,160.34,341.46Zm-3-8.35-.62.13a6.021,6.021,0,0,1-.07,1.12c-.28,7.43-.4,14.86-.88,22.28-.92,14.51-2.7,29-2.88,43.51-.2,15.4,1,30.82,1.68,46.23,0,.19.17.37.35.75,5.74-8.17,11.64-16,13.3-26.06.71-4.28,1.44-8.57,1.9-12.89,1.06-9.95,1.17-19.82-1.49-29.66-3.24-12-6-24.06-9-36.1q-1.14-4.65-2.29-9.3Z" transform="translate(7276.478 615.65)"/>
    <path id="Path_286" data-name="Path 286" d="M221.09,444.52c-4.77-5.84-8.87-12.12-10.69-19.5-3.12-12.66-4.74-25.57-2.92-38.53,1.08-7.7,3.54-15.2,5.35-22.79q2.14-9,4.25-18l1.62-7.14,2.19-6.74.83.06a10.521,10.521,0,0,1,.51,2.48c-.49,14.35,1.72,28.52,3,42.74a236.879,236.879,0,0,1,.4,36.91c-.69,10.56-.81,21.16-1.17,31.73v3l-.63.28L221,444.45l2.78,2.88c.05-.8.08-1.18.09-1.56.29-9.09.4-18.18.9-27.26a273.614,273.614,0,0,0-.13-40.49c-1.35-14.62-3.69-29.2-3-44a5.569,5.569,0,0,0-.1-.82,5.88,5.88,0,0,0-1.3,2.69c-1.08,4.45-2.12,8.9-3.22,13.35-2.35,9.5-4.52,19.06-7.16,28.48-3.07,11-2.48,22-1.4,33.17,1.14,11.85,4.69,22.69,12.09,32.14a5.66,5.66,0,0,1,.54,1.49Z" transform="translate(7276.478 615.65)"/>
    <path id="Path_287" data-name="Path 287" d="M225.39,429.37c.2-4.23.25-8.48.64-12.7a217.661,217.661,0,0,0-.91-48c-1.76-13.73-2.81-27.51-1.62-41.37.07-.84.14-1.67.25-3,.6.65,1,.86,1,1.14,2.85,11.89,5.88,23.74,8.39,35.7a129.206,129.206,0,0,1,2.09,17.64c.61,8.76-1.07,17.33-3,25.81-1.72,7.7-3.9,15.29-5.88,22.94-.17.64-.4,1.28-.6,1.92Zm1-5.93.32.07c.21-.64.45-1.27.62-1.92,1.41-5.43,3.15-10.8,4.11-16.31,1.42-8.15,3-16.38,3.17-24.6a101.46,101.46,0,0,0-2.39-21.63c-1.76-9.05-4.32-17.95-6.54-26.91-.38-1.55-.73-3.11-1.11-4.67a2.07,2.07,0,0,0-.51,1.4c-1.13,14.51.53,28.89,2.09,43.27,1.13,10.45,2.18,20.91,1.32,31.46-.53,6.6-.73,13.23-1.08,19.84Z" transform="translate(7276.478 615.65)"/>
    <path id="Path_288" data-name="Path 288" d="M154.56,324.76c.16,2,.34,4,.47,6,.83,13.31-.42,26.53-2,39.71a206.839,206.839,0,0,0-.9,43.51,135.608,135.608,0,0,1,.44,15.22,2.72,2.72,0,0,1-.35-.65c-3.1-12.55-6.91-24.93-8.64-37.83-1.09-8.06.15-15.88.82-23.82,1.08-12.78,5.1-24.87,8.2-37.18.42-1.67.81-3.35,1.22-5Zm-3.5,98.41.65-.13a49.126,49.126,0,0,0,0-5.29c-2.17-19.71-.6-39.29,1.9-58.85a148.75,148.75,0,0,0,.36-31.43c-.75,2.38-1.32,4.8-2,7.2-2.71,9.73-5.54,19.42-6.64,29.53-1.06,9.82-2.77,19.59-.63,29.47l6.36,29.5Z" transform="translate(7276.478 615.65)"/>
    <path id="chest-left-mid" d="M169.82,308.68l1.29,2.35-.21.52c-1.63-.84-3.72-1.31-4.81-2.61a68.679,68.679,0,0,1-6.62-9.59c-1.17-2-.26-4.14,1.26-5.85,1.77-2,3.59-3.95,5.39-5.92l-.08.05,1.42-1.06c-.29,4.26-.84,8.63-.81,13,0,3.31.56,6.71,3.24,9.22Z" transform="translate(7276.478 615.65)" fill="#fff"/>
    <path id="Path_290" data-name="Path 290" d="M160.35,341.46c0-.54-.06-1.08-.1-1.62-.46-2.41-.92-4.81-1.39-7.22l.61-.22a4.462,4.462,0,0,1,.91.88,51.249,51.249,0,0,0,13.22,15,7.58,7.58,0,0,1,1,1.23,16.9,16.9,0,0,1-1.91-1.18c-4.89-4-9.43-8.37-12.41-14.13l-.73.34,18.35,67.94a205.651,205.651,0,0,0,6.32-41.72c.14-3.88-1.18-6.2-4.58-7.83a38.9,38.9,0,0,1-5.12-3.5,78.368,78.368,0,0,1,8.49,5.08,6,6,0,0,1,1.72,4.31A94.71,94.71,0,0,1,183.9,373c-1.63,10.21-3.67,20.35-5.56,30.52a3.16,3.16,0,0,1-.86,1.53C172.91,383.54,166.68,362.48,160.35,341.46Z" transform="translate(7276.478 615.65)"/>
    <path id="Path_291" data-name="Path 291" d="M205.47,187.87c-.2,2.38-.47,4.42-.53,6.46a5.79,5.79,0,0,1-3.7,5.8,21.059,21.059,0,0,0-2.33,1.16c-8.52,4.84-16.43,3-23.94-2.31a5.67,5.67,0,0,1-1.69-3.18,25.729,25.729,0,0,1-.5-5c-.07-1.72,0-3.37-2.51-3.27-.41,0-1-.74-1.26-1.27-1-2-2-4.12-2.91-6.22a2.91,2.91,0,0,1,1.29-3.89,3.12,3.12,0,0,1,.48-.18c2.13-.82,2.48-2.15,2.45-4.18a21.87,21.87,0,0,1,3.46-13.09,18.08,18.08,0,0,1,19.95-7.5A18.8,18.8,0,0,1,207.4,168a12.662,12.662,0,0,1,.06,2.61c-.3,2.47.19,4.4,2.68,5.65,1.91.95,2.3,2.67,1.39,4.65-.52,1.15-.93,2.35-1.43,3.51C209.25,186.32,208.29,188.14,205.47,187.87ZM173,187.18a25.841,25.841,0,0,1,.52,4.81c-.36,4.51,1.82,6.92,5.74,8.87,5.19,2.59,10.26,3.5,15.71,1.35,1.76-.69,3.44-1.58,5.2-2.26a5.66,5.66,0,0,0,4.07-6,37.219,37.219,0,0,1,.35-4.48c.11-1.32.24-2.46,2.1-2.45a2.92,2.92,0,0,0,1.94-1.41,25.9,25.9,0,0,0,1.75-3.87c1.41-3.46,1.36-3.86-1.7-5.79a3.55,3.55,0,0,1-1.87-3.45,34.67,34.67,0,0,0-.44-6.59,17.79,17.79,0,0,0-17.3-14.72A17.61,17.61,0,0,0,171.81,165c-.62,2.74-.6,5.63-1,8.44a3.32,3.32,0,0,1-1,2.12c-3.91,2.72-3.94,2.68-1.93,7,.29.56.56,1.13.8,1.72.67,2,1.72,3.39,4.28,2.86Z" transform="translate(7276.478 615.65)"/>
    <path id="Path_292" data-name="Path 292" d="M201.89,200.82c1.59,3.8,2.8,7.56,1,10.63-2.49,4.21-6.05,7.81-9.29,11.55a11.11,11.11,0,0,1-3.2,1.67c-.17-1.51-.29-2.56-.43-3.75l-1.76.09-.87,3.18a18.851,18.851,0,0,1-3.06-1.41,27.48,27.48,0,0,1-9-10.83c-1.7-3.53-.58-7.24.59-11.28l8.2,4.47h10ZM187.17,224a12,12,0,0,0,.12-2.74q-1.24-5.74-2.68-11.45c-1.09-4.34-4-6.8-9-7.89-.08,3.1-1,6.45,0,9a26.24,26.24,0,0,0,11.57,13Zm14.67-21.92c-4.49,1-7.17,3.33-8.4,7.32a46.064,46.064,0,0,0-1.58,4.45c-.61,3.18-1,6.4-1.55,10.24,1.42-.74,2.21-.91,2.62-1.39a108.38,108.38,0,0,0,9.37-11.46c1.72-2.71.34-6.08-.46-9.16ZM189,220.12l3.94-14.38H185Z" transform="translate(7276.478 615.65)"/>
    <path id="Path_293" data-name="Path 293" d="M218.7,338.6l-1.62,7.14c-1,3-2.23,6-3.05,9.14-4.21,16-8.32,31.94-12.46,47.9-.19.74-.42,1.47-.72,2.54A6.451,6.451,0,0,1,200,404c-3.51-14.71-6.45-29.48-6.56-44.69a6.24,6.24,0,0,1,3.53-6.09c3.26-1.89,6.3-4.17,9.44-6.28a31.05,31.05,0,0,1-3.53,3.54,54.854,54.854,0,0,1-6.29,3.78,4.37,4.37,0,0,0-2.49,4.68c1,9.57,1.79,19.16,3,28.7a97.778,97.778,0,0,0,3.58,15.1c.22-.85.45-1.69.67-2.54q7.13-26.52,14.22-53.05a112.6,112.6,0,0,0,2.59-12.47l-6.13,7.58,6.46-9.88.64.18Z" transform="translate(7276.478 615.65)"/>
    <path id="Path_294" data-name="Path 294" d="M265.75,334.36l1,1.41.21,1.46a12.171,12.171,0,0,1-1.79-1.65c-1.95-2.66-3.81-5.37-6-7.92.51,3.15,1.13,6.29,1.51,9.45.48,4.08.91,8.18,1.09,12.28a16.5,16.5,0,0,1-.85,5.57,10.85,10.85,0,0,0,1.72,10.28c2.88,4,5.51,8.27,8.29,12.39a34.774,34.774,0,0,0,2.53,2.9c.47-3.52-3.61-5.43-1.48-9.19,1.94,3.92,3.6,7.29,5.26,10.66.67,1.35,1.45,2.5,3.61,1.61-.51-1.25-.93-2.49-1.51-3.65-1.56-3.1-3.25-6.14-4.77-9.27a7.54,7.54,0,0,1-.27-2.5l.9-.19,3.91,8.18c-.2.14-.58.36-.56.41.79,1.8,1.7,3.56,2.38,5.4.25.68.2,2.12-.09,2.23a3.49,3.49,0,0,1-2.6-.05,5.06,5.06,0,0,1-1.69-2.17,70,70,0,0,0-4.84-8.62l2.91,6.55-.69.75c-.88-.48-2.07-.75-2.58-1.49-1.83-2.65-3.41-5.49-5.16-8.21a28.349,28.349,0,0,0-2.85-3.78c-3.69-4.09-4.43-8.51-2.74-13.83a22,22,0,0,0,.16-8.67c-.64-5.79-1.63-11.55-2.44-17.32a17.189,17.189,0,0,1,0-2.27l4.46,5.17Z" transform="translate(7276.478 615.65)"/>
    <path id="Path_295" data-name="Path 295" d="M173.87,396.42c6.65,8.68,4.52,50.9-3.42,60.37v-3.1a68,68,0,0,0-2.18-21.12,4.52,4.52,0,0,1-.06-2.31,168.82,168.82,0,0,0,5-32.24,5.75,5.75,0,0,1,.31-1.35C173.53,396.56,173.74,396.5,173.87,396.42Zm-2.5,57.09c7.13-18.05,7.36-36.4,2.73-55a.7.7,0,0,0-.41.58,138.451,138.451,0,0,1-4.33,28.76,13.54,13.54,0,0,0,.16,7.2A49.448,49.448,0,0,1,170.8,443c.32,3.49.4,7,.57,10.51Z" transform="translate(7276.478 615.65)"/>
    <path id="Path_296" data-name="Path 296" d="M204.93,396.45c.28,2.8.42,5.61.86,8.37,1.33,8.26,2.78,16.49,4.16,24.74a6.46,6.46,0,0,1,.14,2.8c-2.23,7.37-2.43,14.94-2.28,22.55,0,.43-.05.87-.08,1.45C200.18,449.67,197.84,405.76,204.93,396.45ZM203.84,399c-4.27,18.23-4,36.68,3,54.82a1.67,1.67,0,0,0,.24-1.05,69.57,69.57,0,0,1,2.2-20.16,5.1,5.1,0,0,0,.08-2.3c-1.85-10.54-3.74-21.09-5.57-31.31Z" transform="translate(7276.478 615.65)"/>
    <path id="Path_297" data-name="Path 297" d="M160.83,491.93a5.069,5.069,0,0,1-.49-1.45c-.34-11.51-1.29-23.05-.71-34.51.32-6.54,3.14-13,4.87-19.42a3.14,3.14,0,0,1,.62-1.27,17.566,17.566,0,0,1,1.64-1.47c.37.57,1,1.1,1.08,1.72.58,3,1.09,6.05,1.53,9.09a50.49,50.49,0,0,1-1.79,20.81c-2.09,7.68-3.57,15.52-5.33,23.28-.25,1.1-.61,2.18-.93,3.26Zm6.08-57.65c-6.41,7-9.72,40.89-5.69,55.8.23-1,.42-1.72.59-2.48,2.06-8.9,4.05-17.84,6.2-26.72S168.84,443.34,166.91,434.28Z" transform="translate(7276.478 615.65)"/>
    <path id="Path_298" data-name="Path 298" d="M265.75,334.36l-3-4.07c-2.9-5.94-6.18-11.73-8.6-17.86a49.73,49.73,0,0,1-3.52-23.17l-.06.08a1.372,1.372,0,0,0,.16-.18q1.36-2.06,2.72-4.13a27.206,27.206,0,0,1,3.34,3.45c5.15,7.52,7.1,16.06,7.89,25a73.39,73.39,0,0,0,8.15,27.28,6.4,6.4,0,0,1,.31,1l-.58.45-1.59-2c0-.54.22-1.15,0-1.59a83.139,83.139,0,0,1-6.53-21.19c-.87-5.36-1.11-10.9-2.64-16.06-1.44-4.83-4.18-9.28-6.42-13.86a13.089,13.089,0,0,0-1.81-2.19,9.09,9.09,0,0,0-2.51,7,53.61,53.61,0,0,0,4.65,22.32c2.69,5.94,6.08,11.56,9.13,17.34a18.621,18.621,0,0,1,.91,2.38Z" transform="translate(7276.478 615.65)"/>
    <path id="Path_299" data-name="Path 299" d="M216.91,491.94c-.4-1.63-.82-3.25-1.2-4.88-2.15-9.21-4.44-18.39-6.41-27.64-1.75-8.2-.55-16.33,1.31-24.39a2.28,2.28,0,0,1,.42-.82,6.87,6.87,0,0,1,1.07-.79c.81,1.63,1.69,3.12,2.3,4.71,4.7,12.11,5.62,24.69,4.64,37.5-.34,4.33-.53,8.67-.83,13-.07,1.08-.31,2.14-.47,3.21Zm-5-57.51c-.37.36-.55.45-.58.58-2,9-3.24,18-.68,27.19,1.34,4.78,2.35,9.67,3.48,14.51.52,2.23,1,4.48,1.46,6.72s1,4.29,1.46,6.44c1.78-18.79,3.87-37.56-5.17-55.44Z" transform="translate(7276.478 615.65)"/>
    <path id="Path_300" data-name="Path 300" d="M217.78,290.71c-4.76-4.06-8.8-8.48-9.53-15.17-.41-3.68-1.43-7.28-2.18-10.92-.43-2.07-.08-3.55,2.41-3.94a14.329,14.329,0,0,0,3.2-1.36l2.23-.74c2.52-.9,5.07-1.75,7.56-2.73,1.72-.68,2.51-.24,2.69,1.61.89,9.22,1.42,18.43,0,27.66-.37,2.42-.35,4.9-.75,7.31a58.645,58.645,0,0,1-1.55,5.71l-.6-.15-3.54-7.36,4.25,6.16c2.25-13.6,3.52-27,1.19-40.75-5.38,1.92-10.5,3.7-15.55,5.67-.53.2-1,1.57-.88,2.29.54,3.35,1.52,6.63,1.91,10a21.79,21.79,0,0,0,7.78,14.67,9.411,9.411,0,0,1,1.36,2.04Z" transform="translate(7276.478 615.65)"/>
    <path id="Path_301" data-name="Path 301" d="M279,376.1c.92,1.51,1.85,3,2.76,4.54.33.54.5,1.27,1,1.61a14.87,14.87,0,0,0,2.47,1.21c.06-.92.49-2,.13-2.72-2.51-4.91-5.2-9.73-7.8-14.6a15.828,15.828,0,0,1-.76-2.23l.81-.35,9.09,14.88c2.08-2,.93-3.34.19-4.64-2.39-4.17-4.82-8.32-7.56-13.05a29.5,29.5,0,0,1,4.3-.22c1.48.13,2.93.65,4.4.91a3.06,3.06,0,0,0,3.66-1.88c-1.53-2.19-5.28-1.21-6-4.35,1.7.93,3.37,1.9,5.09,2.77,1.95,1,2.17,2.32.29,3.38a6.44,6.44,0,0,1-3.54.58c-2.18-.21-4.34-.73-6.51-1.13l-.39.75c2.18,3.8,4.37,7.58,6.5,11.4a11.849,11.849,0,0,1,1.42,3.43,2.24,2.24,0,0,1-.94,1.92c-.45.23-1.49-.2-2-.66-.78-.74-1.31-1.74-2.19-2.51a48.565,48.565,0,0,1,2.67,5.65c.3.9-.23,2.08-.38,3.14-1-.25-2.59-.16-3-.82A71.79,71.79,0,0,1,279,376.1Z" transform="translate(7276.478 615.65)"/>
    <path id="Path_302" data-name="Path 302" d="M99.51,374.54l3.24-6.49.86.21a8.59,8.59,0,0,1-.38,2.61c-1.71,3.54-3.57,7-5.35,10.54a21.12,21.12,0,0,0-.81,2.18c2,.87,2.83-.09,3.52-1.5,1.66-3.39,3.34-6.77,5-10.19,1.55,1.25,1.54,1.25.34,3.7-.64,1.3-1.25,2.62-1.87,3.93l.57.46a9.521,9.521,0,0,0,1.81-1.72c1.48-2.32,2.82-4.74,4.27-7.09a18.38,18.38,0,0,1,1.67-2c-2.06,3.5-4.08,7-6.26,10.46-.3.48-1.35.49-2.05.71l-.6-2.73c-.81,1.65-1.53,3.38-2.51,5a4.67,4.67,0,0,1-2.19,1.93c-1.66.58-2.61-.52-2-2.18.46-1.34,1-2.63,1.57-3.95Z" transform="translate(7276.478 615.65)"/>
    <path id="Path_303" data-name="Path 303" d="M188.4,304.57c0,2.13.07,4.26,0,6.39s-1.12,2.9-3.11,2.43c-3.37-.8-6.73-1.65-10-2.69a4.52,4.52,0,0,1-2.69-2.06,89.612,89.612,0,0,1-3.41-10.48c-.19-.71.75-2.06,1.53-2.61,4.63-3.29,10-3.73,15.4-3.29a2.85,2.85,0,0,1,1.86,2c.5,3.41.72,6.86,1,10.3Zm-.57-.49h.37c-.26-3.14-.42-6.29-.84-9.4a2.53,2.53,0,0,0-1.7-1.73c-4.94-.32-9.77,0-14.16,2.77a2.82,2.82,0,0,0-1.62,3.48,54.282,54.282,0,0,0,2.77,8.24,6.86,6.86,0,0,0,3.66,2.89,82.2,82.2,0,0,0,8.45,2.26c2.34.59,3,.12,3.06-2.33.05-2.05,0-4.11,0-6.16Z" transform="translate(7276.478 615.65)"/>
    <path id="Path_304" data-name="Path 304" d="M138.08,559.84c-1.52,1.78-3.13,3.47-4.52,5.34-1.93,2.58-1.71,3.26,1.21,4.43,1.68.67,3.38,1.29,5.11,1.82A14.13,14.13,0,0,0,153,568.9a63.646,63.646,0,0,1,8.3-4.83c1.78-.92,3.19-2,3.47-4.1.6-4.59,1.54-9.16,1.76-13.77.1-2-1.24-4-1.93-6.06a6.68,6.68,0,0,1,2.76,6.21c-.52,4.53-1.22,9-1.87,13.55-.36,2.54-2,3.88-4.27,4.89a31.137,31.137,0,0,0-7.11,4.06,15.42,15.42,0,0,1-16,2.78c-1.63-.58-3.23-1.27-4.84-1.9s-2.21-2.09-1.2-3.38C133.93,564,136.08,562,138.08,559.84Z" transform="translate(7276.478 615.65)"/>
    <path id="Path_305" data-name="Path 305" d="M169,294.33c0-1.44-.07-2.88,0-4.31a14.4,14.4,0,0,1,15-13.73,15.1,15.1,0,0,1,2.23.28,3.1,3.1,0,0,1,2.07,2.05,96.109,96.109,0,0,1,.07,10.6c0,.6-1.12,1.15-1.74,1.72h-.23c-5.83,0-11.76-.39-16.76,3.8Zm1-.59a19.75,19.75,0,0,1,11.57-3.48c2.07-.07,5,.37,6-.76s.61-4,.61-6.16c0-6.45-1.15-7.3-7.57-5.91-8,1.74-12.46,8.38-10.57,16.3Z" transform="translate(7276.478 615.65)"/>
    <path id="Path_306" data-name="Path 306" d="M213.9,258.59l-2.23.74c-2.65.27-5.3.76-7.95.8-4.56.05-8.09-2.22-11-5.53l.09.07-.25-.92.23-.21c4.21,5.66,10,6.8,16.45,5.51a29.69,29.69,0,0,0,12.86-6.76c4.37-3.56,4.4-4,1.76-9-2.23-4.26-4.3-8.6-6.54-12.86-1-1.93-2.26-3.73-3.4-5.59l.22-.24a20.92,20.92,0,0,1,2.95,3.55c2.54,4.89,4.81,9.92,7.35,14.81,2.81,5.41,2.83,6.11-1.95,9.83C219.74,254.89,216.76,256.66,213.9,258.59Z" transform="translate(7276.478 615.65)"/>
    <path id="Path_307" data-name="Path 307" d="M190.27,312.59a8.71,8.71,0,0,1-.84-2.49c-.1-4.18-.1-8.36-.07-12.53,0-4.73.87-5.49,5.5-5.53A22.91,22.91,0,0,1,207,295.3c1.4.82,2.22,1.9,1.75,3.47a72.613,72.613,0,0,1-3.33,9.74c-.53,1.17-2.38,1.8-3.71,2.52a26,26,0,0,1-3.16,1.26h0a48.855,48.855,0,0,1-5.38,1,10.83,10.83,0,0,1-3-.68c2.82-.47,5.63-1.16,8.48-1.36,5.54-.4,7.63-4,8.75-8.73.28-1.16.46-2.33.73-3.48a2.62,2.62,0,0,0-1.5-3.12,22.52,22.52,0,0,0-11.28-3.19c-4.64-.1-5.3.45-5.33,5C190,302.64,190.19,307.62,190.27,312.59Z" transform="translate(7276.478 615.65)"/>
    <path id="Path_308" data-name="Path 308" d="M110.17,336.85a14,14,0,0,1-5.39,5.49A6,6,0,0,1,105,341c5.47-10.27,7.84-21.35,9-32.85a42.85,42.85,0,0,1,8.45-21.54,5.843,5.843,0,0,1,.85-.8l.23.23a48.85,48.85,0,0,0-9,22.37,119.438,119.438,0,0,1-2,13.56c-1.58,6.21-3.8,12.26-5.66,18.13l3.12-3.48Z" transform="translate(7276.478 615.65)"/>
    <path id="Path_309" data-name="Path 309" d="M209.25,294.31c-.92-.06-1.19,0-1.35-.1-4.73-3.11-10.05-3.48-15.47-3.22-2.36.11-3.25-.87-3.11-3.23.16-2.68,0-5.37,0-8.05a3,3,0,0,1,2.5-3.34,2.819,2.819,0,0,1,.82,0,18.41,18.41,0,0,1,13.41,4.93,6.2,6.2,0,0,1,1.78,3.19C208.48,287.62,208.79,290.81,209.25,294.31Zm-1.25-.55.56-.44c-.52-3.29-1-6.58-1.59-9.86a2.87,2.87,0,0,0-.92-1.35,18.31,18.31,0,0,0-13.3-5.14c-1.9,0-2.7.95-2.69,2.77,0,2.92.05,5.84,0,8.75,0,1.34.56,1.81,1.85,1.78,5.61-.16,11.2-.13,16.09,3.49Z" transform="translate(7276.478 615.65)"/>
    <path id="Path_310" data-name="Path 310" d="M193.35,225.13c.43-.6.83-1.21,1.29-1.79,2.84-3.56,5.63-7.16,8.59-10.62a2.76,2.76,0,0,1,2.54-.46c5.41,2.35,10.76,4.86,16.16,7.33l-6.15,4c-3-2.23-6.51-1.81-10.19-.58-3,1-6.08,1.64-9.14,2.38a20.76,20.76,0,0,1-2.73.33Zm27-5.54-15.64-7.14-10.62,12.9c4.61-1.2,8.89-2.22,13.1-3.44a10,10,0,0,1,7.58.42,2.26,2.26,0,0,0,1.82-.05c1.28-.76,2.43-1.72,3.77-2.69Z" transform="translate(7276.478 615.65)"/>
    <path id="Path_311" data-name="Path 311" d="M203.57,263.58c.37.47,1,.89,1.08,1.41,1.09,4.44,2.11,8.89,3.12,13.34a5.459,5.459,0,0,1-.07,1.34,5.46,5.46,0,0,1-1.31-.38A32.9,32.9,0,0,0,192.27,275c-2.1-.16-2.88-1.14-3-3.35-.21-4.16.36-7.93,3.18-11.23,1-1.17,1.82-1.83,3.37-1.09,1.85.88,3.81,1.53,5.63,2.45a11.9,11.9,0,0,1,2.2,1.93c-2.54-1.19-5.11-2.35-7.63-3.59-1.37-.68-2.12-.36-3.15.83-2.91,3.36-3.2,7.27-2.77,11.33a3,3,0,0,0,1.8,1.87c1.4.47,3,.37,4.41.79,3.57,1.06,7.09,2.27,10.68,3.44a3,3,0,0,0,0-.79Q205.29,270.56,203.57,263.58Z" transform="translate(7276.478 615.65)"/>
    <path id="Path_312" data-name="Path 312" d="M216.4,537.29a34.77,34.77,0,0,1-2.46,3.29,7.46,7.46,0,0,0-2.3,6.43c.61,4.28,1.25,8.55,1.84,12.83.32,2.34,1.85,3.41,3.84,4.35a36.814,36.814,0,0,1,7.31,4.19A14.71,14.71,0,0,0,239.89,571c2-.73,4-1.43,6-2.14a17.49,17.49,0,0,1-20.44.92,102.523,102.523,0,0,0-9.11-5.32,5.42,5.42,0,0,1-3.33-4c-.68-4.83-1.57-9.64-2-14.49C210.63,541.93,213.84,539.73,216.4,537.29Z" transform="translate(7276.478 615.65)"/>
    <path id="Path_313" data-name="Path 313" d="M100.57,346.67c-4.52,4.46-7.8,10.31-14.38,12.49a2.84,2.84,0,0,0,3.22,2.37,2.741,2.741,0,0,0,.39-.09c1.48-.21,2.92-.73,4.4-.92a41.672,41.672,0,0,1,4.47,0c-2.84,4.93-5.25,9.14-7.71,13.33-1.18,2-1.25,2.36-.09,4.4l2.92-3.67.48,1.12-.68.54a7.349,7.349,0,0,1-1.26,1.41c-.6.39-1.77.95-2,.76a3.57,3.57,0,0,1-1-2.37,8.791,8.791,0,0,1,1.37-3c2.17-3.83,4.37-7.64,6.55-11.45l-.31-.78a45.927,45.927,0,0,1-6.7,1.12,9.7,9.7,0,0,1-4.18-1.34c-.22-.11,0-2.11.33-2.2,5.39-1.48,7.72-6.55,11.65-9.73C98.88,348,99.73,347.34,100.57,346.67Z" transform="translate(7276.478 615.65)"/>
    <path id="Path_314" data-name="Path 314" d="M170.25,280a30.44,30.44,0,0,1,.23-3.81c.61-2.92,1.41-5.82,2-8.75a8.94,8.94,0,0,1,6.33-7c6.22-2.21,4.81-2.66,8.47,2.72,2.17,3.19,1.19,6.69,1.1,10.09,0,.46-.87,1.21-1.42,1.29C181.26,275.45,175.66,276.56,170.25,280Zm.14-1.06a62.8,62.8,0,0,1,5.77-2.58,36.933,36.933,0,0,1,5.45-1.49c6.48-1.22,6.8-1.21,6.14-7.84-.24-2.49-2.32-4.81-3.6-7.18a1,1,0,0,0-.85-.26c-3.38,1.21-7.6,1.59-9.08,5.29-1.73,4.32-2.51,9-3.82,14.06Z" transform="translate(7276.478 615.65)"/>
    <path id="Path_315" data-name="Path 315" d="M209.46,341c3-4.13,6.19-8.17,9.06-12.41,4.33-6.4,4.4-13.5,2.87-20.77-.36-1.7-.81-3.37-1.26-5.28l-4.72,5.95,4.72-8c2.25,7.86,4.28,15.1,1.68,22.56a48.319,48.319,0,0,1-10.83,17A6.281,6.281,0,0,1,209.46,341Z" transform="translate(7276.478 615.65)"/>
    <path id="Path_316" data-name="Path 316" d="M164.42,540c-1.92-1.9-3.93-3.72-5.73-5.72a40.759,40.759,0,0,1-3-4.4c-.22.84-.44,1.45-.54,2.07-.64,4.21-1.18,8.44-1.92,12.63a6.77,6.77,0,0,1-1.49,3.05c-3.75,4.48-7.59,8.9-12.76,11.87a10.706,10.706,0,0,1-1,.46c.27-.37.45-.87.81-1.07,5.1-3,8.82-7.39,12.58-11.77a5.72,5.72,0,0,0,1.3-2.67c.74-4.44,1.32-8.91,2-13.36a18.24,18.24,0,0,1,.68-2.29Z" transform="translate(7276.478 615.65)"/>
    <path id="Path_317" data-name="Path 317" d="M192.53,253.75c-.77-1.85-2.1-3.66-2.22-5.55a94.078,94.078,0,0,1,.16-13.22,8.82,8.82,0,0,1,6.23-7.89c3.78-1.37,7.59-2.63,11.38-4a5.38,5.38,0,0,1,6,1.44l-.21.24c-1.77-.39-3.71-1.43-5.29-1a116.307,116.307,0,0,0-12.06,4.08,7.26,7.26,0,0,0-5.1,5.77c-.86,6.68-2.07,13.47,1.32,19.91Z" transform="translate(7276.478 615.65)"/>
    <path id="Path_318" data-name="Path 318" d="M113.81,367.87a28.17,28.17,0,0,1,1.67-3c1.69-2.36,2.91-5,1.94-7.78-2.1-6-1-11.89-.42-17.84.38-3.76,1-7.5,1.59-11.46l-1.47.91,1.88-3.4.7.18c-.26,1.77-.55,3.53-.76,5.31-.75,6.17-1.55,12.33-2.16,18.51a10.75,10.75,0,0,0,.58,4.64C119.42,359.47,117.8,363.94,113.81,367.87Z" transform="translate(7276.478 615.65)"/>
    <path id="Path_319" data-name="Path 319" d="M206.33,310.55c6.49-7.73,4.52-16.48,3.27-25.45l2.61,2.15-.22.24-1.83-1c.38,2.63.88,5,1,7.46a43.279,43.279,0,0,1-.09,7.55,12.91,12.91,0,0,1-4.58,9.26Z" transform="translate(7276.478 615.65)"/>
    <path id="Path_320" data-name="Path 320" d="M169.88,308.77c-2.67-2.51-3.2-5.91-3.23-9.22,0-4.35.52-8.72.81-13L166,287.63l1.87-2.51.94.3C167,293.36,165.87,301.23,169.88,308.77Z" transform="translate(7276.478 615.65)"/>
    <path id="Path_321" data-name="Path 321" d="M227.09,547.56c-.71-1-1.87-1.87-2.07-2.94-.83-4.48-1.38-9-2-13.54a12.155,12.155,0,0,0-.3-1.19l-3.47,4.63,2.94-5.67.73.08a10.578,10.578,0,0,1,.68,2c.64,4.12,1.14,8.27,1.88,12.38A23.751,23.751,0,0,0,227.09,547.56Z" transform="translate(7276.478 615.65)"/>
    <path id="Path_322" data-name="Path 322" d="M189,234.45l-4.07-8H193Zm0-1.79,2.93-5.48H186Z" transform="translate(7276.478 615.65)"/>
    <path id="Path_323" data-name="Path 323" d="M93.58,376.21l.69-.54c.06.23.11.46.16.68a45.433,45.433,0,0,0-2,4.53,7.14,7.14,0,0,0,.15,2.52c.84-.35,2.06-.46,2.46-1.09,1.44-2.25,2.61-4.68,3.9-7a6.718,6.718,0,0,1,.56-.73l-1.17,3.88c-.79,1.25-1.55,2.52-2.35,3.76s-1.78,2.75-3.56,1.85-1.08-2.48-.43-3.9S93.06,377.52,93.58,376.21Z" transform="translate(7276.478 615.65)"/>
    <path id="Path_324" data-name="Path 324" d="M285.73,355.29c-2.62-2.54-5.17-5.17-7.91-7.59-1.25-1.11-2.93-1.71-4.29-2.71a35.477,35.477,0,0,1-3-2.83A47.52,47.52,0,0,1,284,352.86,29.016,29.016,0,0,1,285.73,355.29Z" transform="translate(7276.478 615.65)"/>
    <path id="Path_325" data-name="Path 325" d="M245.78,568.94c-.32-1.24-.28-2.78-1-3.66-2-2.36-4.39-4.44-6.63-6.62-.59-.58-1.23-1.12-1.84-1.66a22.76,22.76,0,0,1,9.88,9.25C246.66,567.06,247.41,568.27,245.78,568.94Z" transform="translate(7276.478 615.65)"/>
    <path id="Path_326" data-name="Path 326" d="M111.54,335.58l4.06-5.68,1.59-1.28-6.71,9.58Z" transform="translate(7276.478 615.65)"/>
    <path id="Path_327" data-name="Path 327" d="M186.82,259.93a5.69,5.69,0,0,1,1.36-8.78,1.91,1.91,0,0,1,1.76.27,9.389,9.389,0,0,1,1.4,2.12l-.24.22-2.1-2.37c-3.6,3.4-3.87,4.59-2,8.34Z" transform="translate(7276.478 615.65)"/>
    <path id="Path_328" data-name="Path 328" d="M191.33,253.54l1.45,1.13-.08-.07c.55,2.22-.89,6.19-2.93,7.32s-2.25-.89-3-2l.24-.2,1.89,2c3.71-3.73,3.91-4.52,2.15-8Z" transform="translate(7276.478 615.65)"/>
    <path id="Path_329" data-name="Path 329" d="M110.54,338.12c-1.57,3.2-3.41,6.11-7.14,7.21a20,20,0,0,0-2.91,1.41c.6-.55,1.11-1.43,1.8-1.6,3.48-.86,5.43-3.41,7.26-6.16a4.781,4.781,0,0,1,.99-.86Z" transform="translate(7276.478 615.65)"/>
    <path id="Path_330" data-name="Path 330" d="M236.36,557.07,228,548.94a4.528,4.528,0,0,1,1.15.61C231.55,552,234,554.56,236.36,557.07Z" transform="translate(7276.478 615.65)"/>
    <path id="Path_366" data-name="Path 366" d="M94.43,376.35c-.05-.22-.1-.45-.16-.68l-.48-1.12,6.31-11,.64.12a4.111,4.111,0,0,1-.12,1.84C98.61,369.18,96.5,372.75,94.43,376.35Z" transform="translate(7276.478 615.65)"/>
    <path id="arm-one-right" d="M248.35,299.59c-3.31-6.22-7.09-12.23-9.79-18.69a92.35,92.35,0,0,1-6.78-26.29c-.08-.79-.19-1.57-.21-2.37,0-2.43.91-3.17,3.21-2.51,1.29.37,2.56.79,3.84,1.18a23,23,0,0,1,15.74,26,9.87,9.87,0,0,1-1.46,4.2c-3.2,4.2-3.43,9-3.59,14v4.15Z" transform="translate(7276.478 615.65)" fill="#fff"/>
    <path id="barque-right" d="M244.42,232.27c3,6.52,2.93,13.43,2.78,19.89-5.8-2-11.66-4-17.47-6.09a5.32,5.32,0,0,1-2.78-2c-2.82-5.11-5.69-10.22-8.06-15.55-1.91-4.3,1.52-8.16,6.33-7.64a24.35,24.35,0,0,1,17.68,9.87,13.271,13.271,0,0,0,1.6,1.58Z" transform="translate(7276.478 615.65)" fill="#fff"/>
    <path id="arm-two-right-2" data-name="arm-two-right" d="M258.93,349.23c-4.36-9.77-8.94-19.45-13-29.34-2.45-6-4.07-12.27-6.11-18.4-.57-1.72-1.28-3.39-1.94-5.08-1.06-2.62-1.64-5.25-.16-8.15a5.59,5.59,0,0,1,1.17.76c4.76,5.32,9,10.89,11.5,17.78,4.57,12.77,8.52,25.65,9.22,39.3.05,1,0,1.95,0,2.94Z" transform="translate(7276.478 615.65)" fill="#fff"/>
    <path id="arm-three-right" d="M229.35,254.89,237.12,285C230.59,276,227.16,266.27,229.35,254.89Z" transform="translate(7276.478 615.65)" fill="#fff"/>
    <path id="abs-right-down" d="M189.67,352.29c0-3.27-.1-6.35,0-9.41.3-8.22.69-16.42,1.06-24.63a3.47,3.47,0,0,1,2.84-3.58c3.13-.81,6.22-1.81,9.37-2.5,2.23-.48,3.27.42,3.14,2.63-.68,11-2.61,21.65-8.2,31.35a11.56,11.56,0,0,1-8.21,6.14Z" transform="translate(7276.478 615.65)" fill="#fff"/>
    <path id="chest-right-mid" d="M206.53,310.73a12.89,12.89,0,0,0,4.58-9.26,43.26,43.26,0,0,0,.09-7.55c-.16-2.42-.66-4.82-1-7.46l1.83,1c1.67,1.87,3.36,3.72,5,5.61a6.54,6.54,0,0,1,.92,7.85c-2.15,4.33-4.73,8.19-9.57,9.83a5.061,5.061,0,0,1-1.85-.02Z" transform="translate(7276.478 615.65)" fill="#fff"/>
    <path id="chest-left-up" d="M154.22,251.85a1.159,1.159,0,0,0-.05-.44c-2.79-3.32-2.78-3.82-.78-7.78q3.86-7.57,7.52-15.26c2-4.09,5.31-5.63,9.65-4.18q4.94,1.63,9.82,3.43a8.35,8.35,0,0,1,5.92,7.31,71.461,71.461,0,0,1,.36,12.06c-.69,9-8.58,14.17-18.22,12.15a30.85,30.85,0,0,1-12.17-6.09,21.84,21.84,0,0,0-2.13-1.28Z" transform="translate(7276.478 615.65)" fill="#fff"/>
    <path id="arm-one-left" d="M146,250c-.26,3.59,0,7.33-.89,10.76a229.55,229.55,0,0,1-7.65,24.56c-2,5-5.44,9.49-8.25,14.2l-.67-.13v-5.54a22.37,22.37,0,0,0-3.33-12.36c-2.9-4.47-2.52-9.64-1-14.45,1.15-3.62,3.27-6.94,5-10.39,3.88-4.23,9.23-5.43,14.39-7C144.26,249.41,145.17,249.84,146,250Z" transform="translate(7276.478 615.65)" fill="#fff"/>
    <path id="barque-left" d="M135.57,229.47a3.3,3.3,0,0,0,1-.53c4-4.65,9.22-6.87,15.16-8,3.44-.64,5.59,1.08,7.67,3.12a2.83,2.83,0,0,1,.26,2.59,197.346,197.346,0,0,1-9,17.64c-1,1.72-4.11,2.33-6.35,3.17-4.46,1.67-9,3.13-13.69,4.74.5-7.11-.89-15,4.52-21.6a4.67,4.67,0,0,0,.54-1.21Z" transform="translate(7276.478 615.65)" fill="#fff"/>
    <path id="chest-left-down" d="M164.72,285.9a20.18,20.18,0,0,0-8,10.72c-2.9-3.68-4.16-34-1.67-40.59,4,1.48,7.93,3,11.88,4.44,4.81,1.82,4.82,1.83,3.8,6.94A46.2,46.2,0,0,1,164.64,286Z" transform="translate(7276.478 615.65)" fill="#fff"/>
    <path id="shoulder" d="M183.34,225.34c-5-1.28-9.54-2.5-14.13-3.6-1.2-.29-2.78-.76-3.67-.25-3.4,2-5.82.33-8.41-1.9l15.58-7.14Z" transform="translate(7276.478 615.65)" fill="#fff"/>
    <path id="arm-two-left" d="M118,349.05c.39-4,.64-8.07,1.22-12.07a149.22,149.22,0,0,1,9.71-33.59c2.36-5.94,6.7-10.43,11-15.43a8.08,8.08,0,0,1,.57,7c-5.44,17.07-11.09,34.06-19.84,49.82a47.921,47.921,0,0,0-2,4.38Z" transform="translate(7276.478 615.65)" fill="#fff"/>
    <path id="arm-two-left-2" data-name="arm-two-left" d="M109.91,336.63l-3.12,3.48c1.86-5.86,4.08-11.91,5.66-18.13a121.733,121.733,0,0,0,2-13.56,48.66,48.66,0,0,1,9-22.36,1.31,1.31,0,0,1,1.85.15,1.38,1.38,0,0,1,.31.77,31.06,31.06,0,0,1,1.12,7.16c-.39,13.19-5.35,24.87-12.32,35.83C113,332.23,111.41,334.41,109.91,336.63Z" transform="translate(7276.478 615.65)" fill="#fff"/>
    <path id="arm-three-left" d="M148.53,255c2.12,11.19-1.12,20.95-7.71,29.9Z" transform="translate(7276.478 615.65)" fill="#fff"/>
    <path id="leg-four-left" d="M160.34,532.85c0-.15.07-.35,0-.45-6.45-8.62-9-18.66-10.75-29a94.86,94.86,0,0,1-.19-35.4,50.15,50.15,0,0,1,10.08-22c-.33,2.11-.63,4.23-1,6.33-1.54,8.81-.9,17.65-.45,26.5.53,10.42.9,20.85,1.33,31.28a74.061,74.061,0,0,0,4.36,23.43,4.1,4.1,0,0,0,1.32,2,6.269,6.269,0,0,0-.16-1.43c-5.48-16-4-32.11-.56-48.21,1.42-6.72,3-13.41,4.53-20.1.17-.73.42-1.44.57-2,.94,5.38,1.86,10.81,2.83,16.22,1.39,7.8-.17,15.22-2.59,22.59a115.275,115.275,0,0,0-4.56,15.89c-.65,3.69,0,7.68.45,11.48.42,3.5,1.34,6.94,1.62,10.58l-6.92-7.74Z" transform="translate(7276.478 615.65)" fill="#fff"/>
    <path id="leg-four-right" d="M208.84,463.1c1.09,4.81,2,9.09,3,13.36,2.5,10.7,4.79,21.41,5,32.5a69.359,69.359,0,0,1-3,23.39c-.34,1-.58,2.09-.87,3.13l.56.22c.3-.65.64-1.27.9-1.93,3.15-8.07,4.18-16.52,4.54-25.09.55-12.64,1.05-25.29,1.65-37.93a99.35,99.35,0,0,0-1.71-23.6c-.08-.42-.07-.86-.16-1.88a52.06,52.06,0,0,1,8.42,16.39c4,13,4.09,26.29,1.79,39.66-1.49,8.67-2.81,17.41-7.39,25.08-3,5-6.63,9.55-10,14.3l-.78-.35a59.727,59.727,0,0,1,1.39-8.18c2.32-7.53,1.48-14.83-1-22.12-1.68-5-3.39-10-4.78-15.13-1.81-6.65-1-13.31.44-20C207.72,471.27,208.15,467.5,208.84,463.1Z" transform="translate(7276.478 615.65)" fill="#fff"/>
    <path id="leg-one-left" d="M157.33,333.12c.77,3.1,1.53,6.2,2.3,9.3,3,12,5.75,24.14,9,36.11,2.66,9.83,2.55,19.7,1.49,29.66-.47,4.31-1.19,8.6-1.9,12.89-1.67,10-7.56,17.88-13.3,26.06-.19-.38-.35-.56-.35-.75-.63-15.41-1.88-30.83-1.69-46.23.19-14.52,2-29,2.89-43.52.47-7.41.6-14.84.88-22.27,0-.38.05-.75.07-1.13Z" transform="translate(7276.478 615.65)" fill="#fff"/>
    <path id="leg-one-right" d="M221.09,444.52a5.319,5.319,0,0,0-.56-1.45c-7.4-9.45-10.95-20.29-12.09-32.14-1.08-11.15-1.67-22.18,1.41-33.17,2.63-9.43,4.8-19,7.16-28.48,1.1-4.45,2.13-8.91,3.22-13.36a5.88,5.88,0,0,1,1.29-2.68,4.479,4.479,0,0,1,.1.81c-.66,14.77,1.69,29.34,3,44a273.747,273.747,0,0,1,.12,40.5c-.5,9.08-.61,18.17-.9,27.26a13.366,13.366,0,0,1-.08,1.56L221,444.45Z" transform="translate(7276.478 615.65)" fill="#fff"/>
    <path id="leg-two-right" d="M226.34,423.44c.35-6.61.56-13.24,1.09-19.84.86-10.55-.2-21-1.33-31.46-1.55-14.38-3.21-28.75-2.08-43.26a2.08,2.08,0,0,1,.51-1.41c.37,1.56.72,3.12,1.11,4.67,2.21,9,4.78,17.86,6.54,26.91a102.1,102.1,0,0,1,2.39,21.63c-.2,8.23-1.76,16.45-3.18,24.6-1,5.51-2.7,10.88-4.1,16.31-.17.65-.42,1.28-.62,1.93Z" transform="translate(7276.478 615.65)" fill="#fff"/>
    <path id="leg-two-left" d="M151.06,423.17q-3.18-14.75-6.37-29.5c-2.13-9.87-.42-19.64.64-29.46,1.1-10.11,3.93-19.8,6.64-29.53.66-2.4,1.23-4.82,2-7.2a148.092,148.092,0,0,1-.37,31.43c-2.49,19.56-4.06,39.14-1.89,58.85a49.131,49.131,0,0,1,0,5.29Z" transform="translate(7276.478 615.65)" fill="#fff"/>
    <path id="crotch-left" d="M174.54,349.44a38.675,38.675,0,0,0,5.12,3.51c3.4,1.62,4.72,3.94,4.58,7.83a205.84,205.84,0,0,1-6.31,41.72l-18.36-67.94.73-.34c3,5.76,7.52,10.1,12.41,14.12a16.358,16.358,0,0,0,1.91,1.18Z" transform="translate(7276.478 615.65)" fill="#fff"/>
    <path id="head" d="M173,187.18c-2.55.53-3.6-.89-4.27-2.86a17.728,17.728,0,0,0-.8-1.71c-2-4.33-2-4.29,1.93-7a3.37,3.37,0,0,0,1-2.13c.38-2.81.36-5.7,1-8.44a17.59,17.59,0,0,1,17.28-13.8A17.79,17.79,0,0,1,206.39,166a35.451,35.451,0,0,1,.44,6.59A3.56,3.56,0,0,0,208.7,176c3.07,1.92,3.11,2.32,1.7,5.79a24.87,24.87,0,0,1-1.76,3.86,2.92,2.92,0,0,1-1.93,1.42c-1.86,0-2,1.13-2.1,2.44a37.555,37.555,0,0,0-.35,4.49,5.65,5.65,0,0,1-4.07,5.95c-1.76.69-3.44,1.57-5.2,2.27-5.45,2.15-10.52,1.23-15.71-1.35-3.92-2-6.1-4.37-5.74-8.88a26.72,26.72,0,0,0-.54-4.81Z" transform="translate(7276.478 615.65)" fill="#fff"/>
    <path id="neck" d="M187.17,224a26.21,26.21,0,0,1-11.57-13.05c-1-2.58,0-5.93,0-9,5,1.09,7.88,3.56,9,7.89q1.42,5.7,2.68,11.45a12.59,12.59,0,0,1-.11,2.71Z" transform="translate(7276.478 615.65)" fill="#fff"/>
    <path id="neck-2" data-name="neck" d="M201.84,202.05c.8,3.09,2.18,6.45.46,9.15a109.522,109.522,0,0,1-9.37,11.47c-.42.48-1.19.65-2.62,1.39.57-3.84.94-7.07,1.55-10.24a47.237,47.237,0,0,1,1.58-4.46C194.67,205.38,197.35,203,201.84,202.05Z" transform="translate(7276.478 615.65)" fill="#fff"/>
    <path id="neck-3" data-name="neck" d="M189,220.12l-4-14.38h7.88Z" transform="translate(7276.478 615.65)" fill="#fff"/>
    <path id="leg-three-left" d="M171.37,453.51c-.17-3.51-.25-7-.57-10.51a49.271,49.271,0,0,0-1.28-7.93,13.54,13.54,0,0,1-.16-7.2,138.45,138.45,0,0,0,4.33-28.77.69.69,0,0,1,.41-.57C178.73,417.11,178.5,435.46,171.37,453.51Z" transform="translate(7276.478 615.65)" fill="#fff"/>
    <path id="leg-three-right" d="M203.84,399c1.83,10.23,3.72,20.77,5.57,31.32a5.359,5.359,0,0,1-.08,2.29,69.61,69.61,0,0,0-2.21,20.17,1.64,1.64,0,0,1-.24,1.05C199.8,435.66,199.57,417.2,203.84,399Z" transform="translate(7276.478 615.65)" fill="#fff"/>
    <path id="leg-three-left-2" data-name="leg-three-left" d="M166.91,434.28c1.93,9.06,3.25,17.72,1.1,26.59s-4.14,17.81-6.2,26.72c-.17.76-.36,1.51-.59,2.48C157.19,475.17,160.51,441.31,166.91,434.28Z" transform="translate(7276.478 615.65)" fill="#fff"/>
    <path id="leg-three-right-2" data-name="leg-three-right" d="M211.87,434.43c9,17.88,7,36.65,5.15,55.44-.48-2.15-1-4.29-1.46-6.44s-.94-4.49-1.46-6.72c-1.1-4.84-2.1-9.71-3.48-14.51-2.56-9.16-1.35-18.18.68-27.19C211.33,434.88,211.51,434.79,211.87,434.43Z" transform="translate(7276.478 615.65)" fill="#fff"/>
    <path id="chest-right-down" d="M217.78,290.71a9.149,9.149,0,0,0-1.38-2A21.87,21.87,0,0,1,208.62,274c-.38-3.35-1.37-6.64-1.9-10-.12-.73.34-2.09.87-2.3,5-2,10.18-3.74,15.55-5.67,2.34,13.74,1.07,27.15-1.19,40.76l-4.25-6.17Z" transform="translate(7276.478 615.65)" fill="#fff"/>
    <path id="abs" d="M187.82,304.08c0,2.05.05,4.1,0,6.16-.07,2.45-.72,2.92-3.06,2.33a82.892,82.892,0,0,1-8.45-2.26,6.9,6.9,0,0,1-3.66-2.89,54.28,54.28,0,0,1-2.77-8.24,2.83,2.83,0,0,1,1.63-3.48c4.39-2.75,9.22-3.08,14.15-2.77a2.56,2.56,0,0,1,1.71,1.73c.41,3.12.58,6.27.83,9.4Z" transform="translate(7276.478 615.65)" fill="#fff"/>
    <path id="abs-2" data-name="abs" d="M169.94,293.73c-1.89-7.93,2.54-14.56,10.58-16.3,6.41-1.4,7.55-.54,7.56,5.9,0,2.12.51,4.91-.61,6.17s-3.89.69-5.95.76a19.75,19.75,0,0,0-11.58,3.47Z" transform="translate(7276.478 615.65)" fill="#fff"/>
    <path id="chest-right-up" d="M192.77,253.54c-3.39-6.43-2.19-13.22-1.32-19.9a7.25,7.25,0,0,1,5.09-5.77,119.009,119.009,0,0,1,12.07-4.09c1.58-.39,3.51.65,5.29,1,1.14,1.86,2.38,3.66,3.4,5.59,2.24,4.25,4.3,8.6,6.54,12.86,2.64,5,2.6,5.46-1.77,9a29.65,29.65,0,0,1-12.85,6.76C202.72,260.35,197,259.2,192.77,253.54Z" transform="translate(7276.478 615.65)" fill="#fff"/>
    <path id="abs-3" data-name="abs" d="M190.27,312.6c-.08-5-.26-10-.23-14.94,0-4.57.69-5.12,5.33-5a22.52,22.52,0,0,1,11.28,3.19,2.61,2.61,0,0,1,1.5,3.11c-.27,1.16-.46,2.33-.73,3.48-1.11,4.71-3.21,8.34-8.75,8.73-2.84.21-5.65.9-8.48,1.36Z" transform="translate(7276.478 615.65)" fill="#fff"/>
    <path id="abs-4" data-name="abs" d="M208,293.76c-4.89-3.61-10.48-3.65-16.1-3.49-1.29,0-1.86-.45-1.84-1.78v-8.75c0-1.82.79-2.76,2.69-2.77a18.27,18.27,0,0,1,13.3,5.14,2.89,2.89,0,0,1,.92,1.34c.58,3.28,1.07,6.58,1.59,9.87Z" transform="translate(7276.478 615.65)" fill="#fff"/>
    <path id="shoulder-2" data-name="shoulder" d="M220.35,219.59a42.014,42.014,0,0,1-3.75,2.68,2.25,2.25,0,0,1-1.83.06,10,10,0,0,0-7.58-.42c-4.21,1.22-8.49,2.24-13.1,3.43l10.62-12.89Z" transform="translate(7276.478 615.65)" fill="#fff"/>
    <path id="abs-5" data-name="abs" d="M203.58,263.58q1.69,7,3.4,14a2.911,2.911,0,0,1,0,.78c-3.59-1.16-7.11-2.38-10.68-3.43-1.42-.42-3-.33-4.41-.8a3,3,0,0,1-1.8-1.86c-.43-4.07-.14-8,2.77-11.33,1-1.2,1.78-1.52,3.15-.84,2.52,1.25,5.09,2.4,7.63,3.59Z" transform="translate(7276.478 615.65)" fill="#fff"/>
    <path id="abs-6" data-name="abs" d="M170.4,279c1.32-5,2.1-9.74,3.82-14.06,1.49-3.7,5.71-4.09,9.08-5.29a1,1,0,0,1,.85.26c1.29,2.37,3.36,4.69,3.61,7.17.66,6.63.33,6.63-6.14,7.85a35.431,35.431,0,0,0-5.45,1.49A57.509,57.509,0,0,0,170.4,279Z" transform="translate(7276.478 615.65)" fill="#fff"/>
    <path id="Path_405" data-name="Path 405" d="M189,232.66l-3-5.48h5.91Z" transform="translate(7276.478 615.65)" fill="#fff"/>
    <path id="Path_406" data-name="Path 406" d="M191.09,253.75c1.77,3.45,1.57,4.23-2.15,8l-1.89-2c-1.9-3.75-1.64-5,2-8.35Z" transform="translate(7276.478 615.65)" fill="#fff"/>
  </g>
</svg>
