<svg xmlns="http://www.w3.org/2000/svg" width="229.815" height="428.114" viewBox="0 0 229.815 428.114">
  <g id="body-back" transform="translate(-7788.126 -782)">
    <path id="Path_212" data-name="Path 212" d="M384.36,542.33c0-6.14.8-12.16-.18-17.87a181.587,181.587,0,0,0-6.48-25.25c-4.18-12.8-4.6-25.4.34-38,1.18-3,3.1-5.9,3.56-9s-.55-6.3-.89-9.47a8.93,8.93,0,0,1,0-2.13c1.43-9.73-.4-19.19-2.13-28.7a236.15,236.15,0,0,1-4-53.14c.22-5,.86-9.92,1.51-14.86a6.27,6.27,0,0,1,1.72-3.76,3.71,3.71,0,0,0,1.32-3.95c-1.28-7.39,1.21-14.2,3.22-21.08a11.928,11.928,0,0,0,.19-3.1,16.253,16.253,0,0,1,0-2.79c.57-2.94,1.26-5.87,1.92-8.8.13-.53.19-1.25.55-1.53,2.38-1.82,1-3.73.45-5.81-1.28-4.88-2.28-9.83-3.37-14.77-.18-.83-.25-1.69-.44-3.07-1.52,2.74-2.74,5.06-4.08,7.32s-2.71,4.27-4,6.42a2.6,2.6,0,0,0-.5,1.47c.55,4.42-1.37,8.11-3.13,12-2.87,6.24-5.11,12.78-8.08,19-4.23,8.84-8.68,17.6-13.5,26.13-1.43,2.54-2.75,4.74-2.39,7.7.54,4.36-.89,8.34-2.83,12.07a149.946,149.946,0,0,1-7.59,13.12c-.87,1.35-2.81,2-4.26,3a8.661,8.661,0,0,0-1.81,1.32,6.32,6.32,0,0,1-6.57,2.25,5.6,5.6,0,0,0-2-.05,4.94,4.94,0,0,1-6.08-3.43,4.616,4.616,0,0,1-.15-.81c-.28-1.26-1.09-2.42-1.29-3.68a15.72,15.72,0,0,1-.12-5,17.25,17.25,0,0,1,1.79-4.11c.59-1.25,1.23-2.47,1.95-3.93-1.44.15-2.52.33-3.6.35a6.53,6.53,0,0,1-5.93-3.3c-1.48-2.31-1-5,1.56-6,4.24-1.68,7.07-4.78,10-8.07,2-2.31,4.92-3.87,7.38-5.82a5.24,5.24,0,0,0,1.76-2c2.62-7.29,5.06-14.64,7.71-21.92.83-2.28,2.15-4.37,3.16-6.58a8.21,8.21,0,0,0,.93-3.09,44.411,44.411,0,0,1,8.91-26.54c1.87-2.46,2.27-5.12,3.11-7.86,1.49-4.87,1.2-9.9,2.21-14.74.87-4.12,2.78-8,4.21-12a16.489,16.489,0,0,0,1.33-4.17c1-14.35,8-23.62,24.61-28.43,6.66-1.93,13.14-3.91,18.92-7.84,3.4-2.31,3.87-6,1.59-9.4-1.15-1.7-1.38-4.09-1.79-6.22a10.48,10.48,0,0,0-2.16-4.55,33.48,33.48,0,0,1-5-10.76c-.38-1.39,1.34-3.79,2.7-5.1a4.22,4.22,0,0,0,1.6-3.31,25.17,25.17,0,0,1,4.25-14.1,21.31,21.31,0,0,1,22.28-8.71,21.61,21.61,0,0,1,16.6,17.82,14.909,14.909,0,0,1,.4,3.05,6.44,6.44,0,0,0,2.72,6.19c2.45,1.79,2.53,4.16,1.22,7-.89,1.94-1.77,3.89-2.76,5.78-.42.82-.95,1.88-1.69,2.18-1.87.76-2,2.23-2.15,3.81-.32,3.14-.42,6.24-3.34,8.51-1.53,1.19.05,5.78,2.17,7.2a55.28,55.28,0,0,0,18.93,8.41,36.24,36.24,0,0,1,15.06,7.74c6.26,5.14,8.58,12.08,9.42,19.8a18.52,18.52,0,0,0,1.58,5.3c2.06,4.64,4.77,9.3,4.4,14.38-.4,5.71,2.48,10.67,2.48,16.17a3.17,3.17,0,0,0,.83,1.6c5.06,6.71,9.14,13.86,9.93,22.45.09.87.07,1.74.11,2.61a24,24,0,0,0,2.32,9.07c2.27,4.84,3.93,10,5.81,15,1.39,3.7,2.7,7.43,4.12,11.12a3.63,3.63,0,0,0,1.47,1.95c4.17,1.77,7,5.06,9.91,8.29a26.351,26.351,0,0,0,6.23,4.89c3.08,1.76,4.29,3,3.86,5.22a6.72,6.72,0,0,1-6,4.94,40.234,40.234,0,0,1-4.25-.26c1.08,2.12,2.1,4.06,3,6,1.35,2.76,1.92,5.49-.18,8.24a6.46,6.46,0,0,0-.57,2.48A4.84,4.84,0,0,1,523,387a5.542,5.542,0,0,1-.71-.13,4.521,4.521,0,0,0-1.83-.1,6.23,6.23,0,0,1-7.14-2.38,2.5,2.5,0,0,0-1.45-1,5.89,5.89,0,0,1-4.82-3.41c-2.43-4.17-4.84-8.35-7.17-12.57-2.61-4.72-3.16-9.85-3-15.16a7.14,7.14,0,0,0-1.23-3c-.39-.76-1-1.39-1.43-2.16-7-13.55-14.66-26.79-19.48-41.37A56.658,56.658,0,0,0,472,300.2c-.74-1.65-2-3.44-1.83-5.06.44-4.58-2-7.87-4.14-11.38-1.36-2.19-2.55-4.49-4.11-7.27-.39,2.22-.56,3.85-1,5.42-1.17,4.51-2.48,9-3.61,13.49a4.63,4.63,0,0,0,.35,2.41c.33.95,1,1.79,1.25,2.76.7,2.75,1.27,5.55,1.89,8.32.08.39.31.84.19,1.16-1.48,4,1,7.3,1.77,10.88,1.13,5.25,2.44,10.43,1.48,15.91-.16.91.71,2,1.13,3a24.471,24.471,0,0,1,2,4.93,143,143,0,0,1,.95,38.1c-1.42,14.07-3.94,28-5.76,42.05a62.346,62.346,0,0,0-.12,11.1c.25,4.84.42,9.63-1.07,14.34a4,4,0,0,0,.37,2.22c2.11,6.12,4.78,12.11,6.22,18.38a49.672,49.672,0,0,1,.54,14.09c-.75,12-6.13,22.83-8.46,34.46-1.24,6.12-2.23,12.1-.86,18.29a35.882,35.882,0,0,1,.46,4.51,47.879,47.879,0,0,1,6.45.06,18.37,18.37,0,0,1,6.28,1.77c3.93,2.17,6.35,5.59,5.9,10.28s-3.34,7.36-7.48,9a22,22,0,0,1-3.17,1,10.45,10.45,0,0,0-6.54,4.31,10,10,0,0,1-4.25,3.2,20.68,20.68,0,0,1-13.27.74,4,4,0,0,1-3.25-3.06c-.67-3.46-1.45-6.92-1.81-10.42-.41-3.91-.14-7.89-.64-11.79a42.56,42.56,0,0,1,1.8-17.79,21.91,21.91,0,0,0,.6-11c-.75-3.56-1.38-7.14-2.11-10.71a49.74,49.74,0,0,0-3.66-11.9c-3.5-7.24-2.48-14.81-.4-22.26.72-2.59,1.56-5.15,2.4-7.7a4.56,4.56,0,0,0-.75-3.93,57.079,57.079,0,0,1-5.11-10.84c-4.71-15.55-8.35-31.32-8.17-47.75a158.572,158.572,0,0,0-1-18.23c-.17,4.47-.38,8.95-.49,13.43-.27,11.47-.38,23-3.41,34.15-2.16,8-4.41,16-6.82,23.93a15.3,15.3,0,0,1-2.92,5.07,4.47,4.47,0,0,0-.86,4.57,137.288,137.288,0,0,1,3.67,14A28.23,28.23,0,0,1,407.6,499c-1.61,3-1.93,6.79-2.7,10.25a89.746,89.746,0,0,0-1.88,10,22.139,22.139,0,0,0,.21,8.43A51,51,0,0,1,405,551.54a30.59,30.59,0,0,0-.08,6.83,21.51,21.51,0,0,1-2,11.31,6.34,6.34,0,0,1-3.08,2.86A17.38,17.38,0,0,1,381,567.33a9.81,9.81,0,0,0-3.46-2.32c-1.43-.65-3-.89-4.52-1.41-5.55-2-8.71-6.5-8-11.45a12.37,12.37,0,0,1,11.13-9.76C378.64,542.22,381.1,542.33,384.36,542.33ZM387.85,297c-.87.93-2,1.58-2.17,2.4-.79,4.48-3.54,8.72-1.79,13.55.15.41-.17,1-.34,1.54-2.58,7.33-4.88,14.7-3.53,22.65a2.92,2.92,0,0,1-1.2,3.22,5.9,5.9,0,0,0-1.88,3.64c-.66,4.69-1.25,9.41-1.5,14.14-1.09,21,1.53,41.7,5.48,62.26a53.731,53.731,0,0,1,.86,15.55,32.72,32.72,0,0,0,1.07,14.32,3.71,3.71,0,0,1-.3,2.23c-1.81,5-3.76,9.89-5.5,14.88-3.11,8.95-2.1,18,.09,26.87,2,8.06,4.4,16,6.64,24,1.8,6.39,2.79,12.8,1.24,19.43a36.313,36.313,0,0,0-.42,5.51c-2.84,0-5.76-.15-8.66,0a11.35,11.35,0,0,0-10.05,9.28c-.5,4.5,2.4,8.51,7.47,10.25a44.6,44.6,0,0,1,4.52,1.41,11.4,11.4,0,0,1,3.82,2.61,16.59,16.59,0,0,0,17.95,4.89,5,5,0,0,0,2.44-2.27,21.79,21.79,0,0,0,2-10.85,48.86,48.86,0,0,1,.3-8.72,50.85,50.85,0,0,0-1.8-21.55,25,25,0,0,1-.37-9.12,120.454,120.454,0,0,1,2.33-12.35c.59-2.77.85-5.81,2.21-8.18a26.68,26.68,0,0,0,3.06-18.57c-.85-4.72-2.4-9.32-3.72-13.95a4.8,4.8,0,0,1,.89-4.59,21.52,21.52,0,0,0,3.59-6.58c2.57-8.88,5.46-17.73,7.08-26.8,3.48-19.48,3.39-39.19,2.2-58.89-.21-3.52-.72-7-1-10.52a2,2,0,0,1,.48-1.21c.76-1,1.58-2,2.39-2.94,1.58,1.9,2.74,3.32,2.4,6.41A267.549,267.549,0,0,0,423,388c-.05,7.67.42,15.34.68,23,.53,15.27,4.57,29.81,9.29,44.19a22.68,22.68,0,0,0,3.53,6.34,4.6,4.6,0,0,1,.86,4.58c-1.12,3.62-2.37,7.23-3.18,10.93-1.4,6.26-1.9,12.67,1.16,18.57A45.641,45.641,0,0,1,439,507.54c.77,3.63,1.39,7.3,2.13,10.94a24.651,24.651,0,0,1-.56,11.23,59,59,0,0,0-2,13.06c-.13,6.45.51,12.92.83,19.38a11,11,0,0,0,.2,1.89c1.8,7.33,2,8.51,10.5,8.35,4.75-.09,9-1.38,11.83-5.76.92-1.4,3.07-2.06,4.75-2.82s3.82-1.12,5.55-2c6.2-3.23,7.16-10.41,2.13-15.26a11.47,11.47,0,0,0-8.34-3.4h-7.21a36.423,36.423,0,0,0-.4-5.32c-1.42-6.37-.31-12.48,1-18.76,2.28-11.47,7.39-22.21,8.47-34,.5-5.41.76-10.76-1-16-1.85-5.54-4-11-5.94-16.48a3.88,3.88,0,0,1-.38-2.22c1.7-4.93,1.42-10,1.1-15a46.67,46.67,0,0,1-.07-9.23c1.28-9,3.06-17.93,4.35-26.93,2.58-18.09,3.33-36.22.76-54.4a6.65,6.65,0,0,0-2.64-5.07,2.65,2.65,0,0,1-.63-2c.09-2.51.85-5.13.39-7.51-1-5.34-2.61-10.57-4-15.84-.12-.45-.47-1-.3-1.31,1.65-2.69.26-5.28-.32-7.81-.66-2.9-.41-6.26-2.87-7.64,1.89-8,3.7-15.7,5.47-23.23.06.09.3.46.53.84,2.79,4.58,5.59,9.15,8.32,13.76a3.16,3.16,0,0,1,.18,1.77,16.19,16.19,0,0,0,1.66,8.49,114.718,114.718,0,0,1,4.79,10.82c4.83,13,11.81,25,18.14,37.31a2.76,2.76,0,0,0,1,1.28c1.56.73,1.53,2,1.44,3.39a27.77,27.77,0,0,0,3.4,16.22c1.36,2.41,2.59,4.91,4.1,7.21,1.95,3,2.78,7.22,7.63,7.1,2,3.84,5.45,3.43,9.07,3.49,3.2.05,5.22-.9,5.58-4.18.07-.61-.14-1.46.19-1.81,2.82-2.94,1.46-5.83,0-8.72-1.08-2.17-2.22-4.3-3.48-6.72,2,.3,3.6.67,5.24.75a5.85,5.85,0,0,0,5.78-4.06c.61-2.84-1.67-3.45-3.48-4.61a49.651,49.651,0,0,1-6.43-5c-2.17-1.95-3.79-4.88-6.27-6-4.28-1.94-5.76-5.32-7-9.26-1-3.16-2.2-6.26-3.38-9.37a124.9,124.9,0,0,0-4.67-11.87,18,18,0,0,1-2.32-8.34c.19-9.29-3.76-17.07-8.94-24.27a12.11,12.11,0,0,1-2.36-6.11c-.49-4.51-2.09-8.76-2.26-13.47s-2.37-9.44-4.32-13.88a20,20,0,0,1-1.63-6.27c-.77-8.17-3.62-15.38-10.72-20a49.61,49.61,0,0,0-13.15-6.29,67.18,67.18,0,0,1-19.12-8.6c-2.45-1.63-4.2-7.15-2.43-8.45,2.52-1.84,2.94-4.32,3.18-7,.2-2.21,0-4.61,2.84-5.58.53-.18.88-1.07,1.19-1.7,1-2,1.85-4,2.87-6,1.12-2.14.87-4.51-1-5.55-3.35-1.9-3.17-4.78-3.26-7.79a18.677,18.677,0,0,0-.39-2.58A20.77,20.77,0,0,0,423,146.05a20.32,20.32,0,0,0-20.73,14.85,47.428,47.428,0,0,0-1.29,8.88,2.37,2.37,0,0,1-1.43,2.32,5.4,5.4,0,0,0-2.45,7.24h0a58.689,58.689,0,0,0,2.72,5.79,21.053,21.053,0,0,0,2.31,2.59,5.71,5.71,0,0,1,1.36,2.13c.71,3.38-.14,7.3,3.52,9.61.11.06.14.27.19.41.77,2.62-1,7-3.32,8.53a61.31,61.31,0,0,1-18.66,7.87c-12.76,3.4-22.38,10.35-24.3,24.65-.22,1.65-.34,3.31-.57,4.95a4.54,4.54,0,0,1-.49,1.77c-3,4.86-5.51,10.12-5.24,15.76.19,4.12-1.41,7.58-1.87,11.38a17,17,0,0,1-3.42,8.93c-5.83,7.57-8.34,16.39-8.59,25.91a9.67,9.67,0,0,1-1.14,3.5c-.94,2.07-2.18,4-2.95,6.16-2.71,7.5-5.25,15.07-7.94,22.59a4.57,4.57,0,0,1-1.63,1.75c-2.48,1.91-5.39,3.43-7.43,5.72-3,3.34-5.85,6.55-10.16,8.25-2.29.9-2.61,3.09-1.16,5.13a6.11,6.11,0,0,0,6.45,2.53l3.76-.67a100.7,100.7,0,0,0-4.48,9.52c-.5,1.42.1,3.28.35,4.92.14.94.77,1.81.89,2.74.44,3.39,2.35,4.78,5.77,4.09a3.21,3.21,0,0,1,1.57,0,5.34,5.34,0,0,0,6.44-2.17,6.55,6.55,0,0,1,1.78-1.22c1.34-.85,3.16-1.37,3.94-2.57,2.76-4.32,5.32-8.79,7.68-13.35a20.34,20.34,0,0,0,2.65-11.39c-.28-3,.85-5.34,2.35-8.08,6-10.93,11.36-22.24,16.8-33.48,2.26-4.69,4-9.62,6.21-14.34a17.07,17.07,0,0,0,1.68-8.72,3.39,3.39,0,0,1,.45-1.9c1.39-2.29,3-4.46,4.32-6.78,1.84-3.26,3.49-6.63,5.44-10.37.47,9.07,1.86,17.52,5.49,25.45Zm33.42,59a11.64,11.64,0,0,0-1.25,3.16,32.689,32.689,0,0,0,.39,4.42q.55,8.94,1.07,17.86a6.38,6.38,0,0,0,.57-2.58c.32-5.9.52-11.81,1-17.7.14-1.91.88-3.72-1.78-5.16Z" transform="translate(7481.478 636.65)"/>
    <path id="Path_214" data-name="Path 214" d="M387.85,297c-3.62-7.93-5-16.37-5.49-25.47-1.95,3.74-3.61,7.11-5.45,10.37-1.32,2.33-2.92,4.5-4.32,6.78a3.42,3.42,0,0,0-.44,1.9,17.18,17.18,0,0,1-1.69,8.72c-2.21,4.72-3.95,9.65-6.21,14.34-5.43,11.25-10.78,22.55-16.8,33.49-1.5,2.74-2.63,5.1-2.35,8.07a20.37,20.37,0,0,1-2.65,11.4q-3.54,6.825-7.68,13.34c-.77,1.2-2.6,1.72-3.94,2.57a6.729,6.729,0,0,0-1.77,1.22,5.36,5.36,0,0,1-6.45,2.17,3.17,3.17,0,0,0-1.56,0c-3.42.7-5.34-.7-5.77-4.09-.12-.93-.75-1.81-.9-2.74-.25-1.63-.85-3.49-.34-4.92a96,96,0,0,1,4.48-9.52c-1.4.25-2.58.47-3.76.67a6.08,6.08,0,0,1-6.45-2.53c-1.46-2-1.14-4.23,1.15-5.13,4.31-1.7,7.18-4.9,10.16-8.24,2-2.3,4.95-3.81,7.43-5.73a4.54,4.54,0,0,0,1.63-1.74c2.69-7.52,5.23-15.09,7.94-22.6.77-2.13,2-4.08,2.95-6.16a9.61,9.61,0,0,0,1.14-3.5c.25-9.52,2.76-18.34,8.59-25.91a17.07,17.07,0,0,0,3.43-8.93c.45-3.79,2-7.26,1.86-11.38-.26-5.64,2.26-10.9,5.24-15.75a4.641,4.641,0,0,0,.49-1.78c.23-1.64.35-3.3.58-5,1.91-14.3,11.53-21.25,24.3-24.64a61.75,61.75,0,0,0,18.65-7.87c2.34-1.56,4.09-5.92,3.32-8.53a.556.556,0,0,0-.19-.42c-3.65-2.3-2.81-6.22-3.52-9.6a5.77,5.77,0,0,0-1.35-2.14,20.263,20.263,0,0,1-2.32-2.58,58.853,58.853,0,0,1-2.72-5.8,5.41,5.41,0,0,1,2.38-7.26h.05a2.38,2.38,0,0,0,1.44-2.32,46.72,46.72,0,0,1,1.28-8.88A20.33,20.33,0,0,1,423,146a20.78,20.78,0,0,1,19.39,17.22,16.064,16.064,0,0,1,.39,2.58c.09,3-.09,5.89,3.26,7.8,1.83,1,2.08,3.4,1,5.55-1,2-1.88,4-2.86,6-.32.63-.66,1.52-1.2,1.71-2.83,1-2.64,3.36-2.83,5.57-.25,2.73-.67,5.21-3.19,7.05-1.77,1.3,0,6.83,2.43,8.45a66.839,66.839,0,0,0,19.12,8.61,49.761,49.761,0,0,1,13.15,6.29c7.1,4.6,9.95,11.81,10.71,20a19.711,19.711,0,0,0,1.64,6.26c1.94,4.45,4.13,9.19,4.31,13.88s1.77,9,2.26,13.48a12.11,12.11,0,0,0,2.36,6.1c5.19,7.2,9.13,15,8.94,24.27a18,18,0,0,0,2.32,8.34A125.989,125.989,0,0,1,508.8,327c1.17,3.11,2.38,6.21,3.38,9.37,1.25,3.94,2.72,7.32,7,9.26,2.49,1.13,4.11,4.07,6.27,6a50.337,50.337,0,0,0,6.43,5c1.81,1.17,4.09,1.77,3.48,4.61a5.84,5.84,0,0,1-5.78,4.06,51.364,51.364,0,0,1-5.23-.75c1.25,2.42,2.38,4.56,3.48,6.72,1.45,2.89,2.81,5.78,0,8.73-.34.34-.13,1.19-.19,1.8-.37,3.29-2.38,4.24-5.59,4.18-3.62-.06-7,.35-9.07-3.49-4.84.12-5.68-4.13-7.63-7.1-1.51-2.3-2.74-4.8-4.1-7.21a27.77,27.77,0,0,1-3.4-16.22c.1-1.36.12-2.66-1.44-3.39a2.78,2.78,0,0,1-1-1.28c-6.33-12.3-13.31-24.28-18.14-37.31a116.991,116.991,0,0,0-4.79-10.82,16.17,16.17,0,0,1-1.65-8.49,3.31,3.31,0,0,0-.18-1.76c-2.74-4.62-5.54-9.19-8.32-13.77-.24-.38-.48-.75-.53-.84-1.78,7.53-3.59,15.19-5.48,23.23,2.46,1.38,2.21,4.75,2.87,7.64.58,2.54,2,5.12.32,7.81-.17.28.19.87.3,1.31,1.36,5.27,3,10.5,4,15.84.46,2.39-.3,5-.39,7.52a2.7,2.7,0,0,0,.63,2,6.61,6.61,0,0,1,2.64,5.06c2.57,18.18,1.83,36.31-.76,54.4-1.29,9-3.06,17.93-4.34,26.93a45.922,45.922,0,0,0,.06,9.23c.32,5.07.6,10.1-1.1,15a3.85,3.85,0,0,0,.38,2.24c2,5.5,4.08,10.95,5.93,16.48,1.74,5.2,1.48,10.55,1,16-1.08,11.77-6.19,22.51-8.48,34-1.25,6.28-2.37,12.39-.94,18.76a36.417,36.417,0,0,1,.39,5.32h7.21a11.47,11.47,0,0,1,8.35,3.41c5,4.84,4.06,12-2.14,15.25-1.73.9-3.76,1.21-5.55,2s-3.82,1.43-4.74,2.82c-2.9,4.38-7.09,5.67-11.83,5.76-8.53.16-8.71-1-10.5-8.35a9.265,9.265,0,0,1-.2-1.89c-.32-6.46-1-12.92-.84-19.38a59,59,0,0,1,2-13.06,24.51,24.51,0,0,0,.55-11.23c-.74-3.64-1.36-7.31-2.13-10.94a45.619,45.619,0,0,0-3.72-11.92c-3.07-5.91-2.57-12.3-1.17-18.57.82-3.69,2.06-7.3,3.18-10.92a4.58,4.58,0,0,0-.86-4.58,22.87,22.87,0,0,1-3.53-6.35c-4.71-14.38-8.76-28.92-9.28-44.19-.26-7.67-.74-15.34-.69-23a267.194,267.194,0,0,1,1.13-27c.33-3.1-.83-4.52-2.41-6.42-.81,1-1.63,1.94-2.38,2.94a2,2,0,0,0-.49,1.22c.32,3.5.82,7,1,10.51,1.18,19.7,1.28,39.41-2.2,58.89-1.63,9.07-4.51,17.92-7.08,26.8a22,22,0,0,1-3.59,6.58,4.75,4.75,0,0,0-.89,4.59,142.787,142.787,0,0,1,3.72,14,26.61,26.61,0,0,1-3.07,18.56c-1.36,2.36-1.61,5.41-2.21,8.18a121,121,0,0,0-2.33,12.35,24.771,24.771,0,0,0,.38,9.12,51,51,0,0,1,1.8,21.55,48,48,0,0,0-.31,8.72,21.68,21.68,0,0,1-2,10.85,5,5,0,0,1-2.44,2.27,16.6,16.6,0,0,1-17.95-4.89,11.4,11.4,0,0,0-3.82-2.61,44.624,44.624,0,0,0-4.52-1.41c-5.07-1.74-8-5.75-7.47-10.25a11.36,11.36,0,0,1,10.05-9.28c2.9-.19,5.83,0,8.67,0a35.057,35.057,0,0,1,.41-5.51c1.55-6.63.57-13-1.23-19.43-2.25-8-4.67-15.94-6.65-24-2.18-8.91-3.2-17.93-.08-26.87,1.74-5,3.69-9.91,5.49-14.88a3.64,3.64,0,0,0,.3-2.23A32.72,32.72,0,0,1,381.76,436a53.732,53.732,0,0,0-.86-15.55c-3.95-20.56-6.57-41.26-5.48-62.26.25-4.73.84-9.45,1.5-14.14a6,6,0,0,1,1.88-3.64,2.9,2.9,0,0,0,1.2-3.22c-1.34-7.95,1-15.32,3.53-22.65.17-.51.49-1.13.34-1.54-1.75-4.83,1-9.07,1.79-13.55C385.83,298.59,387,297.94,387.85,297Zm2.32,4.56.07.08-1.86-1.85c-.31.32-.81.6-.9,1-.74,3.14-1.43,6.29-2.05,9.45a1.71,1.71,0,0,0,.62,1.35,1.38,1.38,0,0,0,1.26-.18c2.22-1.84,4.37-3.74,6.72-5.76Zm42.11-40.44c-1.24,1.81-2.5,3.59-3.71,5.42-2.05,3.12-1.88,4.33.88,7.14a106.054,106.054,0,0,0,8.72,8.24c4.48,3.39,9.27,3.07,13.79-.3a8.261,8.261,0,0,0,1.6-1.41,9.22,9.22,0,0,0,.85-1.76l.69.78c-3.67,7.29-9.74,6.52-15.6,4.61l6.95,21.8a26.75,26.75,0,0,0,4.38-4.76A54.35,54.35,0,0,0,456,289.75c1.57-5.32,3-10.66,2.51-16.49-.28-3.2,1.68-6.6,2.67-10a21.2,21.2,0,0,0,6.21,11,17.341,17.341,0,0,0,4,2.2c-1.67,1.37-2.67-.17-3.74-1a42.929,42.929,0,0,1-3.33-3l-.68.52c2.58,4.35,4.36,9.12,7.74,13h.23l1.36,1.86c.64.57,1.19,1.42,1.93,1.67,4.23,1.36,8.26.17,12.2-1.32a1.92,1.92,0,0,0,.81-1.34c.9-5.2,1.06-10.4-.9-15.42a16.08,16.08,0,0,0-1.89-3c.44-1.65,1.5-3.43,1.16-4.87-1-4.42-2.61-8.72-4-13.06-.44-1.36-1.47-1.52-2.82-1.51a77.1,77.1,0,0,1-7.732-.389c-1.308-.111-2.588-.451-4.4-.791l3,6.14-5.25-6.54c-2.1-2.62-3.2-2.48-4.35.21l-5.4-9.23a55.1,55.1,0,0,0-4.42-4.49c-2.9-2.41-3.91-1.94-4.7,1.82a23.56,23.56,0,0,1-5.46,11.77c3.64-6.22,5.11-13.17,6.75-20.08a11.3,11.3,0,0,1,6.9-8.47c.3-.12.52-.46,1.16-1.06l-12.05-3.11,1.25-.68-9.46-6.45.07.08-1.91-12,.58-.11.71,2.57c.83-.66,1.84-1,2-1.64.83-3.41,1.44-6.87,2.16-10.45,2.17,0,3.19-1.44,3.94-3.32a40.613,40.613,0,0,0,2-4.52c.23-.88-.37-2-.6-3l.07.09c-.12-.28-.19-.75-.36-.79-3.77-.89-3.34-3.84-3.33-6.62a22.577,22.577,0,0,0-.19-2.6c-1.58-13.83-16.12-21.47-27.8-14.55a14.661,14.661,0,0,0-2.56,2.48l-1.39.87a36.5,36.5,0,0,0-2.92,4c-2.29,4.13-2.75,8.67-2.73,13.32a2.64,2.64,0,0,1-1.12,2.07c-3.36,1.49-3.89,2.64-2.36,6,.45,1,.95,2,1.37,3,.81,2,1.69,3.82,4,3.54,2.15,4-.94,9.63,5.12,12.4-.76,3.12-.78,6.91-2.55,9.48s-5.36,4.1-8.53,6.35c3.27,0,6.15.06,9,0,5.2-.14,9.08,2,11.16,6.79a74.757,74.757,0,0,1,2.58,8c1.4-3.2,2.67-7.3,4.88-10.82,2.56-4.08,7.11-3.88,11.37-3.63a23.259,23.259,0,0,1-3.9.6c-3.75.32-6.82,1.88-8.12,5.55S423.15,228,423,231.64c-.59,13.66-.68,27.35-.92,41,0,1.35.2,2.7.34,4.38.95-2.7,1.33-5.27,2.63-7.23,4.88-7.37,10.05-14.54,15.1-21.78-.37.76-.68,1.57-1.12,2.29-2.22,3.6-4.49,7.2-6.75,10.8ZM321.39,372c.16.17.5.43.46.51-1.24,2.52-2.66,5-3.71,7.56-.38.94.11,2.23.2,3.36,3.58,1.59,3.55-2.16,5.35-3.64a9.776,9.776,0,0,1-.27,1c-.42,1.08-1.28,2.53.29,3a4.19,4.19,0,0,0,3.35-1.26,13.371,13.371,0,0,0,1.92-3.76q1.5-3.19,3-6.39l.66.31c-.85,1.81-1.78,3.58-2.5,5.44-.23.59.09,1.39.16,2.09a8.171,8.171,0,0,0,2.09-.65A3.94,3.94,0,0,0,333.5,378c1.56-2.74,2.87-5.66,4.68-8.22,4.2-5.95,5.11-12.6,4.7-19.59a3.08,3.08,0,0,0-1-2.19c-6.57-4.14-13.64-4.5-19.36,1.39-1.86,1.92-3.42,4.11-5.12,6.18-2,1.15-4,2.27-5.91,3.45-.63.39-1.72,1.12-1.63,1.4a3.69,3.69,0,0,0,1.56,2.15,5.18,5.18,0,0,0,3.15.39c2.77-.63,5.47-1.52,8.54-2.39-.32.74-.56,1.43-.9,2.07-1.72,3.29-3.48,6.56-5.18,9.86a11.619,11.619,0,0,0-1.29,3.29c-.11.7.48,1.51.75,2.26.71-.31,1.71-.43,2.07-1,1.08-1.64,1.9-3.43,2.83-5.16Zm134.73-61.13,1.22.83c.21-.62.67-1.28.56-1.84-.47-2.55-1.08-5.07-1.69-7.59-.2-.86-.55-1.69-1.09-3.24l-6,7.09,4.92,2.67Zm-51.59-60.13a39.18,39.18,0,0,1-7.69-16.84c-.26-1.57-1.43-1.79-2.7-1a22.925,22.925,0,0,0-2.2,1.73,20.22,20.22,0,0,0-7.89,11.22,43.21,43.21,0,0,0,.69,26.07c.18.52.71,1.22.54,1.51-1.46,2.42-.11,4.74.2,7a46.07,46.07,0,0,0,7,20.18,49.29,49.29,0,0,0,4.57,5.12l7-21.91c-5.87,2.09-11.4,2.46-15.31-3.75l-.45-.76a13.8,13.8,0,0,1,2,1.34c4.69,4.31,10.24,5,15.26,1.18a96.678,96.678,0,0,0,9.79-9.52,3.35,3.35,0,0,0,.44-4.38c-3.72-5.76-7.5-11.47-11.25-17.2Zm56,89c.09-.66.47-1.46.22-1.95-1.41-2.79-3-5.51-4.49-8.25l-8.46-9.09a43.76,43.76,0,0,1,5.92,4,69.062,69.062,0,0,1,5.25,6.2l-.08-.08,2,2.37.67-.39a5.63,5.63,0,0,0,.2-1.78c-1-4.54-2-9.12-3.26-13.58a14.47,14.47,0,0,0-8-9.26c-4.9-2.31-8.15-1-10.69,4.49-1.23,2.65-.5,6.15-3.45,8.05-.11.07-.12.28-.17.44a72.239,72.239,0,0,1-12.94,24.59c-1.43,1.86-1.94,4.08-.56,6,2,2.75,4.47,5.19,6.74,7.77,6.17,5.07,13.47,7.75,21.06,9.72,2,.51,2.8-.73,2.61-3a85.541,85.541,0,0,1-.72-11.54c.32-5.79,1.49-11.39,7.72-14.06.19-.09.29-.37.43-.56Zm-45.82-64.8c-2,2.19-4,4.41-6.1,6.58a34.8,34.8,0,0,0-8.81,18.25c-.83,4.49-.77,4.45,2.8,6.85a8.289,8.289,0,0,1,2.47,2.5,49.613,49.613,0,0,1,3.57,6.91c1.58,4,2.67,8.26,4.36,12.24s4,8,6,12l1.55,1.83.92-.22c-.63-21.27.77-42.56-.83-63.83a53.1,53.1,0,0,0,.77-6.53c0-12-.21-24-.35-36a37.53,37.53,0,0,0-3.55-14.87,8.07,8.07,0,0,0-6.63-5.1c-4.29-.56-8.58-1.36-12.91-.14-3.21.9-6.46,1.67-9.95,2.55,2.12,1.63,4.32,2.63,5.41,4.34a23.55,23.55,0,0,1,3.3,8.24,45.281,45.281,0,0,0,8.86,20.14c3.18,4.13,6.07,8.48,9.06,12.76A31.11,31.11,0,0,1,420.7,278c-.44-.87-.84-1.76-1.33-2.59s-1.17-1.73-1.76-2.59ZM446.22,448l-.07-.07,1.41,1.52c1-2.33,1.68-4.42,2.69-6.35a4.64,4.64,0,0,0-.12-4.88c-1.59-2.91-3.72-5.49-3.82-9.21-.15-5.36-1.11-10.69-1.5-16-.76-10.32-1.32-20.67-2.08-31a94.2,94.2,0,0,0-1.38-10.58c-.5-2.62-1.4-5.2-4.4-6.14l-7.12-3.76L427,359.8a7.1,7.1,0,0,0-.82,2c-.57,11.59-1.27,23.14-.88,34.78.5,15.12,1.33,30.12,5.78,44.69q2.49,8.13,5.2,16.2a18.523,18.523,0,0,0,1.94,3.34l.74-.31c.06-.75.14-1.49.16-2.24.05-3,.11-6,.1-9a7.27,7.27,0,0,1,2.09-5.35,19.441,19.441,0,0,0,2.1-3.28l-.06.07,1.12-.28c-.56,1-1,1.79-1.47,2.53-.82,1.17-.8,2.13.45,3,1,.63,1.87,1.32,2.81,2ZM370.69,548.42c-4,3.1-3.43,8.68,1.27,11.25,1.84,1,4.06,1.28,6,2.18s4.16,1.76,5.25,3.33c3.55,5.15,8.6,5.23,13.92,4.91a3.47,3.47,0,0,0,3.62-3.07c.41-2.55.95-5.09,1.15-7.67.29-3.91.42-7.83.46-11.76a60.486,60.486,0,0,0-.32-10.07,4.79,4.79,0,0,0-4.86-4.35,6.81,6.81,0,0,0-6.67,3.91c-.77,1.7-1.74,3.3-2.62,4.95.3-1.15.55-2.31.91-3.43,1.78-5.48,5.87-7.52,11.27-5.66l1.29,1a9.72,9.72,0,0,0-.61-3.66,22.14,22.14,0,0,1-.68-11.91c.56-2.79.95-5.61,1.59-8.37,1.22-5.33,1.68-10.86,4.67-15.72a14,14,0,0,0,1.45-5.19c.82-5.35-.26-10.49-1.67-15.64a95.708,95.708,0,0,1-2.86-13.59c-.43-3.57.14-7.25.15-10.89,0-2.12-.68-2.51-2.64-1.74-3.71,1.45-5.35,4.53-6.22,8.11a105.79,105.79,0,0,0-2.87,31,31.151,31.151,0,0,0,2,8.23,16,16,0,0,0,2.69,3.69l-.07-.08,3,2.81a8.89,8.89,0,0,1-6.29-5.7c-.29-.68-.74-1.71-1.25-1.8-2.65-.47-5.32-.69-8-1,.24,1.36.47,2.66.73,4.08l-2.72-5.6-1.86-3.25.5.49a19,19,0,0,0,2.56,1.62c4,1.77,7.21.93,7.38-4.54.2-6.63,1-13.24,1.64-19.84.54-5.27,1.41-10.5,1.85-15.77a11.8,11.8,0,0,0-1.06-5.24c-.73-1.77-1.85-1.71-2.94-.11-.74,1.1-1.43,2.23-2.14,3.35a48,48,0,0,1,3.59-9,55.91,55.91,0,0,0,6-23.71c.31-7.58.94-15.16,1.29-22.74.31-6.55.53-13.11.58-19.67,0-3.72-.72-4.09-4.33-2.91a21.269,21.269,0,0,1-3.41.94c-2.71.42-3.15-.09-2.51-2.76A39.62,39.62,0,0,0,390.11,352c-.72-4.43-2.07-8.55-6.87-10.24-2.37-.83-3.7-.06-4.09,2.37-.53,3.36-1,6.73-1.29,10.11a229.564,229.564,0,0,0,3,52.94c1.83,11.19,4.65,22.28,2.94,33.84a18.391,18.391,0,0,0,1.29,8.33,3.29,3.29,0,0,1,0,3.05,73.28,73.28,0,0,0-7.39,22.16c-.64,4.05-1.26,8.36,1.25,12.21-.25.68-.75,1.38-.69,2a27.4,27.4,0,0,0,.87,4.4c2.48,9.14,5,18.27,7.49,27.42a30.83,30.83,0,0,1,.81,15.46,23.309,23.309,0,0,0-.48,4.71c0,.4.6.82.92,1.24-.83,3.14-1.48,3.67-4.43,3.54-2-.09-4.09-.33-6.12-.26-2.65.09-5.13.71-6.7,3.16Zm.9-272a11,11,0,0,0,3.15-1.41c4.26-3.93,7.12-8.66,7.33-14.62q.21-5.91,0-11.83a9.2,9.2,0,0,0-1.17-2.89,9.42,9.42,0,0,0-2.88,1.58c-1.89,2.19-3.56,4.59-5.31,6.91l2.66-6.2h-1.19c-3.81.32-7.64.55-11.43,1a3.15,3.15,0,0,0-2.15,1.71c-1.45,4.07-2.76,8.19-4,12.33a4.21,4.21,0,0,0,1.51,4.89,18.85,18.85,0,0,0-2.16,3.29,28.11,28.11,0,0,0-.95,15.63,2.08,2.08,0,0,0,1,1.42,24.1,24.1,0,0,0,6.58,1.77c2.54.07,5.49.47,7.33-2.22l1.62-1.61a69.25,69.25,0,0,0,7.32-13.52,28.082,28.082,0,0,0-3.76,2.84c-1,.74-2,2.21-3.58.89Zm150,95.4c1,1.87,1.87,3.78,3,5.57.28.45,1.44.89,1.72.68a2.43,2.43,0,0,0,1-1.89,12.606,12.606,0,0,0-1.31-3.53c-1.75-3.45-3.6-6.85-5.39-10.28-.27-.62-.51-1.25-.72-1.9a5.67,5.67,0,0,1,1.09,0,75.281,75.281,0,0,0,8.46,2.63c1,.2,2.34-.95,3.36-1.7a2.09,2.09,0,0,0-.4-1.85c-2.34-1.39-4.79-2.59-7.2-3.85l-1.82-2.81c-.58-.75-1.12-1.53-1.73-2.25-5.66-6.6-12.81-7.33-20.33-2.79-.54.33-1.21,1.05-1.21,1.59,0,3.7-.71,7.78.59,11,2.57,6.47,6.26,12.5,9.6,18.65.33.61,1.53.74,2.33,1.09a7.12,7.12,0,0,0,0-2.48c-.63-1.74-1.52-3.39-2.3-5.08l.69-.3c1.35,3,2.61,6,4.11,8.91a8,8,0,0,0,2.53,2.6,2,2,0,0,0,1.9-.26,2.42,2.42,0,0,0,.29-1.89,16.342,16.342,0,0,0-1-2.61,25.868,25.868,0,0,1,2,3c.82,1.2,2,2.46,3.5,1.52s1.16-2.37.43-3.77c-1.29-2.44-2.51-4.92-3.72-7.4,0-.07.39-.35.6-.53ZM417.24,341.94l.08.08c-.46-.82-1-1.61-1.38-2.45q-3.9-7.81-7.76-15.66c-.9-1.82-.56-4.38-3.12-5.24-.11,0-.05-.52-.13-.78a51.792,51.792,0,0,0-2.12-7.21c-1.49-3.32-4.56-4.47-8.08-3.45a13.29,13.29,0,0,0-9.3,8.75c-1.6,4.77-2.57,9.75-3.73,14.66a5.5,5.5,0,0,0,.27,1.93l.72.45c4-4.62,6.6-10.92,13.49-12.1-6.36,3.71-10.44,9.28-13.25,15.93-.71,1.7-.77,3,1.16,3.9,3.48,1.55,5.11,4.44,6.07,8,1.53,5.65,1,11.28.16,16.92-.42,2.79.66,3.81,3.31,3.1,6.91-1.85,13.62-4.33,19.29-8.75a50,50,0,0,0,7.52-8.08,4.49,4.49,0,0,0,.35-5.36,53.516,53.516,0,0,0-3.55-4.62Zm-18.07,99.23c2.36,1.7,4.56,3.65,4.85,6.69.33,3.53.22,7.1.32,10.66a18.8,18.8,0,0,0,.22,2.12l.86.22a24.283,24.283,0,0,0,2.13-4.23c2.81-9.94,6.15-19.79,8-29.92,1.65-9,1.63-18.22,2.34-27.35,1-12.66,0-25.28-.65-37.9-.09-1.77-1-2.13-2.5-1.26a74.451,74.451,0,0,1-6.63,3.59,9.64,9.64,0,0,0-6.15,7.82c-.88,7.21-1.72,14.44-2.32,21.68-.76,9.13-1.23,18.29-1.91,27.43-.32,4.4-.86,8.78-1.24,12.6-.69.78-1.14,1.3-1.61,1.81-4.53,5-1,9.42,1.06,14.58l4.92-5.49Zm55.94,100.68c2.4.93,1.34-1.05,1.3-1.73-.23-4.32-1.53-8.81-.72-12.89,2.08-10.49,5.13-20.79,7.68-31.19.78-3.17,1.15-6.44,1.72-9.66a27.8,27.8,0,0,0-.28-16.11c-2.12-6.68-4.54-13.26-6.88-20a9.161,9.161,0,0,0,1.09-2.94c.19-4.65.19-9.3.21-13.95a45.739,45.739,0,0,1-.08-6.62c1.31-8.67,2.94-17.29,4.26-26,2.74-18.06,3.61-36.18,1.2-54.35a22.2,22.2,0,0,0-1.37-4l.08.08c-1.61-1.3-3.49-1.15-5.63.6-2.78,2.3-3.87,5.46-4.42,8.91-.88,5.43.06,10.71,1.27,16,.58,2.51.13,3.08-2.42,2.63a49.689,49.689,0,0,1-5-1.39c-1.62-.45-2.68,0-2.76,1.84a81.859,81.859,0,0,0-.25,8.28c.61,11.61,1.53,23.2,2,34.81a58.061,58.061,0,0,0,6.39,25.27c1.38,2.62,2.43,5.41,3.63,8.13a10.751,10.751,0,0,1-2.35-2.77c-.44-.6-1.21-1.56-1.62-1.46a2.62,2.62,0,0,0-1.74,1.61,35,35,0,0,0-.6,7.91c1,10.93,2.27,21.84,3.33,32.76.46,4.75,2.46,6.19,6.88,4.44a20,20,0,0,0,3.5-2.27l.18-.17,1.38-1.14-6.36,9.41.28.24.73-3.88a18,18,0,0,1-5,1c-2.88-.28-4.1,1.07-5.15,3.51a7.48,7.48,0,0,1-6.12,4.55c5.27-3.64,7.16-6.15,7.88-12.18a92.14,92.14,0,0,0-3.1-35.65,9,9,0,0,0-5.48-6.16c-2.12-.85-2.76-.48-2.76,1.81,0,3.79.62,7.65.08,11.36-.8,5.43-2.39,10.74-3.63,16.1-1.74,7.53-2.05,14.89,2.69,21.62a2.78,2.78,0,0,1,.37,1.08c1.28,6.35,2.53,12.7,3.82,19a22.11,22.11,0,0,1-.75,12.14c-.38,1.07-.59,2.21-1.07,4.07,3.09-2.58,5.92-3,8.73-1.45,3.42,1.89,4.72,5.13,4.89,8.89-.79-1.71-1.6-3.41-2.38-5.13-1.25-2.79-3.71-3.51-6.42-3.59a4.6,4.6,0,0,0-4.83,3.78,30.117,30.117,0,0,0-.75,7.45q.12,7.67.75,15.31a57.06,57.06,0,0,0,1.46,8.1,3,3,0,0,0,1.4,1.75c4.08,2,12.09-.14,15.16-3.6a23.4,23.4,0,0,1,5.85-4.11,18.883,18.883,0,0,1,3.62-1.09c4.1-1.35,6.52-4.29,6.31-7.61a8.91,8.91,0,0,0-7.65-7.62,34,34,0,0,0-6.38,0c-4.34.22-4.37.25-6.19-3.71ZM370.19,227.34l-1.4.87c-1.15,1.68-2.78,3.21-3.35,5.06-1.23,4-1.91,8.1-2.82,12.17-.44,2,.54,2.66,2.37,2.83a20.36,20.36,0,0,0,16.68-5.74c4-3.79,8.2-7.39,12.25-11.16a3.41,3.41,0,0,0,1-2.21c0-4.15-4.71-9.6-8.86-10.32C382.45,218.21,371.81,223.91,370.19,227.34Zm97.15-4.53c-2.84-1.32-5.64-2.73-8.54-3.88a4.43,4.43,0,0,0-3,.21,12.66,12.66,0,0,0-7.74,9.25,3.12,3.12,0,0,0,1.4,3.44c2.78,2.2,5.43,4.57,8.06,6.94,1.7,1.54,3.2,3.29,4.93,4.79a19,19,0,0,0,16.08,4.53c.68-.11,1.77-1.08,1.75-1.6-.32-6-1.12-12-4.95-17a9.642,9.642,0,0,0-1.92-1.5ZM428.87,275,426,272.87a10.35,10.35,0,0,0-1.76,2.85,51.733,51.733,0,0,0-1.75,10.19c-.26,17.8-.27,35.6-.34,53.4a19.879,19.879,0,0,0,.4,2.77,6.461,6.461,0,0,0,1.16-.69,17.043,17.043,0,0,0,1.14-1.51c3.42-4.75,5.29-10.2,7.19-15.66,1.56-4.47,3.26-8.89,5.2-13.21a9.09,9.09,0,0,1,5.68-5.39,2.65,2.65,0,0,0,1.24-2.15A33.63,33.63,0,0,0,433.33,280Zm83.8,69.62L502.76,316l-.78.11c-1.65,3.5-.82,7.39-1.46,11.07a86.822,86.822,0,0,1-.11-12.07c.37-3.95-2.08-7.39-1.25-11.53.52-2.53-.63-5.66-1.75-8.21-1.94-4.42-4.44-8.59-6.7-12.87l-1.18.2c-.53,2.39-1.71,4.86-1.41,7.14s2.09,4.35,3.29,6.63a34.4,34.4,0,0,1-4.8-3.8c-1.76-2-3.35-1.43-5.23-.43s-2.19,2.48-1.35,4.39l-5.93-6.94-.78.5a10.07,10.07,0,0,0,.78,7.19,69.766,69.766,0,0,1,3.8,7.89c4.78,14.33,12.37,27.33,19.29,40.64a2.58,2.58,0,0,0,2.16,1.12c4.08-1.75,8.13-3.47,13.32-2.37Zm-182-1.19c4.1,1.08,7.76,1.84,11.27,3,3,1,2.84,1.19,4.38-1.5,8.9-15.42,15.59-31.89,22.7-48.16.85-1.94.73-4.31,1.05-6.47l-.89-.31c-2.84,1.43-4,4.57-6.63,6.68,1.39-2.12.79-3.48-1.18-4.57s-3.54-1.17-5.2.7a27.88,27.88,0,0,1-4.17,3.24l-.83-.33c5.67-3.89,3.62-8.4,1.95-13.22-.55.42-.89.56-1,.8-2.56,5-5.22,9.88-7.56,14.94a16.749,16.749,0,0,0-.94,5.57c-.08.94.55,1.95.45,2.88-.39,3.59-1.1,7.14-1.38,10.73-.24,3.13-.05,6.29-.05,9.43H342a35.857,35.857,0,0,0-.07-5.58c-.27-1.74.63-4-1.74-5.36Z" transform="translate(7481.478 636.65)" fill="#fff"/>
    <path id="Path_215" data-name="Path 215" d="M421.27,356c2.66,1.45,1.92,3.26,1.77,5.15-.47,5.89-.68,11.8-1,17.7a6.38,6.38,0,0,1-.57,2.58c-.35-5.95-.69-11.91-1.08-17.86a34.375,34.375,0,0,1-.38-4.42,11.452,11.452,0,0,1,1.26-3.15Z" transform="translate(7481.478 636.65)" fill="#fff"/>
    <path id="back17" d="M429.83,361.44l7.11,3.76a11.27,11.27,0,0,1,4,7.27c.81,8.17,1.72,16.33,2.4,24.5.89,10.69,1.39,21.42,2.52,32.09a17.11,17.11,0,0,1-2.1,10.39,8.347,8.347,0,0,0-.46,1.3l.06-.08c-3.05,2.87-5.43,6-4.88,10.6a70.085,70.085,0,0,1,0,8.07h-.82c-13.46-31.86-12.87-65.26-10.83-99Z" transform="translate(7481.478 636.65)" fill="#fff"/>
    <path id="bHead" d="M408.68,154.15l1.39-.88a6.114,6.114,0,0,0,.61-.36c11.7-8.63,26.73-2.51,28.93,11.86.46,3,.41,6.08.57,8.71l4.13,1.87-.07-.08c1,2.41-.7,4.17-1.54,6.09s-1.37,4.62-4.31,4c-1.57,3.85-.23,8.1-3.09,12-.27-1.27-.34-1.87-.52-2.43-1.08-3.39-2.18-6.77-3.27-10.16l.07.07a11.06,11.06,0,0,0-2.16-2.66,12.64,12.64,0,0,0-12.58-1.35c-4.83,2.07-6.36,6.26-7.16,10.94-.28,1.65-.57,3.31-.85,5h-.72c-2.52-3.34-.92-7.73-2.51-11.31-2.74-.36-2.75-.35-4-2.92-.64-1.36-1.26-2.72-1.84-4.1-.88-2.08-.22-3.41,2-4.12l2-.68a6.631,6.631,0,0,0,.08-1c-.4-6.48.51-12.6,4.79-17.83C408.76,154.68,408.67,154.38,408.68,154.15Z" transform="translate(7481.478 636.65)" fill="#fff"/>
    <path id="back8" d="M428.88,275l4.45,4.93c.88,1.26,1.66,2.6,2.64,3.78a31.72,31.72,0,0,1,7.36,19.1,3.59,3.59,0,0,1-1.17,2.35c-1.39,1.34-3.44,2.2-4.37,3.76A74,74,0,0,0,433,319.19c-2,5-3.67,10.24-5.74,15.26a49.762,49.762,0,0,1-3.86,6.47,2.93,2.93,0,0,1-.53-1.9q.06-26.07.14-52.15a29.882,29.882,0,0,1,.41-5.9c.53-2.56,1.45-5,2.24-7.71Z" transform="translate(7481.478 636.65)" fill="#fff"/>
    <path id="bHand2" d="M523.36,352.9l1.82,2.81,7.24,5c-1.9,2.66-7.37,2.15-11.68-1.19-1.63.52-1.71,1.44-1,2.87,2.19,4.09,4.33,8.21,6.37,12.39a8.13,8.13,0,0,1,.29,2.73l-.79.17-4-5.83.07.08-3.42-6.8-.94.32a10.366,10.366,0,0,0,.55,2.26c2,4,4.17,8,6.06,12.08a8.55,8.55,0,0,1,0,3.38c-1-.65-2.27-1.09-2.81-2-1.53-2.57-2.75-5.33-4.1-8q-1.2-2.37-2.42-4.74l-.89.28a8.21,8.21,0,0,0,.33,2.09c1.51,3.31,3.12,6.57,4.64,9.87a18.851,18.851,0,0,1,.74,2.46c-2.33.62-3.15-.71-3.83-2.19-1.51-3.27-3-6.55-4.69-10.27-2.63,3.83,1.78,5.87,1.36,9.32a11.53,11.53,0,0,1-2-1.92c-1.67-2.78-3-5.75-4.85-8.41a27.72,27.72,0,0,1-4.67-18.9,3.52,3.52,0,0,1,1.23-2.46c7.43-4.45,13.66-3.4,19.44,3.09A14.248,14.248,0,0,0,523.36,352.9Z" transform="translate(7481.478 636.65)" fill="#fff"/>
    <path id="bArm2" d="M467.34,222.81l6.09,5.18c4.57,5.13,5.8,11.44,6.24,18a2.205,2.205,0,0,1-1.42,1.48,19.09,19.09,0,0,1-17-5.84c-3.31-3.27-6.66-6.52-10.22-9.51-2.71-2.27-3.08-2.67-1.56-5.85a15.1,15.1,0,0,1,2.19-3.35c3.12-3.62,5.64-4.17,10.06-2.38Z" transform="translate(7481.478 636.65)" fill="#fff"/>
    <path id="bArm1" d="M368.8,228.21l1.39-.87a35.2,35.2,0,0,1,12.83-7.4,7.07,7.07,0,0,1,4.52.14,11.47,11.47,0,0,1,6.65,8.41,3.07,3.07,0,0,1-.78,2.44c-4.26,4-8.61,7.87-12.94,11.79a19,19,0,0,1-15.3,4.87c-1.66-.17-2.09-.64-1.91-2.33.61-5.89,1.65-11.58,5.5-16.36C368.87,228.75,368.79,228.45,368.8,228.21Z" transform="translate(7481.478 636.65)" fill="#fff"/>
    <path id="back21" d="M380.38,488.17l-.5-.48-.8-.92a37.143,37.143,0,0,1-.91-5.23c-.42-12.21,4.25-22.94,10-33.32.86-1.55,1.93-3,3-4.61a6.11,6.11,0,0,1,2,5.76c-.26,3.38-.79,6.74-1.12,10.12q-1.25,13.18-2.41,26.39c-.33,3.73-1.95,4.88-5.55,3.67C382.83,489.13,381.6,488.64,380.38,488.17Z" transform="translate(7481.478 636.65)" fill="#fff"/>
    <path id="back24" d="M463.72,487.51a1.531,1.531,0,0,0-.18.18c-1,.46-2,.94-3,1.38-4.65,2.07-6.57.82-6.85-4.21q-.47-8.16-1.29-16.3c-.65-6.29-1.56-12.55-2.24-18.83a6.67,6.67,0,0,1,2-6.14c.49.7.85,1.19,1.2,1.7A78,78,0,0,1,463.83,469C465.51,475.23,466.33,481.37,463.72,487.51Z" transform="translate(7481.478 636.65)" fill="#fff"/>
    <path id="Path_225" data-name="Path 225" d="M431.5,184.8c1.09,3.38,2.19,6.76,3.27,10.16.18.56.25,1.16.52,2.43,2.86-3.91,1.52-8.16,3.09-12,2.94.6,3.44-2,4.31-4s2.59-3.68,1.55-6.09c.22,1,.83,2.08.6,3a40.667,40.667,0,0,1-2,4.52c-.75,1.88-1.77,3.34-3.94,3.32-.71,3.59-1.33,7.05-2.15,10.45-.14.6-1.15,1-2,1.64l-.7-2.57-.58.11q.94,6,1.91,12a11.789,11.789,0,0,1-1.53-3.2c-.38-2.49-.43-5-.59-7.56-.24-3.77-.86-7.42-3.35-10.58q.51,6.46,1,12.94a2.26,2.26,0,0,1-.91-1.62c-.59-4.06-1.14-8.14-1.76-12.2-.1-.67-.25-1.58-.71-1.91a10.46,10.46,0,0,0-9.51-1c-2.78.84-2.49,3.08-2.66,5.17a15.254,15.254,0,0,1-.11,1.66q-1.28,7.13-2.58,14.26l-.63-.13,1.73-17.13-1.2-.2c-.68,2.69-1.57,5.36-2,8.1-.51,3.27-.63,6.6-.89,9.91a7.92,7.92,0,0,1-4.26,6.67c-1.4.79-2.74,1.67-4.11,2.51a26.71,26.71,0,0,0,6.25.38c7.34-.34,10.63,3.06,13.07,9,.49,1.19.82,2.43,1.4,4.17l.46-1.68c2.53-9,5.92-11.58,15.23-11.45h4.82a42.147,42.147,0,0,0-4.48-3.28,25.5,25.5,0,0,1-2.78-2.91l9.46,6.44-1.25.68,12.05,3.12c-.64.6-.86.93-1.15,1a11.35,11.35,0,0,0-6.91,8.48c-1.64,6.9-3.11,13.85-6.75,20.08l-.57.57c-5.06,7.24-10.23,14.41-15.1,21.77-1.31,2-1.69,4.55-2.64,7.24-.14-1.68-.36-3-.34-4.38.24-13.68.33-27.37.92-41,.16-3.67,1.68-7.34,2.94-10.88s4.36-5.23,8.12-5.55a23.14,23.14,0,0,0,3.89-.6c-4.26-.25-8.81-.45-11.37,3.63-2.21,3.52-3.48,7.62-4.88,10.82a74.005,74.005,0,0,0-2.58-8c-2.08-4.77-6-6.92-11.16-6.79-2.89.08-5.77,0-9,0,3.16-2.25,6.7-3.71,8.52-6.35s1.79-6.36,2.55-9.48c-6.06-2.77-3-8.37-5.12-12.4-2.28.28-3.16-1.57-4-3.54-.42-1-.92-2-1.37-3-1.52-3.38-1-4.53,2.37-6a2.7,2.7,0,0,0,1.12-2.07c0-4.65.43-9.19,2.72-13.32a36.5,36.5,0,0,1,2.92-4c0,.23.08.54,0,.68-4.28,5.23-5.2,11.35-4.79,17.83a8.259,8.259,0,0,1-.08,1l-2,.67c-2.2.72-2.85,2-2,4.13.58,1.38,1.21,2.74,1.85,4.1,1.21,2.57,1.22,2.56,4,2.92,1.59,3.58,0,8,2.51,11.31h.72c.28-1.65.56-3.31.85-5,.8-4.69,2.32-8.87,7.16-10.94a12.62,12.62,0,0,1,12.58,1.35,11.3,11.3,0,0,1,2.16,2.66,7.481,7.481,0,0,1-1.06-.79,11.86,11.86,0,0,0-15.69-1.24,2.32,2.32,0,0,0-1,1.57,23.875,23.875,0,0,0,.66,3.57c.34-1.42.29-3.46,1.24-4.76,2.05-2.8,9.95-2.52,12.51,0a28.092,28.092,0,0,0,4.29,2.9l-.69.7C431.74,186.12,431.62,185.46,431.5,184.8Zm-8.75,87.25h.4a57.946,57.946,0,0,1,3.18-6c3.43-5,6.94-10,10.6-14.87a43.68,43.68,0,0,0,8.69-18.72c1-5.6,2.09-11.28,8.3-14.06a40.06,40.06,0,0,0-19.47-2.59c-4.09.38-7,2.25-8.37,6.23a33.57,33.57,0,0,0-2.25,7.93c-.59,8-.85,16.1-1.05,24.15-.16,6,0,12,0,18Z" transform="translate(7481.478 636.65)"/>
    <path id="bArm8" d="M371.61,286.21,370,287.82c-.15,0-.36-.1-.46,0-4.28,3-8.6,1.24-12.87,0a2.24,2.24,0,0,1-1.08-1.6,29.36,29.36,0,0,1,.35-12.89c.67-2.56,1.59-4.43,4.71-4.64,1.46-.1,2.87-1.21,4.29-1.87.67-.3,1.32-.62,2-1a43,43,0,0,0,.73,7.33c1.3,4.67,5.15,5.6,8.61,2.3.34-.32.74-.59,1.59-1.27-1.26,2.31-2.23,4-3.14,5.78C373.68,282,372.66,284.13,371.61,286.21Z" transform="translate(7481.478 636.65)" fill="#fff"/>
    <path id="bArm7" d="M473,287.82,471.61,286l-6.3-11.2a2.78,2.78,0,0,1,1.48.85c3.14,2.95,6.38,2.4,8.13-1.53a13.938,13.938,0,0,0,.8-4.14,37.244,37.244,0,0,0,0-3.81c3.26,1.13,6.3,2.11,9.27,3.26.53.21.93,1,1.18,1.64a26.93,26.93,0,0,1,1.12,15.36c-.11.62-1,1.31-1.69,1.58C481.4,289.61,477.15,290.17,473,287.82Z" transform="translate(7481.478 636.65)" fill="#fff"/>
    <path id="Path_228" data-name="Path 228" d="M380.38,488.17c1.23.47,2.45,1,3.7,1.38,3.59,1.2,5.22.06,5.55-3.67q1.15-13.2,2.42-26.39c.32-3.38.85-6.74,1.11-10.12a6.08,6.08,0,0,0-2-5.76c-1,1.61-2.11,3.06-3,4.61-5.74,10.38-10.41,21.1-10,33.32a35.788,35.788,0,0,0,.92,5.23h-.14c-2.51-3.85-1.89-8.16-1.26-12.2a73.36,73.36,0,0,1,7.4-22.17,3.32,3.32,0,0,0,0-3.05,18.37,18.37,0,0,1-1.29-8.32c1.7-11.56-1.12-22.66-2.95-33.85a229.469,229.469,0,0,1-3-52.93c.23-3.39.75-6.76,1.29-10.12.38-2.43,1.72-3.2,4.09-2.36,4.79,1.69,6.15,5.8,6.87,10.23a39.789,39.789,0,0,1-1.25,15.73c-.65,2.67-.21,3.19,2.5,2.76a22.452,22.452,0,0,0,3.42-.93c3.61-1.18,4.36-.82,4.33,2.91-.05,6.55-.28,13.12-.58,19.67-.35,7.58-1,15.15-1.3,22.73a55.87,55.87,0,0,1-6,23.71,47.3,47.3,0,0,0-3.59,9c.71-1.11,1.39-2.25,2.14-3.34,1.09-1.6,2.21-1.66,2.94.1a11.86,11.86,0,0,1,1.06,5.24c-.44,5.27-1.32,10.51-1.85,15.77-.67,6.61-1.44,13.22-1.65,19.84-.17,5.48-3.34,6.32-7.37,4.55a17.893,17.893,0,0,1-2.51-1.57Zm4.51-39.29.94-.1c2.09-4.51,4.21-9,6.27-13.52a50.55,50.55,0,0,0,4.33-18.34c.49-9.08,1.2-18.14,1.63-27.22.28-6.07.23-12.16.32-18.24,0-1.78-.76-2.14-2.41-1.57a27.237,27.237,0,0,1-5.48,1.41c-2.12.25-2.86-.78-2.44-2.85.49-2.4,1.13-4.79,1.4-7.21.56-5,.93-10.05-1.75-14.56a12.08,12.08,0,0,0-4.56-4.16c-2-1.07-3.15-.22-3.41,2-.56,4.87-1.21,9.73-1.44,14.61-.94,19.71,1.4,39.15,5.06,58.47a65.5,65.5,0,0,1,1.28,19.3,91.508,91.508,0,0,0,.26,11.94Z" transform="translate(7481.478 636.65)"/>
    <path id="Path_229" data-name="Path 229" d="M463.72,487.51c2.61-6.14,1.79-12.28.11-18.48a78.309,78.309,0,0,0-10.45-23.74c-.34-.51-.7-1-1.19-1.7a6.67,6.67,0,0,0-2,6.14c.67,6.28,1.58,12.54,2.23,18.83q.84,8.13,1.29,16.3c.28,5,2.21,6.29,6.86,4.21,1-.44,2-.92,2.94-1.38A20.17,20.17,0,0,1,460,490c-4.43,1.75-6.42.3-6.88-4.44-1.06-10.93-2.34-21.83-3.33-32.76a35,35,0,0,1,.6-7.91,2.59,2.59,0,0,1,1.74-1.62c.41-.09,1.17.86,1.62,1.46a10.58,10.58,0,0,0,2.35,2.77c-1.2-2.71-2.25-5.5-3.64-8.12a58.19,58.19,0,0,1-6.38-25.27c-.48-11.61-1.39-23.2-2-34.81a82.066,82.066,0,0,1,.25-8.29c.08-1.81,1.14-2.29,2.76-1.83s3.31,1.09,5,1.39c2.55.44,3-.12,2.42-2.63-1.21-5.26-2.15-10.53-1.28-16,.56-3.45,1.64-6.62,4.43-8.91,2.13-1.75,4-1.9,5.63-.6a6,6,0,0,0-6.86,2.92,17.2,17.2,0,0,0-2.23,5.17c-1.35,5.93-.37,11.79,1,17.59.59,2.5-.36,3.59-2.94,3.16a33.141,33.141,0,0,1-5.24-1.46c-1.36-.47-2-.05-2,1.31-.12,2.84-.43,5.69-.28,8.52.68,12.56,1.72,25.09,2.18,37.65.43,11.68,6.23,21.34,10.86,32.17a16,16,0,0,0,.71-2.74c.12-3.54.19-7.1.24-10.64.05-3.78-.44-7.64.16-11.33,2.41-14.9,5.34-29.73,6-44.85.57-12.57.82-25.13-1.7-37.56a21.221,21.221,0,0,1,1.37,4.05c2.41,18.17,1.54,36.29-1.2,54.35-1.32,8.66-2.95,17.28-4.26,25.95a45.7,45.7,0,0,0,.08,6.62c0,4.66,0,9.31-.21,14a8.931,8.931,0,0,1-1.09,2.94c2.35,6.79,4.76,13.37,6.88,20.05a27.72,27.72,0,0,1,.28,16.11h0Z" transform="translate(7481.478 636.65)"/>
    <path id="Path_230" data-name="Path 230" d="M465.09,486.37c-.56,3.23-.94,6.49-1.72,9.66-2.54,10.41-5.6,20.7-7.68,31.19-.81,4.09.49,8.58.72,12.89,0,.68,1.1,2.66-1.29,1.73l.05.06c-.18-3.76-1.47-7-4.89-8.89-2.81-1.55-5.64-1.13-8.73,1.46.48-1.87.69-3,1.07-4.08a22.2,22.2,0,0,0,.75-12.14c-1.29-6.34-2.54-12.69-3.82-19a2.77,2.77,0,0,0-.37-1.09c-4.74-6.73-4.43-14.09-2.69-21.62,1.23-5.36,2.83-10.67,3.63-16.1.54-3.7-.06-7.57-.08-11.36,0-2.29.64-2.65,2.75-1.81a9,9,0,0,1,5.49,6.16,92.329,92.329,0,0,1,3.1,35.65c-.72,6-2.61,8.54-7.88,12.18a7.49,7.49,0,0,0,6.12-4.55c1.06-2.44,2.27-3.78,5.15-3.51a18,18,0,0,0,5-1c-.26,1.4-.5,2.64-.73,3.88l-.28-.24q3.18-4.71,6.37-9.41C468.28,481.66,465.09,486.37,465.09,486.37ZM440.75,447.3c0,1.73-.08,3.13,0,4.53.48,7.23.19,14.34-2.54,21.22a30.54,30.54,0,0,0-1.78,7.1c-.9,6.57-.64,13,3.94,18.39,1.67,2,2.74,2.11,4.89.67a11.59,11.59,0,0,0,5.07-8.52,83.216,83.216,0,0,0,.59-15.54A196.652,196.652,0,0,0,448,454.8a8.93,8.93,0,0,0-7.25-7.5ZM455,537.38c0-3.64-.7-7.79.14-11.6,2.24-10.25,5.15-20.35,7.79-30.5.55-2.09,1.14-4.18,1.7-6.25l-.88-.41a31.069,31.069,0,0,0-3.2,6.06c-2.14,7.68-3.95,15.45-5.91,23.18-.21.84-.54,1.63-.82,2.45l-.74-.21,5.65-26.86a36.4,36.4,0,0,1-5.11.63c-1.48,0-2,.58-2.81,1.78a18,18,0,0,1-4.94,5.48c-1.25.81-3.44.15-5.13.15,1.05,10.2,6.39,20.27,1.89,31.24,6-2.17,8.47-1,12.37,4.87Z" transform="translate(7481.478 636.65)"/>
    <path id="Path_231" data-name="Path 231" d="M512.67,344.66c-5.19-1.1-9.24.62-13.31,2.4-.49.22-1.85-.49-2.17-1.11-6.91-13.32-14.51-26.31-19.28-40.65a67.989,67.989,0,0,0-3.81-7.88,10,10,0,0,1-.77-7.19l.77-.5,5.94,6.93c-.85-1.9-.64-3.34,1.34-4.39s3.48-1.53,5.24.44a35.85,35.85,0,0,0,4.79,3.8c-1.2-2.28-3-4.36-3.28-6.63s.87-4.76,1.4-7.15l1.19-.2c2.26,4.28,4.75,8.46,6.69,12.88,1.12,2.54,2.27,5.67,1.75,8.2-.84,4.15,1.62,7.59,1.26,11.54a86.677,86.677,0,0,0,.1,12.06c.64-3.67-.19-7.57,1.47-11.06l.77-.11ZM502.44,317.2h-.6V335l-.95.09a21.3,21.3,0,0,1-.52-2.85c-.24-5.21-.57-10.41-.58-15.62,0-6.44-1.63-12.21-6.33-16.81-2.42-2.36-5.15-4.4-7.55-6.78-1.87-1.85-3.34-.65-4.82.31s-.51,2.23.09,3.3c1.42,2.54,3.32,4.9,4.27,7.6,3,8.57,5.67,17.26,8.46,25.91.22.67.35,1.38.53,2.07l-.59.19c-.28-.68-.59-1.36-.83-2.06-2-6-4.29-11.91-5.89-18-2.1-8-6.6-14.43-12-20.41a10.719,10.719,0,0,0-1.15-1l-.66.29a47.731,47.731,0,0,0,1.57,6.23c.95,2.42,2.63,4.57,3.43,7,4.77,14.6,12.48,27.78,19.47,41.31a1.691,1.691,0,0,0,.39.53l13.26-3.3-9-25.83Zm-3.76-13.43c-.35-6.17-5.19-17.18-8.84-19.91-.44,2.14-.94,4.21-1.25,6.31a2.81,2.81,0,0,0,.61,1.93c3.07,3.88,6.23,7.69,9.47,11.67Z" transform="translate(7481.478 636.65)"/>
    <path id="Path_232" data-name="Path 232" d="M330.68,343.47,340.2,316c2.37,1.37,1.46,3.62,1.74,5.36a35.855,35.855,0,0,1,.06,5.58h.64c0-3.14-.19-6.3.05-9.43.27-3.58,1-7.14,1.37-10.72.1-.94-.52-1.95-.45-2.89a17,17,0,0,1,.94-5.57c2.34-5.06,5-10,7.56-14.94.13-.24.47-.37,1-.8,1.68,4.82,3.73,9.33-1.95,13.22l.84.33a28.4,28.4,0,0,0,4.17-3.24c1.65-1.86,3.2-1.81,5.2-.7s2.56,2.45,1.18,4.57c2.61-2.11,3.78-5.25,6.63-6.68l.89.31c-.33,2.17-.21,4.53-1.06,6.47-7.09,16.28-13.79,32.75-22.68,48.17-1.55,2.68-1.39,2.51-4.38,1.5C338.44,345.31,334.78,344.55,330.68,343.47Zm38.81-52.32-.81-.33c-3.94,5-8.77,9.44-10.87,15.8q-3.9,11.82-7.87,23.61c-.24.73-.55,1.44-.83,2.16l-.65-.26c.61-2,1.11-4.05,1.86-6,3.87-10.13,5.28-21.22,11.85-30.3.89-1.22.46-2.15-.81-2.9-1.65-1-3.13-1.44-4.59.33a11.78,11.78,0,0,1-2.18,1.81c-7.77,5.64-11.92,13-11.42,22.85a134.439,134.439,0,0,1-.57,14.19,16.519,16.519,0,0,1-.69,2.94l-.83-.11V317.2h-.57l-9.13,26.29a55.365,55.365,0,0,1,6.78.87,56.754,56.754,0,0,1,6.51,2.45c3.68-7.07,7.52-13.88,10.84-20.94,4.6-9.78,8.85-19.72,13.12-29.65a22.072,22.072,0,0,0,.86-5Zm-25.31,13.24c1.55-2.2,2.68-3.88,3.9-5.48s2.56-3.21,3.89-4.76c2.65-3.07,2.91-6.61.61-10.38-4,6.17-7.87,12.32-8.4,20.61Z" transform="translate(7481.478 636.65)"/>
    <path id="back5" d="M388.25,279.26l.45.77a6.72,6.72,0,0,0,5.87,5.35,68.067,68.067,0,0,0,8.08.06l-5.81,18.79c-4.85-2.36-10.47-15.43-11.1-27.5l2.36,2.15Z" transform="translate(7481.478 636.65)" fill="#fff"/>
    <path id="Path_234" data-name="Path 234" d="M400.9,444.22l-4.9,5.49c-2.06-5.17-5.6-9.63-1.06-14.58l1.61-1.81c.38-3.83.91-8.21,1.24-12.6.68-9.14,1.14-18.3,1.9-27.43.61-7.24,1.45-14.47,2.32-21.69a9.65,9.65,0,0,1,6.16-7.81c2.27-1.05,4.45-2.32,6.62-3.59,1.49-.87,2.41-.5,2.51,1.25.67,12.63,1.63,25.25.64,37.91-.71,9.13-.68,18.39-2.34,27.35-1.87,10.12-5.22,20-8,29.92a23.941,23.941,0,0,1-2.13,4.23l-.86-.22c-.07-.71-.19-1.41-.21-2.12-.11-3.56,0-7.13-.33-10.67-.29-3-2.49-5-4.85-6.68l-3.34-5.63c-5,4.22-1.41,8.33.37,12.73Zm15.93-84c-3,1.53-5.22,2.95-7.66,3.9a9.7,9.7,0,0,0-6.72,8.63c-1,10.15-2,20.29-2.83,30.44-.74,8.58-1.12,17.2-2,25.76a14.33,14.33,0,0,0,1.17,8.7,35.328,35.328,0,0,0,3.9,5.91,8.14,8.14,0,0,1,2.2,5.79c-.1,3.32,0,6.65,0,10l.68.1a21.188,21.188,0,0,0,1.3-2.72c1.69-5.25,3.52-10.47,4.93-15.8,2.51-9.46,4.89-19,5.09-28.86.14-7,.7-13.91.67-20.86,0-10.16-.43-20.33-.69-31Z" transform="translate(7481.478 636.65)"/>
    <path id="Path_235" data-name="Path 235" d="M381.72,490.93l2.72,5.61c-.26-1.43-.49-2.72-.73-4.08,2.68.31,5.36.53,8,1,.51.09,1,1.11,1.25,1.79a8.91,8.91,0,0,0,6.29,5.71l-3-2.81a1.061,1.061,0,0,1,.65.13c4.11,3.56,5.29,1.5,7.46-1.53a12,12,0,0,0,1-1.87c3.13-6.82,2.55-13.83.14-20.56a55.15,55.15,0,0,1-2.89-22.83c.1-1.3,0-2.62,0-4a8.33,8.33,0,0,0-7.17,6.95,112.487,112.487,0,0,0-2.71,15.36c-.82,9.67-2.4,19.55,3.56,28.41a15.741,15.741,0,0,1-2.69-3.69,31.149,31.149,0,0,1-2-8.23,105.79,105.79,0,0,1,2.87-31c.87-3.57,2.51-6.65,6.22-8.11,2-.77,2.65-.37,2.64,1.75,0,3.63-.58,7.31-.15,10.88a95.419,95.419,0,0,0,2.86,13.59c1.41,5.15,2.5,10.3,1.67,15.64a14.151,14.151,0,0,1-1.46,5.2c-3,4.85-3.44,10.38-4.67,15.71-.63,2.77-1,5.59-1.58,8.37a22.13,22.13,0,0,0,.68,11.91,9.72,9.72,0,0,1,.61,3.66l-1.29-1,.17-.26a6.12,6.12,0,0,0,0-1.91,23.94,23.94,0,0,1-.65-13.31c1.19-5.44,2.15-10.94,3.28-16.78-3.55,2.31-6.1.76-8.27-1.72a37.989,37.989,0,0,1-2.34-3.8,2.66,2.66,0,0,0-1.43-1.19c-2-.32-4-.44-6.11-.64l5.59,26.7-1,.21c-.48-2.11-.89-4.23-1.46-6.31-2.09-7.61-4.22-15.19-6.34-22.78Z" transform="translate(7481.478 636.65)"/>
    <path id="Path_236" data-name="Path 236" d="M455.32,238.35l5.4,9.23c1.14-2.69,2.24-2.83,4.35-.21l5.24,6.54,1.48,3.27a85.988,85.988,0,0,1,1.94,9.92c.28,3.29.49,6.82-2.45,9.38l.11-.09a17.9,17.9,0,0,1-4-2.2,21.13,21.13,0,0,1-6.21-11c-1,3.44-3,6.84-2.67,10,.52,5.83-.94,11.17-2.51,16.49a54.591,54.591,0,0,1-5.14,11.14,27.511,27.511,0,0,1-4.39,4.76l-6.94-21.81c5.84,1.91,11.92,2.68,15.59-4.62l-.69-.77a9.2,9.2,0,0,1-.85,1.76,8.212,8.212,0,0,1-1.6,1.4c-4.52,3.37-9.31,3.7-13.79.3a104.257,104.257,0,0,1-8.72-8.23l.24-.22c3,2.69,5.76,5.63,9,8,4.26,3.14,8.88,3.09,12.81-.45a21.551,21.551,0,0,0,6.06-8.25c4.12-11.64,4.74-23.26-2.47-34.19Zm6.05,16h.05v5a20.75,20.75,0,0,0,7,15.06c2.07,2,3.85,1.44,4.32-1.37a30,30,0,0,0,.42-6.13c-.37-7.66-4.19-13.78-8.91-19.46a6.52,6.52,0,0,0-1.93-1.07,6.54,6.54,0,0,0-.88,2.07c-.11,2,0,4,0,5.92Zm-14.7,49.81c5.31-2.87,12.09-19.55,11-28.33-3.34,8.29-8.69,12.08-17.05,9Z" transform="translate(7481.478 636.65)"/>
    <path id="Path_237" data-name="Path 237" d="M417.24,341.94c1.2,1.53,2.51,3,3.55,4.63a4.49,4.49,0,0,1-.35,5.36,49.572,49.572,0,0,1-7.52,8.07c-5.67,4.43-12.38,6.91-19.29,8.76-2.65.71-3.72-.32-3.31-3.1.83-5.65,1.37-11.27-.16-16.92-1-3.54-2.59-6.43-6.07-8-1.93-.87-1.87-2.2-1.16-3.9,2.81-6.66,6.89-12.23,13.25-15.94-6.89,1.19-9.48,7.49-13.48,12.1l-.72-.44a5.29,5.29,0,0,1-.28-1.93c1.17-4.91,2.13-9.89,3.73-14.66a13.29,13.29,0,0,1,9.3-8.75c3.52-1,6.59.13,8.08,3.45a51.656,51.656,0,0,1,2.12,7.2c.08.27,0,.75.13.79,2.56.86,2.22,3.42,3.12,5.24q3.87,7.84,7.76,15.66c.42.83.92,1.63,1.38,2.44a7.331,7.331,0,0,1-1.31-1.18A63.3,63.3,0,0,1,407,322.16c-.67-2.37-1.88-3.09-4.12-2.6-.46.11-.94.14-1.39.26-9.55,2.57-14.73,9.55-18.15,18.2-.2.51.67,1.86,1.35,2.22a12,12,0,0,1,6,7.83c1.7,5.79,1.13,11.57.43,17.4-.34,2.77.29,3.27,3,2.51a52.25,52.25,0,0,0,17.44-7.77,50.483,50.483,0,0,0,8-8c1.83-2.16,1.56-4.66-.25-7a31.676,31.676,0,0,1-2.07-3.27Zm-12.5-23.88c-.92-2.69-1.46-4.83-2.37-6.82a6,6,0,0,0-7.72-3.35h-.08a13.73,13.73,0,0,0-9.08,9.59c-1.28,4.29-2.11,8.73-3.1,13.11a3.41,3.41,0,0,0,.21,1.22l.53.49c4-9.52,11.83-13.1,21.61-14.27Z" transform="translate(7481.478 636.65)"/>
    <path id="Path_238" data-name="Path 238" d="M420.69,278a31.05,31.05,0,0,0-6.07-14.73c-3-4.28-5.88-8.63-9.05-12.76a45.17,45.17,0,0,1-8.86-20.14,23.381,23.381,0,0,0-3.31-8.24c-1.08-1.71-3.29-2.71-5.4-4.34,3.48-.89,6.74-1.65,9.95-2.55,4.33-1.22,8.61-.42,12.91.14a8.08,8.08,0,0,1,6.63,5.1A37.53,37.53,0,0,1,421,235.39c.14,12,.31,24,.35,36.05a53.091,53.091,0,0,1-.77,6.53Zm-31-59.82c4.81,3.06,6.53,5.19,7.53,11.16A46.26,46.26,0,0,0,406.71,251a105.9,105.9,0,0,1,6.56,9.3c2.32,3.65,4.39,7.47,6.57,11.22.19.32.37.66.75,1.35.09-.77.14-1.07.14-1.38-.09-11.94-.14-23.89-.3-35.83a37.17,37.17,0,0,0-3.56-14.9,7.47,7.47,0,0,0-5.61-4.63,40.39,40.39,0,0,0-21.6,2.07Z" transform="translate(7481.478 636.65)"/>
    <path id="Path_239" data-name="Path 239" d="M523.36,352.9a15.079,15.079,0,0,1-1.93-1.53c-5.78-6.48-12-7.53-19.44-3.09a3.58,3.58,0,0,0-1.23,2.46,27.72,27.72,0,0,0,4.67,18.9c1.81,2.67,3.18,5.63,4.85,8.41a11.252,11.252,0,0,0,2,1.92c.41-3.45-4-5.49-1.37-9.32,1.7,3.72,3.18,7,4.69,10.27.68,1.48,1.5,2.81,3.83,2.19a17.823,17.823,0,0,0-.74-2.46c-1.52-3.3-3.13-6.56-4.63-9.87a7.81,7.81,0,0,1-.34-2.09l.89-.27c.81,1.57,1.63,3.14,2.42,4.73,1.35,2.68,2.57,5.44,4.11,8,.54.91,1.85,1.35,2.81,2a8.791,8.791,0,0,0,0-3.39c-1.9-4.08-4.06-8-6.06-12.08a10.378,10.378,0,0,1-.56-2.26l.94-.32,3.42,6.8c-.21.18-.63.47-.6.53,1.21,2.48,2.43,5,3.72,7.4.73,1.39,1,2.88-.43,3.77s-2.68-.32-3.5-1.52a25.883,25.883,0,0,0-2-3,15.431,15.431,0,0,1,1,2.61,2.41,2.41,0,0,1-.29,1.89,2,2,0,0,1-1.9.26,8,8,0,0,1-2.53-2.6c-1.5-2.9-2.75-5.93-4.11-8.91l-.69.3c.78,1.69,1.67,3.35,2.3,5.08a7.121,7.121,0,0,1,0,2.48c-.8-.35-2-.48-2.33-1.09-3.35-6.14-7-12.18-9.6-18.65-1.3-3.24-.55-7.32-.58-11,0-.53.66-1.25,1.2-1.59,7.52-4.54,14.67-3.81,20.34,2.79C522.25,351.37,522.78,352.15,523.36,352.9Z" transform="translate(7481.478 636.65)"/>
    <path id="back12" d="M459,330.59a67.348,67.348,0,0,0-5.24-6.2,43.82,43.82,0,0,0-5.92-4l8.46,9.1-.25.23-1.7-2c-3.84-4.44-8.43-7.59-14.42-8.31a2.6,2.6,0,0,0-3.22,1.97,69.83,69.83,0,0,1-12.6,23.95,5,5,0,0,0-.36,6.56c1.82,2.45,4,4.66,6,7l-.22.25c-2.27-2.58-4.72-5-6.74-7.78-1.38-1.89-.88-4.1.56-6a72.28,72.28,0,0,0,12.94-24.6c.05-.15.06-.36.17-.43,2.95-1.9,2.22-5.4,3.45-8.05,2.54-5.49,5.79-6.8,10.69-4.49a14.47,14.47,0,0,1,8,9.26c1.3,4.46,2.22,9,3.26,13.57a5.7,5.7,0,0,1-.2,1.79l-.67.39-2-2.37,1.82,1.2c-1.21-7-1.22-14.22-6.08-20a11.83,11.83,0,0,0-7.71-4.23,4.61,4.61,0,0,0-2.86.56c-3.56,2.2-4.22,5.95-5.12,9.75,3.14.83,6.08,1.44,8.9,2.38A17.05,17.05,0,0,1,459,330.59Z" transform="translate(7481.478 636.65)"/>
    <path id="Path_241" data-name="Path 241" d="M471.79,257.17l-1.48-3.26-3-6.14c1.81.33,3.1.68,4.4.79,2.57.21,5.16.42,7.73.39,1.36,0,2.39.14,2.83,1.51,1.4,4.33,3,8.64,4,13.06.34,1.44-.73,3.21-1.16,4.87a16,16,0,0,1,1.89,3c1.95,5,1.8,10.21.9,15.42a2,2,0,0,1-.81,1.34c-4,1.49-8,2.68-12.2,1.31-.75-.24-1.3-1.09-1.94-1.67,4.19,2.36,8.44,1.8,12.66.14.68-.27,1.58-.95,1.69-1.58A26.9,26.9,0,0,0,486.19,271c-.25-.62-.65-1.44-1.18-1.64-3-1.15-6-2.14-9.27-3.26a37.261,37.261,0,0,1,0,3.81,13.629,13.629,0,0,1-.8,4.14c-1.75,3.94-5,4.49-8.13,1.53a2.79,2.79,0,0,0-1.48-.86l6.3,11.2c-.08,0-.2.05-.23,0-3.39-3.9-5.17-8.67-7.74-13l.68-.52a42.859,42.859,0,0,0,3.32,3c1.07.79,2.07,2.33,3.74,1l-.1.09c3-.84,3.61-3.26,3.8-5.86.14-1.92,0-3.86,0-6.11l5.77,3.07-1-1.56.87.2c1.29.31,3.25,1.27,3.73.78a5.14,5.14,0,0,0,1.07-4,86.754,86.754,0,0,0-2.26-8.66c-.92-3.33-2.39-5.37-6.56-4.61-2.49.45-5.25-.53-8.35-.93,3.58,5.82,5.07,12.53,11,16.38.28.18.4.6.6.91C476.05,264.19,473.77,260.82,471.79,257.17Z" transform="translate(7481.478 636.65)"/>
    <path id="Path_242" data-name="Path 242" d="M428.88,275l-3.26-1.77c-.8,2.67-1.71,5.15-2.24,7.71a29.05,29.05,0,0,0-.42,5.89q-.1,26.08-.14,52.16a3,3,0,0,0,.53,1.89,49,49,0,0,0,3.86-6.46c2.08-5,3.72-10.22,5.75-15.27A72.271,72.271,0,0,1,437.79,309c.93-1.57,3-2.43,4.36-3.76a3.59,3.59,0,0,0,1.18-2.36,31.75,31.75,0,0,0-7.37-19.1,43.2,43.2,0,0,1-2.63-3.78,33.71,33.71,0,0,1,10.78,23.5,2.64,2.64,0,0,1-1.24,2.15,9.18,9.18,0,0,0-5.69,5.4c-1.93,4.32-3.64,8.74-5.19,13.2-1.91,5.46-3.77,10.92-7.19,15.67-.36.52-.74,1-1.15,1.51a5.53,5.53,0,0,1-1.15.68,19.757,19.757,0,0,1-.41-2.76c.07-17.8.08-35.6.34-53.4a51.119,51.119,0,0,1,1.76-10.2,10.131,10.131,0,0,1,1.75-2.84Z" transform="translate(7481.478 636.65)"/>
    <path id="Path_243" data-name="Path 243" d="M371.61,286.21c1.05-2.08,2.07-4.18,3.15-6.24.91-1.74,1.88-3.46,3.14-5.77-.85.68-1.25.94-1.59,1.27-3.45,3.3-7.31,2.37-8.61-2.31a42.731,42.731,0,0,1-.73-7.32l-2,1c-1.43.66-2.83,1.77-4.29,1.87-3.12.21-4,2.09-4.71,4.63a29.41,29.41,0,0,0-.35,12.9,2.24,2.24,0,0,0,1.08,1.6c4.27,1.24,8.58,3,12.87,0,.1-.07.3,0,.46,0-1.84,2.68-4.79,2.28-7.34,2.21a23.841,23.841,0,0,1-6.58-1.77,2.07,2.07,0,0,1-1-1.42,28.12,28.12,0,0,1,.95-15.63,18.908,18.908,0,0,1,2.17-3.29,4.21,4.21,0,0,1-1.52-4.88c1.23-4.15,2.53-8.27,4-12.33a3.11,3.11,0,0,1,2.14-1.71c3.8-.48,7.62-.72,11.44-1h1.19l-2.67,6.19-.21.11-.63-.21,2.29-4.82c-3.94.12-7.75.2-11.56.4a1.92,1.92,0,0,0-1.34,1.09c-1.42,4.39-2.84,8.79-4,13.26a3.44,3.44,0,0,0,1.14,3,3.64,3.64,0,0,0,3.14-.46c2.21-1.47,4.21-3.24,6.29-4.89l-5.43,5.67,5.42-2.8c0,2.33-.13,4.36,0,6.37.21,2.5,1,4.77,3.79,5.56l-.08-.05c1.58,1.33,2.57-.15,3.58-.89a28.079,28.079,0,0,1,3.76-2.84,69,69,0,0,1-7.36,13.5Z" transform="translate(7481.478 636.65)"/>
    <path id="Path_244" data-name="Path 244" d="M317.4,355.61c1.7-2.07,3.26-4.26,5.12-6.18,5.72-5.89,12.79-5.53,19.36-1.39a3,3,0,0,1,1,2.19c.42,7-.5,13.64-4.71,19.59-1.8,2.56-3.11,5.48-4.67,8.22a3.94,3.94,0,0,1-1.13,1.49,8.589,8.589,0,0,1-2.09.65c-.07-.7-.39-1.51-.16-2.09.72-1.86,1.65-3.64,2.5-5.44l-.66-.32q-1.48,3.21-3,6.4a13.779,13.779,0,0,1-1.92,3.76,4.19,4.19,0,0,1-3.35,1.26c-1.57-.45-.71-1.9-.29-3a7.4,7.4,0,0,0,.26-1c-1.79,1.48-1.76,5.24-5.34,3.65l.23-.24c2.07.47,2.81-1,3.53-2.45,2.07-4.05,4.09-8.13,6.12-12.2l.87.17a7.629,7.629,0,0,1-.28,2.18c-1.5,3.31-3.11,6.57-4.63,9.87a14.18,14.18,0,0,0-.66,2.42c2.22.55,3-.64,3.7-2.08,1.53-3.32,3-6.65,4.84-10.56,2.34,4-1.7,6.07-1.47,9.58a13.271,13.271,0,0,0,2.1-2.07c1.67-2.79,3-5.76,4.85-8.42a28.28,28.28,0,0,0,4.65-19.13,3.09,3.09,0,0,0-1.07-2.09c-7-4.48-13.75-3.51-19.31,2.69-1.41,1.58-2.8,3.19-4.2,4.78Z" transform="translate(7481.478 636.65)"/>
    <path id="Path_245" data-name="Path 245" d="M388.1,278.88l-2.35-2.15c.62,12.07,6.24,25.14,11.09,27.51l5.81-18.8a68.073,68.073,0,0,1-8.08-.06A6.71,6.71,0,0,1,388.7,280c3.92,6.21,9.45,5.84,15.31,3.74l-7,21.92a50.476,50.476,0,0,1-4.57-5.12,46.11,46.11,0,0,1-7-20.19c-.3-2.3-1.66-4.62-.2-7,.18-.28-.36-1-.54-1.51a43.36,43.36,0,0,1-.69-26.07,20.32,20.32,0,0,1,7.89-11.22l.22.24c-.53.57-1.06,1.15-1.61,1.71-3.48,3.52-6.22,7.66-6.78,12.51-1.16,10.13-1.3,20.25,5,29.15Z" transform="translate(7481.478 636.65)"/>
    <path id="Path_246" data-name="Path 246" d="M429.83,361.44l-3-1.11c-2,33.77-2.63,67.17,10.83,99h.82a69.926,69.926,0,0,0,0-8.06c-.54-4.63,1.83-7.73,4.88-10.6a19.929,19.929,0,0,1-2.1,3.29,7.23,7.23,0,0,0-2.09,5.34c0,3-.05,6-.1,9,0,.75-.1,1.49-.16,2.24l-.74.31a19.182,19.182,0,0,1-2-3.34q-2.7-8.06-5.19-16.2c-4.45-14.57-5.28-29.57-5.78-44.69-.39-11.64.31-23.19.88-34.77a7,7,0,0,1,.82-2.05Z" transform="translate(7481.478 636.65)"/>
    <path id="Path_247" data-name="Path 247" d="M387.85,542c.88-1.65,1.85-3.25,2.62-4.95a6.82,6.82,0,0,1,6.68-3.91,4.79,4.79,0,0,1,4.86,4.35,61.612,61.612,0,0,1,.31,10.07c0,3.93-.17,7.86-.46,11.77-.19,2.57-.74,5.11-1.15,7.66a3.47,3.47,0,0,1-3.62,3.07c-5.31.32-10.36.24-13.92-4.91-1.09-1.57-3.37-2.44-5.25-3.33s-4.13-1.18-6-2.18c-4.7-2.57-5.25-8.16-1.27-11.25a6.539,6.539,0,0,1-.44,1c-2.73,4.13-1.66,8,2.85,10.09a26.625,26.625,0,0,0,4.27,1.39,12.61,12.61,0,0,1,7.48,5,5.69,5.69,0,0,0,3,2.41,55.856,55.856,0,0,0,9.57.89,3.34,3.34,0,0,0,2.41-2,54.627,54.627,0,0,0,1.25-8.35c.26-3.12.29-6.27.35-9.41a94.216,94.216,0,0,0,0-11.52,4.35,4.35,0,0,0-4.44-4.15,6.29,6.29,0,0,0-6,3.76c-1.15,2.5-2.46,4.93-3.71,7.39a2.52,2.52,0,0,1-2.89,1.38c-4.75-.39-9.61-1.07-13.8,2.19,1.57-2.45,4.06-3.07,6.7-3.16,2-.07,4.09.16,6.12.26,2.95.13,3.61-.4,4.43-3.54Z" transform="translate(7481.478 636.65)"/>
    <path id="Path_248" data-name="Path 248" d="M455.12,541.84c1.82,4,1.85,3.93,6.19,3.7a34,34,0,0,1,6.38,0,8.91,8.91,0,0,1,7.65,7.62c.21,3.32-2.21,6.26-6.31,7.61a19.1,19.1,0,0,0-3.62,1.09,23.4,23.4,0,0,0-5.85,4.11c-3.07,3.46-11.08,5.65-15.15,3.59a2.93,2.93,0,0,1-1.4-1.74,58.666,58.666,0,0,1-1.47-8.09q-.63-7.65-.75-15.32a30.12,30.12,0,0,1,.75-7.45,4.6,4.6,0,0,1,4.83-3.78c2.71.08,5.17.8,6.42,3.59.78,1.72,1.59,3.42,2.39,5.13Zm-12.4,16h-.48a32.008,32.008,0,0,0,0,3.79c1,8.19,1.73,8.18,8.85,7.73,2.59-.16,5.4-.41,7-2.84a13.54,13.54,0,0,1,9.05-5.92,14.8,14.8,0,0,0,3.12-1.09c5.29-2.46,6-8.08,1.3-11.52a11.12,11.12,0,0,0-5.19-1.9c-2.49-.27-5.05.18-7.57.07a3.61,3.61,0,0,1-2.63-1.25,79.372,79.372,0,0,1-3.86-7.58,6.35,6.35,0,0,0-6.12-3.58,4.42,4.42,0,0,0-4.27,4.08,51.255,51.255,0,0,0-.27,8.93c.18,3.68.68,7.36,1.05,11Z" transform="translate(7481.478 636.65)"/>
    <path id="Path_249" data-name="Path 249" d="M443.29,440.74a8.619,8.619,0,0,1,.46-1.29,17.15,17.15,0,0,0,2.1-10.4c-1.13-10.66-1.63-21.39-2.52-32.08-.68-8.18-1.59-16.34-2.4-24.5a11.27,11.27,0,0,0-4-7.27c3,.94,3.9,3.53,4.4,6.14a92.008,92.008,0,0,1,1.39,10.58c.76,10.33,1.31,20.67,2.08,31,.39,5.35,1.35,10.69,1.5,16,.1,3.72,2.23,6.3,3.82,9.21a4.64,4.64,0,0,1,.12,4.88c-1,1.94-1.72,4-2.7,6.35l-1.41-1.52c.54-.27,1.29-.4,1.57-.84.56-.85.68-2,1.27-2.78,2.58-3.56.53-6.24-1.37-9l-4.55,9.26,3.15,3.41c-.94-.67-1.86-1.35-2.82-2-1.25-.84-1.27-1.8-.45-3,.51-.74.91-1.56,1.47-2.53Z" transform="translate(7481.478 636.65)"/>
    <path id="Path_250" data-name="Path 250" d="M420.62,278c1.6,21.28.2,42.56.83,63.84l-.92.22L419,340.19l.26-.24,1.36,1.11v-6.2q0-25.5-.11-51a21.78,21.78,0,0,0-2.92-10.6l-2.6,1.89-.25-.24,2.89-2c.58.86,1.21,1.7,1.75,2.6s.89,1.72,1.33,2.59Z" transform="translate(7481.478 636.65)"/>
    <path id="Path_251" data-name="Path 251" d="M368.8,228.22c0,.23.07.53-.05.68-3.85,4.78-4.89,10.48-5.49,16.36-.18,1.7.25,2.17,1.91,2.33a18.94,18.94,0,0,0,15.3-4.87c4.32-3.91,8.68-7.79,12.93-11.79a3,3,0,0,0,.79-2.44,11.47,11.47,0,0,0-6.65-8.41,7.23,7.23,0,0,0-4.53-.14,35.15,35.15,0,0,0-12.82,7.4c1.62-3.42,12.26-9.12,15.86-8.49,4.14.72,8.89,6.17,8.86,10.32a3.42,3.42,0,0,1-1,2.21c-4,3.76-8.23,7.37-12.25,11.16A20.34,20.34,0,0,1,365,248.28c-1.83-.17-2.81-.85-2.36-2.83.9-4.07,1.59-8.2,2.81-12.17C366,231.42,367.65,229.89,368.8,228.22Z" transform="translate(7481.478 636.65)"/>
    <path id="Path_252" data-name="Path 252" d="M467.34,222.81l-5.62-2.29c-4.42-1.79-6.94-1.24-10.06,2.37a15.171,15.171,0,0,0-2.19,3.36c-1.52,3.18-1.15,3.58,1.56,5.85,3.55,3,6.91,6.23,10.22,9.5a19.12,19.12,0,0,0,17,5.85c.55-.08,1.45-1,1.42-1.48-.44-6.54-1.67-12.86-6.24-18a9.559,9.559,0,0,1,1.92,1.5c3.83,5,4.63,11,4.94,17,0,.51-1.07,1.48-1.75,1.59a19,19,0,0,1-16.07-4.52c-1.73-1.5-3.23-3.26-4.94-4.79-2.63-2.37-5.27-4.75-8-7a3.09,3.09,0,0,1-1.4-3.44,12.66,12.66,0,0,1,7.73-9.24,4.46,4.46,0,0,1,3-.22C461.7,220.08,464.5,221.49,467.34,222.81Z" transform="translate(7481.478 636.65)"/>
    <path id="Path_253" data-name="Path 253" d="M387.86,542h0c-.32-.42-.93-.84-.92-1.24a23.322,23.322,0,0,1,.481-4.714,30.83,30.83,0,0,0-.811-15.456c-2.47-9.15-5-18.27-7.49-27.42a25.379,25.379,0,0,1-.87-4.4,5.14,5.14,0,0,1,.69-2h.14l.79.92,1.85,3.24-.25.21-2-2.67-.64.57c.09.46.14.92.27,1.37,1.52,5.22,3.33,10.38,4.53,15.67,2.38,10.44,7.08,20.6,4.07,32.11,5.31-6.93,8.37-8.22,12.51-5.51l-.16.26c-5.4-1.86-9.49.19-11.27,5.66C388.4,539.72,388.16,540.88,387.86,542Z" transform="translate(7481.478 636.65)"/>
    <path id="back19" d="M400.9,444.22l-4.71,4c-1.78-4.41-5.37-8.52-.37-12.74l3.34,5.64Z" transform="translate(7481.478 636.65)" fill="#fff"/>
    <path id="Path_255" data-name="Path 255" d="M419,340.18c-2-4-4.24-7.87-6-12S410.21,320,408.63,316a49.5,49.5,0,0,0-3.57-6.9,8.22,8.22,0,0,0-2.47-2.51c-3.57-2.4-3.63-2.36-2.8-6.84a34.83,34.83,0,0,1,8.81-18.26c2.07-2.16,4.07-4.38,6.1-6.58l.26.24c-2.58,3-5.27,5.89-7.72,9A34,34,0,0,0,400,304.77c3.68.89,5.7,3.43,7.15,6.4a78,78,0,0,1,3.42,8.31c2.51,7,4.46,14.18,8.63,20.45Z" transform="translate(7481.478 636.65)"/>
    <path id="Path_256" data-name="Path 256" d="M372.53,254.27l.21-.11c1.76-2.32,3.42-4.71,5.32-6.91a9.52,9.52,0,0,1,2.88-1.58,9.18,9.18,0,0,1,1.16,2.89q.18,5.92,0,11.84c-.22,6-3.07,10.68-7.33,14.61a10.93,10.93,0,0,1-3.16,1.41l.09.05-.58-1c1.15-.37,2.58-.42,3.38-1.15a19.79,19.79,0,0,0,7-13.82c.21-4,.14-8.06.08-12.09a6.09,6.09,0,0,0-.85-2.08c-.65.34-1.55.5-1.92,1a69,69,0,0,0-6.54,10.11c-2.65,5.76-3.64,11.88-1,18.07a15.9,15.9,0,0,1-1.79-3.77c-.88-5,.39-9.77,1.84-14.5Z" transform="translate(7481.478 636.65)"/>
    <path id="Path_257" data-name="Path 257" d="M460.53,339.69c-.14.19-.24.47-.42.55-6.23,2.68-7.41,8.28-7.72,14.06a84,84,0,0,0,.72,11.54c.19,2.32-.65,3.56-2.61,3.05-7.6-2-14.9-4.65-21.06-9.72l.22-.25c.54.32,1.09.63,1.61,1A60.16,60.16,0,0,0,449.36,368c2.67.75,3.24.23,3-2.6a67.811,67.811,0,0,1-.7-6.83c.07-7.6.05-15.31,8.65-19.07Z" transform="translate(7481.478 636.65)"/>
    <path id="Path_258" data-name="Path 258" d="M388.11,278.88l.7-.73c.34.33.68.66,1,1,5,5.31,10.49,6,16.22,1.56a63.391,63.391,0,0,0,7.8-7.57c2.53-2.79,2.44-3.43.39-6.65l-10-15.57.27-.23c3.76,5.73,7.54,11.44,11.25,17.2a3.32,3.32,0,0,1-.44,4.37,95.646,95.646,0,0,1-9.78,9.53c-5,3.85-10.57,3.13-15.26-1.19a14.64,14.64,0,0,0-2-1.34,2.5,2.5,0,0,1-.15-.38Z" transform="translate(7481.478 636.65)"/>
    <path id="Path_259" data-name="Path 259" d="M444.31,175.35l-4.13-1.86c-.16-2.64-.11-5.72-.57-8.72-2.21-14.37-17.23-20.49-28.93-11.86a5.41,5.41,0,0,1-.61.36,15,15,0,0,1,2.56-2.48c11.67-6.92,26.22.72,27.79,14.55a22.756,22.756,0,0,1,.2,2.6c0,2.78-.44,5.73,3.33,6.62C444.12,174.6,444.19,175.08,444.31,175.35Z" transform="translate(7481.478 636.65)"/>
    <path id="back10" d="M456.12,310.83,454,308.74l-3.71-3.07,4.76-5.74c.84,3.85,1.54,7,2.16,10.23C457.28,310.3,456.51,310.59,456.12,310.83Z" transform="translate(7481.478 636.65)" fill="#fff"/>
    <path id="Path_261" data-name="Path 261" d="M521.63,371.83l4,5.83.79-.17a8.179,8.179,0,0,0-.29-2.74q-3.06-6.25-6.36-12.39c-.77-1.42-.68-2.35.94-2.86,4.32,3.34,9.78,3.85,11.69,1.19l-7.24-5c2.41,1.27,4.86,2.47,7.2,3.86a2.08,2.08,0,0,1,.4,1.84c-1,.75-2.36,1.91-3.36,1.71a73.331,73.331,0,0,1-8.46-2.64,5,5,0,0,0-1.09,0,16.662,16.662,0,0,0,.72,1.89c1.78,3.43,3.63,6.84,5.38,10.28a12.79,12.79,0,0,1,1.31,3.54,2.42,2.42,0,0,1-1,1.89c-.28.21-1.44-.24-1.71-.68C523.5,375.6,522.6,373.69,521.63,371.83Z" transform="translate(7481.478 636.65)"/>
    <path id="Path_262" data-name="Path 262" d="M321.39,372c-.93,1.73-1.75,3.52-2.83,5.15-.36.54-1.36.67-2.07,1-.28-.75-.86-1.56-.75-2.26a11.39,11.39,0,0,1,1.29-3.29c1.69-3.3,3.46-6.57,5.18-9.86.33-.64.58-1.33.89-2.08-3.06.88-5.76,1.77-8.53,2.4a5.18,5.18,0,0,1-3.15-.39,3.69,3.69,0,0,1-1.56-2.15c-.08-.28,1-1,1.63-1.4,1.95-1.18,3.94-2.3,5.91-3.45l.22.23-7.1,4.84c1.91,2.71,7.18,2.22,11.72-1.18,1.64.55,1.65,1.5.89,2.91-2.2,4.1-4.34,8.24-6.38,12.43a7.32,7.32,0,0,0-.19,2.68l.82.13,3.81-5.87Z" transform="translate(7481.478 636.65)"/>
    <path id="Path_263" data-name="Path 263" d="M440.16,248l.58-.57a23.56,23.56,0,0,0,5.46-11.77c.79-3.76,1.8-4.23,4.7-1.83a56.871,56.871,0,0,1,4.42,4.5l-.26.23c-1.75-1.59-3.44-3.23-5.25-4.74-1.37-1.14-2.29-.94-2.79,1a31.107,31.107,0,0,1-2.69,8.26c-3.69,6.22-7.83,12.17-11.79,18.24l-.25-.22c2.25-3.61,4.52-7.2,6.75-10.82A20.123,20.123,0,0,0,440.16,248Z" transform="translate(7481.478 636.65)"/>
    <path id="Path_264" data-name="Path 264" d="M390.17,301.57l3.86,4.06c-2.35,2-4.5,3.93-6.72,5.76a1.35,1.35,0,0,1-1.26.19,1.71,1.71,0,0,1-.62-1.35c.62-3.17,1.31-6.32,2.05-9.45.09-.38.59-.66.9-1l1.86,1.85-2.05-1.16c-.77,3.56-1.52,7-2.26,10.4l.54.2,6.41-5.32Z" transform="translate(7481.478 636.65)"/>
    <path id="Path_265" data-name="Path 265" d="M318.34,383.38c-.09-1.13-.58-2.42-.2-3.36,1.05-2.59,2.47-5,3.71-7.56,0-.08-.3-.34-.46-.51l-.2-.17,3.57-6.66.89.36a12.67,12.67,0,0,1-.64,2.34c-2,4-4.13,8-6.05,12a10.63,10.63,0,0,0-.38,3.32Z" transform="translate(7481.478 636.65)"/>
    <path id="Path_266" data-name="Path 266" d="M456.12,310.83c.39-.23,1.16-.52,1.13-.67-.62-3.2-1.32-6.38-2.16-10.23l-4.76,5.74,3.71,3.07-4.91-2.67,6-7.09c.54,1.55.89,2.38,1.1,3.24.61,2.52,1.21,5,1.68,7.59.11.55-.36,1.22-.55,1.84Z" transform="translate(7481.478 636.65)"/>
    <path id="Path_267" data-name="Path 267" d="M391.94,234.55a21.74,21.74,0,0,1,2.2-1.73c1.26-.76,2.44-.54,2.69,1a39.47,39.47,0,0,0,7.69,16.84l-.27.23a30.57,30.57,0,0,1-7.37-14.2c-1-4.88-1.26-4-4.72-1.93Z" transform="translate(7481.478 636.65)"/>
    <path id="Path_268" data-name="Path 268" d="M429.45,273.69c-2.76-2.81-2.92-4-.88-7.14,1.2-1.83,2.47-3.62,3.71-5.42l.25.22a36,36,0,0,1-2.72,4.39c-2.16,2.62-2.54,5.12-.13,7.73Z" transform="translate(7481.478 636.65)"/>
    <path id="Path_269" data-name="Path 269" d="M456.26,329.5c1.52,2.74,3.08,5.45,4.49,8.24.25.49-.14,1.29-.22,1.95l-.23-.21a12.433,12.433,0,0,0-.63-2.68c-1.15-2.39-2.43-4.72-3.66-7.07Z" transform="translate(7481.478 636.65)"/>
    <path id="back2" d="M422.75,272.05c0-6-.13-12,0-18,.2-8.05.46-16.12,1.05-24.15a33.57,33.57,0,0,1,2.25-7.93c1.33-4,4.28-5.85,8.37-6.22a39.94,39.94,0,0,1,19.47,2.58c-6.2,2.78-7.3,8.46-8.3,14.06a43.63,43.63,0,0,1-8.69,18.72c-3.66,4.88-7.17,9.85-10.6,14.87a57.946,57.946,0,0,0-3.18,6Z" transform="translate(7481.478 636.65)" fill="#fff"/>
    <path id="bNeck" d="M435.29,207.61a24.659,24.659,0,0,0,2.79,2.9,45,45,0,0,1,4.47,3.28h-4.82c-9.31-.12-12.69,2.42-15.22,11.46l-.47,1.67c-.58-1.73-.91-3-1.39-4.16-2.45-6-5.74-9.37-13.08-9a27.181,27.181,0,0,1-6.24-.39c1.36-.83,2.71-1.72,4.1-2.5a8,8,0,0,0,4.27-6.68c.25-3.31.38-6.64.88-9.91.42-2.73,1.31-5.4,2-8.1l1.2.21L412,203.49l.64.12q1.29-7.12,2.57-14.26a15.079,15.079,0,0,0,.11-1.65c.17-2.09-.12-4.33,2.67-5.17a10.41,10.41,0,0,1,9.5,1c.46.32.62,1.24.72,1.91.61,4.06,1.17,8.13,1.76,12.2a2.26,2.26,0,0,0,.91,1.62l-1-12.94c2.49,3.16,3.11,6.82,3.35,10.58.16,2.52.22,5.06.59,7.56a12.4,12.4,0,0,0,1.53,3.2Z" transform="translate(7481.478 636.65)" fill="#fff"/>
    <path id="Path_333" data-name="Path 333" d="M431.5,184.8l.36,2,.69-.7a28.831,28.831,0,0,1-4.29-2.9c-2.56-2.48-10.47-2.76-12.52,0-.95,1.3-.9,3.33-1.24,4.76a25.467,25.467,0,0,1-.65-3.57,2.36,2.36,0,0,1,1-1.58,11.88,11.88,0,0,1,15.7,1.24,8.081,8.081,0,0,0,1.05.8Z" transform="translate(7481.478 636.65)" fill="#fff"/>
    <path id="back15" d="M384.89,448.88a89.788,89.788,0,0,1-.26-11.94,65.86,65.86,0,0,0-1.28-19.3c-3.67-19.31-6-38.75-5.07-58.46.24-4.89.89-9.76,1.44-14.62.26-2.25,1.43-3.1,3.41-2a12.11,12.11,0,0,1,4.57,4.16c2.68,4.51,2.3,9.59,1.75,14.56-.27,2.43-.91,4.81-1.4,7.21-.42,2.07.31,3.11,2.44,2.85a26.56,26.56,0,0,0,5.48-1.4c1.64-.58,2.44-.22,2.41,1.57-.09,6.07,0,12.16-.32,18.23-.42,9.08-1.14,18.14-1.63,27.22a50.35,50.35,0,0,1-4.34,18.34c-2,4.53-4.17,9-6.26,13.52Z" transform="translate(7481.478 636.65)" fill="#fff"/>
    <path id="back18" d="M463.24,342.34c2.52,12.43,2.27,25,1.7,37.56-.69,15.12-3.62,30-6,44.85-.6,3.69-.11,7.55-.16,11.33-.05,3.55-.12,7.1-.24,10.64a16,16,0,0,1-.71,2.74c-4.63-10.83-10.43-20.49-10.86-32.17-.46-12.56-1.5-25.09-2.18-37.65-.15-2.83.16-5.68.28-8.52.06-1.36.66-1.78,2-1.31a32.725,32.725,0,0,0,5.23,1.46c2.58.43,3.53-.66,2.94-3.16-1.37-5.81-2.35-11.66-1-17.59a17.2,17.2,0,0,1,2.23-5.17,6,6,0,0,1,6.86-2.93Z" transform="translate(7481.478 636.65)" fill="#fff"/>
    <path id="back23" d="M440.75,447.3a8.93,8.93,0,0,1,7.25,7.51,196.641,196.641,0,0,1,2.93,20.35,83.362,83.362,0,0,1-.59,15.55,11.57,11.57,0,0,1-5.07,8.51c-2.15,1.44-3.22,1.3-4.89-.67-4.58-5.42-4.84-11.82-3.94-18.39a30.541,30.541,0,0,1,1.78-7.1c2.73-6.88,3-14,2.54-21.22C440.67,450.43,440.75,449,440.75,447.3Z" transform="translate(7481.478 636.65)" fill="#fff"/>
    <path id="back27" d="M455,537.39c-3.9-5.92-6.39-7-12.38-4.88,4.51-11-.84-21-1.89-31.23,1.69,0,3.89.66,5.14-.15a18.241,18.241,0,0,0,4.94-5.48c.78-1.2,1.32-1.81,2.81-1.78a36.447,36.447,0,0,0,5.1-.63l-5.64,26.86.74.21c.27-.82.61-1.62.82-2.45,1.95-7.73,3.77-15.5,5.9-23.18a31.618,31.618,0,0,1,3.2-6.06l.89.4c-.57,2.09-1.16,4.17-1.7,6.26-2.65,10.15-5.55,20.25-7.8,30.49C454.34,529.59,455,533.74,455,537.39Z" transform="translate(7481.478 636.65)" fill="#fff"/>
    <path id="bArm11" d="M502.44,317.2l9,25.83-13.26,3.25a1.62,1.62,0,0,1-.39-.52c-7-13.54-14.7-26.72-19.47-41.31-.8-2.45-2.48-4.6-3.43-7a47.865,47.865,0,0,1-1.57-6.24l.66-.28a9.59,9.59,0,0,1,1.15,1c5.39,6,9.9,12.4,12,20.41,1.59,6.1,3.89,12,5.89,18,.24.69.56,1.37.83,2.05l.59-.19c-.18-.7-.31-1.4-.53-2.07-2.78-8.65-5.45-17.34-8.46-25.91-.95-2.7-2.85-5.06-4.27-7.6-.6-1.06-1.65-2.27-.09-3.29s3-2.17,4.82-.32c2.4,2.38,5.13,4.43,7.55,6.79,4.7,4.59,6.31,10.36,6.33,16.8,0,5.21.34,10.41.58,15.62a21,21,0,0,0,.52,2.85l.95-.08V317.2Z" transform="translate(7481.478 636.65)" fill="#fff"/>
    <path id="bArm12" d="M498.67,303.76c-3.24-4-6.4-7.79-9.49-11.66a2.84,2.84,0,0,1-.6-1.93c.31-2.1.81-4.16,1.25-6.31C493.48,286.59,498.33,297.6,498.67,303.76Z" transform="translate(7481.478 636.65)" fill="#fff"/>
    <path id="bArm10" d="M369.49,291.15a21.561,21.561,0,0,1-.88,5c-4.26,9.93-8.51,19.87-13.11,29.65-3.32,7.06-7.16,13.88-10.85,20.94a57.219,57.219,0,0,0-6.51-2.45,55.125,55.125,0,0,0-6.78-.87l9.14-26.28h.57v17.73l.83.12a16.519,16.519,0,0,0,.69-2.94,134.629,134.629,0,0,0,.57-14.2c-.49-9.87,3.66-17.2,11.41-22.84a11.921,11.921,0,0,0,2.19-1.81c1.47-1.77,2.95-1.3,4.59-.33,1.27.75,1.7,1.67.81,2.9-6.57,9.08-8,20.17-11.85,30.3-.74,1.95-1.25,4-1.86,6l.65.26c.27-.72.59-1.43.83-2.15q3.94-11.82,7.87-23.62c2.1-6.36,6.93-10.75,10.87-15.8Z" transform="translate(7481.478 636.65)" fill="#fff"/>
    <path id="bArm9" d="M344.18,304.38c.53-8.3,4.37-14.44,8.41-20.61,2.3,3.77,2,7.31-.61,10.38-1.34,1.55-2.66,3.13-3.9,4.76S345.74,302.19,344.18,304.38Z" transform="translate(7481.478 636.65)" fill="#fff"/>
    <path id="back16" d="M416.82,360.18c.26,10.64.65,20.81.69,31,0,6.95-.53,13.9-.67,20.86-.2,9.89-2.59,19.39-5.09,28.86-1.41,5.33-3.24,10.55-4.94,15.8a21,21,0,0,1-1.29,2.71l-.69-.09c0-3.33-.07-6.66,0-10a8.21,8.21,0,0,0-2.2-5.79,35.331,35.331,0,0,1-3.9-5.91,14.28,14.28,0,0,1-1.17-8.71c.91-8.55,1.29-17.17,2-25.75.86-10.16,1.85-20.3,2.83-30.44a9.7,9.7,0,0,1,6.72-8.63A82.706,82.706,0,0,0,416.82,360.18Z" transform="translate(7481.478 636.65)" fill="#fff"/>
    <path id="back22" d="M396.32,498.23c-5.95-8.86-4.37-18.74-3.56-28.41a112.477,112.477,0,0,1,2.71-15.36,8.33,8.33,0,0,1,7.17-6.95c0,1.37.08,2.69,0,4a55,55,0,0,0,2.89,22.83c2.41,6.72,3,13.73-.15,20.56a12,12,0,0,1-1,1.87c-2.17,3-3.35,5.09-7.46,1.53-.14-.13-.43-.09-.65-.13Z" transform="translate(7481.478 636.65)" fill="#fff"/>
    <path id="back25" d="M400.2,532.68c-4.14-2.71-7.2-1.42-12.51,5.51,3-11.51-1.7-21.67-4.07-32.11-1.21-5.29-3-10.45-4.53-15.67-.13-.45-.18-.91-.27-1.37l.64-.57,2,2.67c2.12,7.6,4.26,15.18,6.34,22.78.57,2.08,1,4.21,1.46,6.32l1-.22-5.6-26.7c2.1.21,4.12.33,6.12.65a2.66,2.66,0,0,1,1.42,1.18,38.082,38.082,0,0,0,2.35,3.8c2.17,2.49,4.71,4,8.26,1.73-1.13,5.83-2.09,11.33-3.28,16.78a23.9,23.9,0,0,0,.65,13.3A6.181,6.181,0,0,1,400.2,532.68Z" transform="translate(7481.478 636.65)" fill="#fff"/>
    <path id="back4" d="M429.68,273.47c-2.41-2.61-2-5.11.13-7.73a36,36,0,0,0,2.72-4.39c4-6.06,8.11-12,11.79-18.23a31.74,31.74,0,0,0,2.7-8.26c.5-2,1.42-2.16,2.78-1,1.81,1.5,3.51,3.15,5.25,4.73,7.21,10.93,6.59,22.55,2.47,34.2a21.71,21.71,0,0,1-6.06,8.25c-3.93,3.53-8.55,3.59-12.81.44C435.44,279.1,432.66,276.16,429.68,273.47Z" transform="translate(7481.478 636.65)" fill="#fff"/>
    <path id="bArm5" d="M461.37,254.34c0-2-.07-4,.05-5.93a6.479,6.479,0,0,1,.88-2.06,6.31,6.31,0,0,1,1.93,1.07c4.73,5.67,8.54,11.8,8.9,19.45a29.222,29.222,0,0,1-.41,6.13c-.48,2.81-2.26,3.36-4.32,1.37a20.69,20.69,0,0,1-7-15.05v-5Z" transform="translate(7481.478 636.65)" fill="#fff"/>
    <path id="back6" d="M446.67,304.14l-6-19.3c8.36,3.05,13.7-.74,17.05-9C458.76,284.59,452,301.27,446.67,304.14Z" transform="translate(7481.478 636.65)" fill="#fff"/>
    <path id="Path_348" data-name="Path 348" d="M479.85,266l1,1.55-5.77-3.06c0,2.24.12,4.19,0,6.11-.19,2.59-.82,5-3.8,5.86,2.94-2.56,2.73-6.09,2.45-9.38a88.256,88.256,0,0,0-2-9.92c2,3.64,4.27,7,8.14,8.92Z" transform="translate(7481.478 636.65)" fill="#fff"/>
    <path id="back13" d="M417.24,341.94a31.4,31.4,0,0,0,2,3.33c1.81,2.3,2.07,4.8.24,7a50,50,0,0,1-8,8A52.14,52.14,0,0,1,394.09,368c-2.72.76-3.35.26-3-2.51.71-5.83,1.28-11.61-.43-17.4a12,12,0,0,0-6-7.83c-.68-.36-1.55-1.71-1.35-2.22,3.41-8.65,8.6-15.63,18.15-18.2.45-.12.93-.15,1.39-.26,2.24-.49,3.45.23,4.12,2.6A63.051,63.051,0,0,0,416,340.82a7.27,7.27,0,0,0,1.3,1.18Z" transform="translate(7481.478 636.65)" fill="#fff"/>
    <path id="back11" d="M404.74,318.06c-9.77,1.17-17.64,4.75-21.6,14.27l-.53-.49a3.41,3.41,0,0,1-.21-1.22c1-4.38,1.81-8.82,3.1-13.11a13.71,13.71,0,0,1,9.07-9.59,6,6,0,0,1,7.78,3.24v.08A71.96,71.96,0,0,1,404.74,318.06Z" transform="translate(7481.478 636.65)" fill="#fff"/>
    <path id="back1" d="M389.66,218.22a40.33,40.33,0,0,1,21.61-2.06,7.45,7.45,0,0,1,5.61,4.63,37.13,37.13,0,0,1,3.56,14.89c.16,11.95.21,23.89.3,35.83,0,.31-.06.62-.14,1.39-.38-.7-.56-1-.75-1.36-2.18-3.75-4.25-7.56-6.57-11.22a107.408,107.408,0,0,0-6.56-9.3,46.22,46.22,0,0,1-9.53-21.63C396.18,223.4,394.47,221.28,389.66,218.22Z" transform="translate(7481.478 636.65)" fill="#fff"/>
    <path id="back14" d="M456,329.73c1.23,2.35,2.51,4.68,3.66,7.07a12.435,12.435,0,0,1,.63,2.68c-8.6,3.76-8.59,11.47-8.66,19.07a67.811,67.811,0,0,0,.7,6.83c.26,2.83-.31,3.35-3,2.6a60.269,60.269,0,0,1-18.09-8.07c-.52-.35-1.07-.66-1.6-1-2-2.32-4.14-4.53-6-7a5,5,0,0,1,.36-6.56,69.83,69.83,0,0,0,12.6-23.95,2.54,2.54,0,0,1,2.95-2l.27.06c6,.72,10.58,3.87,14.43,8.31Z" transform="translate(7481.478 636.65)" fill="#fff"/>
    <path id="back16-2" data-name="back16" d="M459,330.59a17.08,17.08,0,0,0-11.11-10.38c-2.83-.94-5.77-1.55-8.91-2.38.9-3.8,1.56-7.55,5.12-9.76a4.7,4.7,0,0,1,2.87-.55,11.91,11.91,0,0,1,7.71,4.22c4.85,5.75,4.86,13,6.07,20l-1.82-1.2Z" transform="translate(7481.478 636.65)" fill="#fff"/>
    <path id="bArm6" d="M479.93,266.1c-.19-.31-.32-.73-.6-.91-5.92-3.84-7.4-10.56-11-16.37,3.11.4,5.86,1.38,8.35.92,4.18-.76,5.64,1.29,6.56,4.62a88.149,88.149,0,0,1,2.27,8.66,5.15,5.15,0,0,1-1.08,4c-.48.49-2.44-.48-3.73-.79l-.86-.19Z" transform="translate(7481.478 636.65)" fill="#fff"/>
    <path id="bArm3" d="M367.86,261.67c-2.09,1.65-4.08,3.42-6.28,4.89a3.7,3.7,0,0,1-3.15.46,3.48,3.48,0,0,1-1.14-3c1.16-4.47,2.59-8.87,4-13.27a1.89,1.89,0,0,1,1.33-1.08c3.81-.2,7.62-.28,11.56-.41l-2.29,4.83-4.1,7.7Z" transform="translate(7481.478 636.65)" fill="#fff"/>
    <path id="Path_356" data-name="Path 356" d="M371.23,257.31c-1.45,4.73-2.72,9.5-1.84,14.5a15.9,15.9,0,0,0,1.79,3.77l-.08-.08.57,1c-2.82-.79-3.58-3.06-3.78-5.57-.17-2,0-4,0-6.36l-5.41,2.8,5.42-5.67-.06.09Z" transform="translate(7481.478 636.65)" fill="#fff"/>
    <path id="Path_357" data-name="Path 357" d="M371.23,257.31l-3.43,4.45,4.1-7.7.64.2Z" transform="translate(7481.478 636.65)"/>
    <path id="bHand1" d="M318.57,383.15a10.351,10.351,0,0,1,.39-3.32c1.92-4.05,4.05-8,6-12a12.378,12.378,0,0,0,.65-2.33l-.9-.36-3.56,6.66-3.81,5.87-.82-.13a7.32,7.32,0,0,1,.19-2.68c2-4.19,4.19-8.33,6.39-12.43.75-1.41.74-2.36-.9-2.91-4.54,3.4-9.81,3.89-11.72,1.18l7.1-4.84c1.4-1.6,2.78-3.2,4.2-4.79,5.56-6.19,12.33-7.17,19.31-2.68a3,3,0,0,1,1.07,2.08,28.33,28.33,0,0,1-4.65,19.14c-1.83,2.66-3.19,5.63-4.85,8.41a13.262,13.262,0,0,1-2.1,2.07c-.24-3.5,3.81-5.61,1.47-9.58-1.79,3.91-3.31,7.24-4.84,10.57-.66,1.43-1.49,2.62-3.7,2.07a14.7,14.7,0,0,1,.66-2.42c1.51-3.3,3.13-6.55,4.63-9.86a7.631,7.631,0,0,0,.28-2.18l-.87-.17c-2,4.07-4.06,8.15-6.13,12.2C321.38,382.11,320.64,383.61,318.57,383.15Z" transform="translate(7481.478 636.65)" fill="#fff"/>
    <path id="back3" d="M392.16,234.78c3.46-2.11,3.7-2.95,4.71,1.93a30.68,30.68,0,0,0,7.38,14.2l10,15.58c2.05,3.22,2.14,3.86-.39,6.64a63.473,63.473,0,0,1-7.8,7.58c-5.73,4.42-11.24,3.75-16.22-1.57-.32-.34-.66-.66-1-1-6.34-8.91-6.2-19-5-29.15.56-4.85,3.3-9,6.78-12.52C391.09,235.93,391.62,235.35,392.16,234.78Z" transform="translate(7481.478 636.65)" fill="#fff"/>
    <path id="back30" d="M370.61,548.49c4.19-3.26,9.05-2.58,13.8-2.19a2.51,2.51,0,0,0,2.89-1.38c1.26-2.46,2.56-4.89,3.71-7.39a6.33,6.33,0,0,1,6-3.76,4.35,4.35,0,0,1,4.43,4.15,94.22,94.22,0,0,1,0,11.52c0,3.14-.09,6.29-.35,9.42a54.809,54.809,0,0,1-1.25,8.35,3.32,3.32,0,0,1-2.41,2,55.735,55.735,0,0,1-9.56-.88,5.74,5.74,0,0,1-3-2.41,12.63,12.63,0,0,0-7.49-5.05,26.626,26.626,0,0,1-4.27-1.39c-4.51-2-5.57-6-2.85-10.09a5.422,5.422,0,0,0,.44-1Z" transform="translate(7481.478 636.65)" fill="#fff"/>
    <path id="back31" d="M442.72,557.84c-.36-3.68-.87-7.35-1.05-11a51.376,51.376,0,0,1,.27-8.94,4.4,4.4,0,0,1,4.27-4.07,6.31,6.31,0,0,1,6.11,3.58,81.664,81.664,0,0,0,3.87,7.57,3.61,3.61,0,0,0,2.63,1.25c2.52.11,5.08-.34,7.57-.06a11,11,0,0,1,5.19,1.9c4.69,3.44,4,9.05-1.3,11.51a14.439,14.439,0,0,1-3.12,1.09,13.52,13.52,0,0,0-9.05,5.93c-1.6,2.43-4.42,2.67-7,2.83-7.12.45-7.87.47-8.85-7.73a32.008,32.008,0,0,1,0-3.79Z" transform="translate(7481.478 636.65)" fill="#fff"/>
    <path id="back20" d="M446.21,447.94l-3.15-3.41,4.55-9.26c1.9,2.74,3.95,5.41,1.37,9-.59.81-.72,1.94-1.27,2.78-.28.43-1,.56-1.57.83Z" transform="translate(7481.478 636.65)" fill="#fff"/>
    <path id="back7" d="M419.24,339.94c-4.18-6.26-6.12-13.47-8.63-20.45a77.984,77.984,0,0,0-3.42-8.31c-1.46-3-3.47-5.51-7.15-6.4a34,34,0,0,1,7.21-20.66c2.44-3.1,5.14-6,7.71-9l2.6-1.89a21.85,21.85,0,0,1,2.93,10.6q.06,25.5.11,51v6.19Z" transform="translate(7481.478 636.65)" fill="#fff"/>
    <path id="bArm4" d="M371.18,275.58c-2.61-6.19-1.61-12.31,1-18.08a69.532,69.532,0,0,1,6.54-10.11c.37-.53,1.27-.69,1.92-1a6,6,0,0,1,.85,2.07c.06,4,.13,8.07-.08,12.09a19.83,19.83,0,0,1-7,13.83c-.8.73-2.23.78-3.38,1.14Z" transform="translate(7481.478 636.65)" fill="#fff"/>
    <path id="back9" d="M390.17,301.57l2.71,4.19-6.41,5.33-.54-.21c.74-3.42,1.49-6.84,2.26-10.39l2.05,1.16Z" transform="translate(7481.478 636.65)" fill="#fff"/>
  </g>
</svg>
