<svg xmlns="http://www.w3.org/2000/svg" width="253.44" height="547.963" viewBox="0 0 253.44 547.963">
  <g id="left" transform="translate(-752 -396.062)">
    <path id="Path_384" data-name="Path 384" d="M494.2,497.62l.75,3.09c-1.03.05-2.07.09-3.1.14-.62.03-1.54-.19-1.8.13-2.34,2.9-3.8.7-4.97-.99-1.6-2.3-2.83-4.86-4.35-7.54-.6,1.98-1.18,3.89-1.97,6.46-1.27-1.13-2.16-1.52-2.36-2.15-3.86-11.96-7.38-24.04-11.57-35.89-1.69-4.78-4.88-9.01-7.22-13.57-8.1-15.8-16.69-31.39-23.87-47.6-2.67-6.03-1.94-13.56-2.81-20.39-.16-1.21-.24-2.69-.97-3.52-6.91-7.98-10.16-17.42-12.13-27.94-.65,2.72-1.46,5.41-1.94,8.16-2.03,11.61-4.18,23.21-5.83,34.88-1,7.08.85,13.85,3.85,20.35,6.49,14.07,12.92,28.31,14.81,43.78a242.465,242.465,0,0,1-.86,67.68c-1.44,9.01-1.55,18.23-2.72,27.3-1.82,14.11-.95,27.72,4.55,41.09,1.9,4.61,1.92,10.03,2.51,15.12.78,6.73.65,13.61,2.01,20.2,2.95,14.31-.47,28.05-2.23,42.06s-2.18,28.2-2.54,42.33c-.08,3.29,1.97,6.94,3.88,9.89,2.69,4.17,6.48,7.63,9.2,11.77,4.2,6.4,1.36,11.42-6.18,11.69-4.33.15-8.64.55-12.97.68-6.91.21-10.45-3.35-10.53-10.19-.04-3.16-.31-6.32-.6-9.46-.51-5.44-1.09-10.65,1.02-16.16,2.99-7.8-.69-15.42-2.74-22.87-2.42-8.8-5.98-17.31-8.04-26.19-1.79-7.72-2.39-15.74-3.11-23.67a150.878,150.878,0,0,1-.26-15.49,142.9,142.9,0,0,0-4.23-37.3c-8.77-34.5-16.21-69.39-13.61-105.46.08-1.12.01-2.24.01-2.7-3.85.27-7.41.52-10.48.74-.82,15.08-1,30.92-2.75,46.59-1.51,13.5-4.54,26.86-7.42,40.17-2.38,11.01-6.06,21.75-8.11,32.8-1.26,6.79-.44,13.95-.72,20.94-.49,12.47-.07,25.08-1.96,37.34-1.65,10.73-6.2,20.99-8.99,31.58-1.72,6.52-4.79,13.85-3.27,19.79,2.65,10.32.48,20.14.6,30.16.07,5.55-3.28,9.22-8.85,9.28a172.57,172.57,0,0,1-17.46-.76c-4.43-.4-6.66-5.61-4.13-10.08a44.605,44.605,0,0,1,7.16-9.54c5.36-5.33,7.68-11.5,6.94-18.95-1.62-16.2-2.81-32.46-4.96-48.59-1.49-11.2-1.83-22.14.62-33.22a61.592,61.592,0,0,0,1.28-14.28,53.923,53.923,0,0,1,4.02-22.34c4.45-10.63,4.86-22.13,3.69-33.44-3-28.94-7.64-57.74-5.59-87.02a130.4,130.4,0,0,1,13.45-48.75c6.15-12.51,8.24-25.15,5.5-38.69-2.13-10.53-4.26-21.06-6.46-31.9-2.27,6.98-3.38,13.99-6.72,19.71a44.506,44.506,0,0,0-6.65,21.22c-.78,14.71-8.84,27.3-15.61,40.06-2.65,5-5.13,10.19-8.54,14.65-8.79,11.48-10.5,25.65-15.48,38.56-2.18,5.65-4.45,11.27-6.68,16.9-.62-.02-1.24-.03-1.87-.05-.23-2.73-.47-5.45-.73-8.58-1.29,2.79-2.2,5.71-3.87,8.11-1.4,2.02-2.17,7.45-6.65,2.53-.32-.36-2.39.87-3.73,1.39-1.43-1.7-.3-5.59-4.17-4.47-.04-1.63-.56-3.45-.02-4.86,1.75-4.59,3.88-9.03,6.09-14.02a51.559,51.559,0,0,1-6.89-.08c-1.09-.16-2.05-1.13-3.07-1.74a9.868,9.868,0,0,1,1.88-2.54c5.2-3.56,10.54-6.9,15.72-10.49,4.12-2.85,6.14-6.87,7.57-11.81,6.39-21.98,12.45-44.13,20.45-65.54,3.44-9.2,7.19-17.67,6.68-27.73a25.889,25.889,0,0,1,2.69-12.05c2.82-5.83,2.98-11.76,2.94-17.93a35.563,35.563,0,0,1,11.65-27.13,16.262,16.262,0,0,1,13.1-4.64,53.591,53.591,0,0,0,15.75-1.08c8.97-2.19,13.37-9.86,12.04-19.9a78.286,78.286,0,0,1-8.67,1.32,52.249,52.249,0,0,1-7.29-.53c.22-6.32.57-11.85.57-17.37a151.187,151.187,0,0,1,6.83-44.12,37.354,37.354,0,0,1,5.5-10.54c3.3-4.62,7.78-7.97,13.87-7.5,8.91.69,18.79-2.11,25.12,7.75,4.99,7.76,7.56,16.22,8.89,25.15,1.75,11.82,4.16,23.56,2.73,35.68-.39,3.27,1.1,6.76,1.86,10.87h-16.9c-1.53,8.06,2.36,15.96,10.01,18.4,4.51,1.44,9.68,3.03,14.09,2.18,12.09-2.35,18.51,4.51,23.81,13.19,2.28,3.73,4.4,8.49,4.16,12.64-.65,11.27,5.24,21.58,5.1,32.06-.22,17.05,8.98,30.38,13.45,45.5,5.22,17.67,9.93,35.49,15.3,53.11,1.03,3.37,3.81,6.38,6.3,9.08,2.78,3.02,6.15,5.5,9.26,8.21-.14.17-.28.33-.42.5-4.86-3.91-10.04-7.5-14.45-11.87-2.2-2.19-3.97-2.68-6.46-1.68-2.64,1.07-5.61,2.27-4.52,5.98,3.07,10.41,6.32,20.77,9.5,31.14.42-.13.84-.26,1.26-.4-.55-3.07-1.1-6.15-1.8-10.05,7.81,3.24,6.35,11.5,11.72,16.3-1.75-5.36-3.21-9.83-4.67-14.3.45-.11.9-.22,1.36-.33q2.895,3.525,5.81,7.06C491.78,494.58,492.99,496.1,494.2,497.62ZM324.05,328.07c5.31-9.04,10.16-18.46,19.76-24.02-6.8-6.19-16.06-7.58-21.98-3.48-10.5,7.28-16.48,24.57-12.65,37.73,5.13-3.55,10.08-6.97,15.04-10.39-.52,1.17-1.04,2.34-1.65,3.7,10.17,2.83,18.35,8.87,24.97,16.68,4.72,5.57,9.92,6.62,16.43,4.86,2.49-.68,5.05-1.11,8.15-1.78-.43-9.35-.32-18.38-1.5-27.24-.55-4.13-2.52-9.57-5.67-11.59-16.19-10.37-22.4-10.01-32.58,5.31a40.393,40.393,0,0,1-2.36,3.8C328.11,323.87,326.04,325.94,324.05,328.07Zm42.88,135.59c-2.06-3.06-4.83-5.86-6.08-9.22-11.61-31.01-13.93-63.08-10.38-95.77.18-1.61.84-3.95.05-4.76-5.27-5.46-10.86-10.59-16.35-15.83-.37.37-.75.74-1.12,1.11,2.15,9.7,4.16,19.44,6.49,29.11,4.36,18.13,4.93,35.67-4.8,52.68-3.7,6.47-5.46,14.06-8.2,21.39,12.5,2.42,21.35,9.42,29.73,17.1,2.83,2.59,5.15,5.74,7.7,8.64-2.64-2.17-5.26-4.37-7.93-6.49-6.26-4.97-12.54-9.9-18.81-14.85-.73.41-1.45.82-2.18,1.23.55,13.58.31,27.26,1.91,40.71,1.18,9.9,4.64,19.55,7.34,29.24,1.77,6.34,4.36,12.47,5.91,18.86,1.21,4.97,1.33,10.2,2.04,15.29.43,3.12.98,6.23,1.61,9.32.62,3.06,1.42,6.08,2.46,10.47.83-2.3,1.16-3.06,1.39-3.84a258.523,258.523,0,0,0,10.53-72.76c-.02-9.19,3.08-19.24-4.42-27.36,1.8.98,3.61,1.96,5.92,3.21-.88-2.47-1.51-4.27-2.15-6.07,1.86,1.57,3.71,3.14,5.72,4.84V420.56c-6.79-1.53-13.45-3.02-20.31-4.56C354.81,432.26,358.77,448.55,366.93,463.66Zm24.94-.47a22.191,22.191,0,0,1,2.61-3.49c8.54-7.76,17.46-14.91,29.45-17.27a28.21,28.21,0,0,0-.87-3.49c-3.57-9.12-7.02-18.29-10.84-27.31-3.32-7.85-5.04-15.86-3.64-24.34,1.6-9.67,3.24-19.33,5.1-28.95,1.26-6.52,2.93-12.97,4.41-19.45-.41-.27-.82-.53-1.23-.8-4.82,4.51-9.81,8.87-14.37,13.64a8.32,8.32,0,0,0-2,5.96,217.347,217.347,0,0,1-7.45,89.37c-2.79,9.38-6.49,18.59-14.53,25.09a16.4,16.4,0,0,1-2.61,1.43l1.22,1.19c.64-.47,1.28-.92,1.9-1.41q6.525-5.16,13.03-10.33c-1.37,1.78-2.41,4.02-4.17,5.25-3.81,2.68-5.11,5.96-4.87,10.58.89,17.11.62,34.33,2.43,51.33,1.44,13.62,5.26,26.98,8.03,40.46.55-.02,1.11-.04,1.66-.05.91-4.13,2.08-8.23,2.69-12.4,2.29-15.75,2.81-31.91,11.45-46.09a17.281,17.281,0,0,0,1.59-4.72c3.64-14.27,4.84-28.82,4.8-43.51-.01-5.37,0-10.73,0-17.42-3.89,2.39-6.23,3.62-8.34,5.16C402.1,455.39,397,459.32,391.87,463.19ZM360.28,273.93c-1.65-6.43-2.4-11.96-4.51-16.91-2.15-5.02-6.8-8.51-1.52-15.09,3.68-4.6,4.37-11.61,6.3-17.58,1.04-3.22,3.13-5.12,6.49-5.12,6.12.01,12.26.07,18.36.52a5.872,5.872,0,0,1,4.08,2.85c2.42,5.09,4.47,10.36,6.49,15.63.67,1.76.18,4.6,1.33,5.45,4.15,3.07,2.58,6.25.48,9.07-4.58,6.18-5.51,13.26-6.3,21.28,5.16.52,9.97,1.01,14.47,1.47-.34-5.55-1.17-10.19-.81-14.74,1.2-15.2-2.29-29.71-6.04-44.16-1.73-6.68-4.85-13.79-11.48-16.12-6.22-2.18-13.55-2.21-20.27-1.67-6.7.54-10.48,6.18-13.09,11.89-6.54,14.3-7.57,29.77-8.77,45.13-.48,6.2-.08,12.48-.08,19.63C349.59,275.05,354.42,274.54,360.28,273.93ZM401.44,618.8c-.26,13.62-1.41,27.23,2.43,40.5,3.6,12.45,7.9,24.72,10.96,37.29,1.15,4.72-.23,10.08-.58,15.13-.2,2.76-1,5.51-.94,8.25.11,5.15.72,10.28,1,15.43.25,4.62,2.9,7.55,7.45,7.52,5.16-.03,10.33-.23,15.47-.62,5.32-.4,7.1-3.98,4.21-8.58a39.126,39.126,0,0,0-5.84-7.44c-6.36-6.11-8.86-13.37-7.9-22.1,1.97-17.83,3.61-35.71,5.7-53.52.85-7.27.78-23.04-3.61-31.28-1,15.2-1.42,29.65-3.06,43.97-1.63,14.21-4.49,28.27-6.81,42.4a125.9,125.9,0,0,1-3.96-19.96c-1.54-14.05-2.38-28.19-4.17-42.2A49.481,49.481,0,0,0,401.44,618.8ZM331.8,706.03c-.23-.14-.47-.29-.7-.43-2.36-14.24-5.28-28.41-6.91-42.73-1.62-14.16-1.94-28.47-2.83-42.71-3.89,9.87-5.58,19.91-3.6,30.02a287.076,287.076,0,0,1,5.22,60.55c-.07,3.8-2.18,7.86-4.26,11.25-2.67,4.37-6.52,8-9.35,12.29-2.69,4.07-.85,7.57,3.96,7.99,5.14.44,10.31.64,15.47.69,5.14.06,7.71-2.82,7.92-8.1.18-4.65.8-9.29.83-13.94.02-3.24-.76-6.47-.96-9.72-.31-4.89-1.1-9.89-.44-14.67.77-5.54,2.91-10.89,4.41-16.34,2.9-10.55,6.58-20.97,8.41-31.7,1.5-8.78.81-17.93,1.04-26.92a15.872,15.872,0,0,0-.49-2.93c-.5-.1-.99-.2-1.49-.31-2.63,6.94-6.49,13.68-7.65,20.86-2.47,15.24-3.44,30.72-5.25,46.07C334.3,692.21,332.92,699.11,331.8,706.03Zm63.88-461.91c-1.43-4.52-3.15-8.98-4.24-13.58-2.04-8.64-7.82-10.66-15.85-10.41-11.34.35-11.58.42-16.2,10.6-5.79,12.77-4.45,30.17,8.69,41.15,5.25,4.39,9.82,4.37,14.96-.18C391.3,264.4,395.62,255.54,395.68,244.12ZM378.85,351.57c5.24.87,9.62,2.12,14.01,2.14a12.092,12.092,0,0,0,7.86-3.02c8.13-8.11,16.31-15.97,28.12-19.15-5.83-7.57-11.13-14.77-16.78-21.68-3.48-4.26-8.13-5.32-13.47-3.53-8.39,2.8-16.9,5.71-18.02,16.15C379.55,332,379.4,341.62,378.85,351.57Zm54.28,27.9c-.52.27-1.04.55-1.56.82,1.84,30.39,21.76,53.02,34.21,78.51,3.76-1.6,6.77-2.88,10.94-4.64-10.81-24.89-11.68-53.34-26.79-77.79-1.4,3.77-2.47,6.65-3.8,10.25C441.42,384.03,437.28,381.75,433.13,379.47ZM285.12,458.72c6.73-11.97,13.91-23.59,19.93-35.78a299.26,299.26,0,0,0,13.13-32.18c1.2-3.37.19-7.52.19-11.51-4.8,2.6-8.95,4.84-13.57,7.34-1.34-3.69-2.37-6.55-3.76-10.39-14.91,24.83-16.1,53.14-26.7,77.95C278.6,455.95,281.62,457.23,285.12,458.72ZM418.51,695.49c.4.01.8.01,1.2.02.22-1.81.36-3.63.67-5.42,3.49-20.3,7.97-40.48,6.66-61.33a29.412,29.412,0,0,1,1.69-10.28c2.32-7.37-.26-13.82-3.6-19.94-2.72-5.01-6.29-5.09-10.59-1.35a56.644,56.644,0,0,1-7.39,5.37c-4.23,2.61-5.94,10.7-3.7,15.17,3.19,6.35,6.89,12.75,8.4,19.56,2.33,10.48,3.11,21.32,4.31,32.04C417.13,678.02,417.74,686.76,418.51,695.49Zm-86.84,1.01a27.791,27.791,0,0,0,1.09-3.98c.75-8.77,1.5-17.55,2.13-26.33,1.27-17.66,3.01-35.15,13.69-50.29.82-1.17.5-3.35.3-5.01-.91-7.46-8.43-9.05-12.56-13.67-3.91-4.37-8.02-3.61-10.73,1.75-3.22,6.38-5.84,12.96-3.03,20.47a24.082,24.082,0,0,1,1.45,9.8C322.38,651.87,328.28,673.6,331.67,696.5ZM406.7,302.07c-.2-.77-.4-1.53-.6-2.3-7.97,2.14-15.94,4.29-23.01,6.19,2.57-12.28,5.32-25.47,7.98-38.22-5.47,3.26-10.58,8.67-15.66,8.65s-10.11-5.5-15.51-8.8c2.71,12.94,5.48,26.22,8.01,38.32-7.22-1.91-15.02-3.96-22.81-6.02-.24.82-.47,1.65-.71,2.47,2.83.83,5.64,1.75,8.49,2.48,14.35,3.69,20.08,10.83,20.27,25.52.08,6,.09,12-.03,17.99-.06,3.28,1.27,4.14,4.75,2.83,0-7.16-.2-14.47.04-21.76.45-13.72,5.21-19.85,18.26-23.98,2.05-.65,4.22-.95,6.28-1.58A45,45,0,0,0,406.7,302.07Zm38.71,82.12c.8-2.38,1.6-4.21,2.04-6.12,2.49-10.99,1.44-21.75-1.91-32.44-2.03-6.46-8.01-7.98-12.79-11.02-5.04-3.21-12.49.6-12.47,6.45a67.537,67.537,0,0,0,.97,12.39C423.93,367.5,431.14,378.2,445.41,384.19ZM305.42,384a22.147,22.147,0,0,0,2.16-.66c18.55-8.31,24.31-28.07,22.96-44.29-.12-1.4-1.73-3.18-3.11-3.88-5.72-2.92-17.73,1.38-20.58,7.8C300.96,356.25,300.55,369.88,305.42,384Zm111.76,92.6c-.25,2-.51,3.44-.61,4.9-.95,14.89-3.64,29.23-11.01,42.55a21.891,21.891,0,0,0-2.04,17.44c2.62,8.15,5.39,16.25,8.17,24.62a29.435,29.435,0,0,0,2.04-5.14c3.42-16.76,7.28-33.45,9.89-50.34C425.4,499.14,425.89,487.28,417.18,476.6Zm-78.04,90.61c2.48-7.9,4.08-14.85,6.85-21.31,3.63-8.47,2.58-16.46-1.52-24a78.188,78.188,0,0,1-8.7-28.41c-.66-5.42-1.32-10.85-2.01-16.44-6.28,6.73-7.98,14.5-7.01,22.66,1.79,15.17,3.82,30.32,6.36,45.38C334.33,552.33,336.95,559.33,339.14,567.21ZM442.57,337.7c.83-8.42.75-16.59-2.98-24.03-7.72-15.38-17.56-20.74-31.03-10.59,4.84,6.14,9.9,12.12,14.46,18.47C428.11,328.65,433.79,334.81,442.57,337.7ZM377.63,470.38c11.59-8.73,19.6-38.92,20-54.28q-9.705,2.145-20,4.43ZM273.01,493.22c.36.17.71.34,1.07.51,3.18-9.22,6.45-18.42,9.5-27.69,1.18-3.58.12-6.47-3.66-8.11-3.44-1.49-5.9-1.09-7.87,2.46-.92,1.65-2.74,2.88-4.33,4.06-5.5,4.08-11.07,8.05-17.12,12.42,3.19-.32,5.99-.6,10.36-1.04-2.74,7.29-5.06,13.48-7.38,19.67.25.1.5.2.75.31q3.3-5.535,6.61-11.06c.59.28,1.19.57,1.78.85q-2.49,6.765-4.97,13.53c.26.11.51.21.77.32q3.675-6.975,7.34-13.95c.58.26,1.17.52,1.75.77-1.53,4.52-3.05,9.04-4.97,14.71,5.41-5.06,4.77-12.83,11.82-16.53C273.86,488.11,273.44,490.67,273.01,493.22Zm79.24-137.1c-.45,5.39-1.07,11.29-1.32,17.2-.04.89,1.6,2.58,2.58,2.67,6.75.62,13.54.91,20.1,1.29V353.36C366.61,354.28,360.08,355.12,352.25,356.12Zm25,21.21c6.79-.39,13.45-.67,20.09-1.27,1.03-.09,2.79-1.71,2.75-2.56-.29-6.04-.96-12.05-1.45-17.41-7.72-.99-14.36-1.84-21.39-2.74Zm-26.23,1.08c0,5.08-.1,10.86.11,16.63a3.487,3.487,0,0,0,2.31,2.48c6.75.2,13.5.11,20.07.11V378.4C366.2,378.41,358.87,378.41,351.02,378.41Zm26.47,19.38c6.54,0,13,.09,19.45-.09,1.01-.03,2.81-1.27,2.84-2,.23-6.02.13-12.06.13-17.3H377.49Zm-56.4,91.81c.55.09,1.1.18,1.65.26,7.66-8.98,12.51-18.93,11.18-31.18a28.671,28.671,0,0,1,.19-8.43c.86-4.4-1.84-4.88-4.96-5.56-4.13-.89-3.89,2.2-4.13,4.48C323.63,462.64,322.39,476.12,321.09,489.6Zm103.69-45.04c-7.88.71-7.86.71-7.69,7.82a66.863,66.863,0,0,1,.05,8.95c-1.32,11.54,4.7,19.99,11.74,28.98C428.97,474.35,429.08,459.24,424.78,444.56Zm-25.14-44.61h-22.1v17.34C392.08,419.95,399.65,413.97,399.64,399.95ZM373.5,417.31V399.77H351.67C348.48,415.56,361.94,419.16,373.5,417.31Zm47.59,144.51a3.939,3.939,0,0,1-1.8,1.41c-7.61,1.82-5.86,7.21-5.26,12.55,1.37,12.06,12.36,18.44,16.95,28.71C427.69,590.3,424.4,576.11,421.09,561.82Zm-101,42.67c3.41-4.56,6.77-8.91,9.97-13.37,4.53-6.33,7.41-13.32,7.48-21.2a6.552,6.552,0,0,0-1.81-4.61,29.6,29.6,0,0,0-5.88-3.25C326.61,576.16,323.34,590.38,320.09,604.49Zm90.74-32.74c-2.49,2.21-5.3,4.52-7.87,7.08-.9.9-1.94,2.7-1.61,3.62,2.12,5.96,4.6,11.78,6.97,17.67,4.32-3.25,7.57-5.69,10.3-7.75Q414.72,582.02,410.83,571.75Zm-70.52-.38q-4.185,11.04-7.95,20.95c3.06,2.33,6.26,4.76,10.06,7.66,2.18-4.66,4.3-9.11,6.35-13.6,1.84-4.03,1.19-7.11-2.97-9.54C343.6,575.55,342.05,573.16,340.31,571.37Zm8.64-27.48c-.33-.12-.66-.24-.98-.37-1.93,6.87-4.42,13.65-5.62,20.65-1.3,7.53,1.28,10.78,9.58,14.03.96-1.7,3.1-3.7,2.83-5.3C353.13,563.18,350.95,553.55,348.95,543.89Zm54.01-.29c-.37.12-.75.24-1.12.36-1.89,10.22-3.77,20.43-5.74,31.08,1.13.87,2.67,2.06,4.11,3.18,8.49-5.03,10.02-7.24,8.38-15.15C407.23,556.47,404.88,550.08,402.96,543.6Zm11.92,19.78c5.33-1.65,7.24-5.31,7.79-9.54,1.56-11.99,2.84-24.02,4.17-36.03.71-6.43,1.46-12.87,1.87-19.33.12-1.85-.88-3.77-1.36-5.66C426.11,516.79,421.72,539.85,414.88,563.38Zm-80.82.35,1.86-1.08c-6.68-23.03-11.14-46.43-12.03-70.53a25.533,25.533,0,0,0-1.4,9.99c1.29,14.22,2.79,28.43,4.34,42.62a45.321,45.321,0,0,0,2.02,10.74C329.96,558.45,332.27,560.99,334.06,563.73Zm51.27-260.79c7.01-1.57,13.7-3.06,21.48-4.8-8.44-2.13-14.78-5.23-17.03-13.56C388.29,290.72,386.8,296.86,385.33,302.94Zm-41.07-4.74c7.86,1.73,14.6,3.22,21.41,4.72-1.48-6.2-2.95-12.35-4.42-18.5C359.22,293.05,352.47,295.96,344.26,298.2Zm4.95,308.28c2.2-9.54,4.44-19.27,6.68-29-.57-.23-1.15-.45-1.72-.68-3.2,7.79-6.4,15.59-9.68,23.59C346.01,602.35,347.79,604.64,349.21,606.48Zm57.32-6.12c-3.39-8.22-6.56-15.91-9.72-23.59-.56.22-1.13.45-1.69.67,2.25,9.79,4.5,19.58,6.7,29.13C403.2,604.74,404.97,602.41,406.53,600.36ZM374.91,461.52c.36.06.72.11,1.08.17V425.91h-1.08Z" transform="translate(503.2 199.186)"/>
    <path id="Thumb" d="M494.2,497.62q-1.815-2.28-3.63-4.55-.975-3.78-1.96-7.56c.47-.17.94-.34,1.41-.52,2.35,3.57,4.69,7.14,7.68,11.7-2.71-7.4-5-13.64-7.52-20.53h9.04c-2.33-1.79-4.37-3.37-6.42-4.95.14-.17.28-.33.42-.5a65.218,65.218,0,0,1,7.24,3.07c.88.49,1.2,2,1.78,3.05-1.06.56-2.06,1.44-3.18,1.61a47.774,47.774,0,0,1-6.4.07c1.5,3.7,2.61,7.06,4.2,10.18C500.5,495.84,500.5,496.1,494.2,497.62Z" transform="translate(503.2 199.186)"/>
    <path id="Thigh_Muscle" data-name="Thigh Muscle" d="M363.79,467.94c7.5,8.12,4.4,18.17,4.42,27.36a258.576,258.576,0,0,1-10.53,72.76c-.23.79-.55,1.55-1.39,3.84-1.04-4.4-1.83-7.42-2.46-10.47-.63-3.09-1.18-6.2-1.61-9.32-.71-5.1-.83-10.32-2.04-15.29-1.55-6.39-4.14-12.51-5.91-18.86-2.7-9.69-6.16-19.34-7.34-29.24-1.6-13.46-1.36-27.13-1.91-40.71.73-.41,1.45-.82,2.18-1.23,6.27,4.95,12.56,9.88,18.81,14.85,2.68,2.13,5.29,4.33,7.93,6.49C363.96,468.11,363.79,467.94,363.79,467.94Z" transform="translate(503.2 199.186)" fill="#fff"/>
    <path id="Thigh_Muscle-2" data-name="Thigh Muscle" d="M391.87,463.2c5.14-3.88,10.23-7.81,15.43-11.6,2.11-1.54,4.45-2.77,8.34-5.16,0,6.69-.01,12.05,0,17.42.04,14.68-1.16,29.23-4.8,43.51a17.4,17.4,0,0,1-1.59,4.72c-8.64,14.19-9.16,30.34-11.45,46.09-.61,4.18-1.78,8.27-2.69,12.4-.55.02-1.11.04-1.66.05-2.76-13.48-6.58-26.84-8.03-40.46-1.8-17-1.54-34.22-2.43-51.33-.24-4.62,1.06-7.9,4.87-10.58,1.75-1.23,2.8-3.47,4.17-5.25Z" transform="translate(503.2 199.186)" fill="#fff"/>
    <path id="Path_391" data-name="Path 391" d="M360.28,273.93c-5.86.61-10.69,1.12-14.85,1.55,0-7.16-.4-13.43.08-19.63,1.2-15.36,2.23-30.83,8.77-45.13,2.61-5.71,6.39-11.35,13.09-11.89,6.72-.55,14.05-.51,20.27,1.67,6.63,2.32,9.75,9.43,11.48,16.12,3.75,14.45,7.23,28.96,6.04,44.16-.36,4.55.47,9.19.81,14.74-4.5-.46-9.31-.94-14.47-1.47.79-8.03,1.71-15.1,6.3-21.28,2.1-2.83,3.67-6-.48-9.07-1.15-.85-.66-3.68-1.33-5.45-2.01-5.27-4.06-10.54-6.49-15.63a5.834,5.834,0,0,0-4.08-2.85c-6.1-.45-12.24-.51-18.36-.52-3.36,0-5.45,1.9-6.49,5.12-1.93,5.96-2.62,12.98-6.3,17.58-5.27,6.59-.62,10.07,1.52,15.09C357.89,261.97,358.64,267.5,360.28,273.93Z" transform="translate(503.2 199.186)" fill="#fff"/>
    <path id="Foot_ankle" data-name="Foot/ankle" d="M401.44,618.8a49.27,49.27,0,0,1,10.33,24.8c1.79,14.02,2.63,28.15,4.17,42.2a127.269,127.269,0,0,0,3.96,19.96c2.32-14.13,5.18-28.19,6.81-42.4,1.64-14.32,2.05-28.77,3.06-43.97,4.39,8.24,4.47,24,3.61,31.28-2.09,17.82-3.73,35.69-5.7,53.52-.96,8.73,1.54,15.99,7.9,22.1a39.039,39.039,0,0,1,5.84,7.44c2.88,4.59,1.1,8.18-4.21,8.58-5.14.39-10.31.59-15.47.62-4.55.03-7.2-2.9-7.45-7.52-.28-5.15-.88-10.28-1-15.43-.06-2.74.75-5.49.94-8.25.36-5.06,1.74-10.41.58-15.13-3.07-12.57-7.36-24.84-10.96-37.29C400.03,646.03,401.18,632.42,401.44,618.8Z" transform="translate(503.2 199.186)" fill="#fff"/>
    <path id="Foot_ankle-2" data-name="Foot/ankle" d="M331.8,706.03c1.13-6.93,2.5-13.82,3.33-20.78,1.81-15.35,2.78-30.83,5.25-46.07,1.17-7.18,5.02-13.92,7.65-20.86.5.1.99.2,1.49.31a15.072,15.072,0,0,1,.49,2.93c-.23,8.99.46,18.14-1.04,26.92-1.83,10.73-5.51,21.15-8.41,31.7-1.5,5.45-3.64,10.79-4.41,16.34-.66,4.78.14,9.78.44,14.67.2,3.25.98,6.48.96,9.72-.03,4.65-.65,9.29-.83,13.94-.2,5.28-2.77,8.16-7.92,8.1s-10.33-.25-15.47-.69c-4.82-.42-6.66-3.92-3.96-7.99,2.83-4.29,6.68-7.92,9.35-12.29,2.07-3.39,4.19-7.45,4.26-11.25a287.739,287.739,0,0,0-5.22-60.55c-1.98-10.11-.29-20.15,3.6-30.02.89,14.24,1.21,28.55,2.83,42.71,1.64,14.32,4.55,28.49,6.91,42.73C331.33,705.74,331.56,705.89,331.8,706.03Z" transform="translate(503.2 199.186)" fill="#fff"/>
    <path id="Face" d="M395.68,244.12c-.06,11.42-4.38,20.28-12.63,27.58-5.15,4.55-9.71,4.57-14.96.18-13.14-10.98-14.48-28.38-8.69-41.15,4.62-10.19,4.86-10.25,16.2-10.6,8.03-.25,13.81,1.77,15.85,10.41C392.53,235.15,394.25,239.6,395.68,244.12Z" transform="translate(503.2 199.186)" fill="#fff"/>
    <path id="External_Obliques" data-name="External Obliques" d="M367.56,465.08c.64,1.8,1.27,3.6,2.15,6.07-2.31-1.25-4.11-2.23-5.92-3.21,0,0,.17.16.17.17-2.55-2.89-4.88-6.04-7.7-8.64-8.38-7.68-17.23-14.68-29.73-17.1,2.74-7.33,4.5-14.92,8.2-21.39,9.73-17.01,9.17-34.55,4.8-52.68-2.33-9.66-4.34-19.4-6.49-29.11.37-.37.75-.74,1.12-1.11,5.49,5.24,11.09,10.38,16.35,15.83.79.82.13,3.15-.05,4.76-3.55,32.69-1.23,64.76,10.38,95.77,1.26,3.36,4.02,6.16,6.08,9.22C367.14,464.13,367.35,464.61,367.56,465.08Z" transform="translate(503.2 199.186)" fill="#fff"/>
    <path id="External_Obliques-2" data-name="External Obliques" d="M392.04,463.02q-6.51,5.175-13.03,10.33c-.62.49-1.27.94-1.9,1.41l-1.22-1.19a16.044,16.044,0,0,0,2.61-1.43c8.04-6.5,11.74-15.71,14.53-25.09a217.333,217.333,0,0,0,7.45-89.37,8.276,8.276,0,0,1,2-5.96c4.56-4.77,9.54-9.13,14.37-13.64.41.27.82.53,1.23.8-1.48,6.48-3.15,12.93-4.41,19.45-1.86,9.62-3.5,19.28-5.1,28.95-1.4,8.48.32,16.48,3.64,24.34,3.82,9.02,7.27,18.19,10.84,27.31a28.671,28.671,0,0,1,.87,3.49c-11.98,2.36-20.91,9.51-29.45,17.27a22.192,22.192,0,0,0-2.61,3.49C391.87,463.2,392.04,463.02,392.04,463.02Z" transform="translate(503.2 199.186)" fill="#fff"/>
    <path id="chest" d="M324.05,328.07c1.99-2.13,4.06-4.19,5.94-6.42a41.718,41.718,0,0,0,2.36-3.8c10.18-15.33,16.4-15.69,32.58-5.31,3.14,2.02,5.12,7.46,5.67,11.59,1.17,8.86,1.06,17.88,1.5,27.24-3.09.67-5.65,1.1-8.15,1.78-6.5,1.76-11.7.72-16.43-4.86-6.62-7.81-14.8-13.85-24.97-16.68.61-1.37,1.13-2.53,1.65-3.7Z" transform="translate(503.2 199.186)" fill="#fff"/>
    <path id="chest-2" data-name="chest" d="M378.85,351.57c.55-9.96.69-19.57,1.72-29.09,1.13-10.44,9.64-13.35,18.02-16.15,5.34-1.78,9.99-.72,13.47,3.53,5.65,6.91,10.95,14.11,16.78,21.68-11.81,3.18-19.99,11.05-28.12,19.15a12.112,12.112,0,0,1-7.86,3.02C388.47,353.69,384.09,352.45,378.85,351.57Z" transform="translate(503.2 199.186)" fill="#fff"/>
    <path id="Arm_wrist" data-name="Arm/wrist" d="M433.13,379.47c4.15,2.28,8.29,4.56,12.99,7.15,1.34-3.6,2.4-6.47,3.8-10.25,15.11,24.45,15.97,52.9,26.79,77.79-4.16,1.77-7.17,3.05-10.94,4.64-12.45-25.49-32.37-48.12-34.21-78.51C432.09,380.01,432.61,379.74,433.13,379.47Z" transform="translate(503.2 199.186)" fill="#fff"/>
    <path id="Arm_wrist-2" data-name="Arm/wrist" d="M285.12,458.72c-3.5-1.48-6.52-2.76-10.78-4.57,10.6-24.81,11.78-53.12,26.7-77.95,1.39,3.84,2.43,6.7,3.76,10.39,4.62-2.5,8.76-4.74,13.57-7.34,0,3.99,1.01,8.14-.19,11.51a298.048,298.048,0,0,1-13.13,32.18C299.03,435.13,291.85,446.75,285.12,458.72Z" transform="translate(503.2 199.186)" fill="#fff"/>
    <path id="Shin" d="M418.51,695.49c-.77-8.73-1.37-17.47-2.34-26.17-1.19-10.72-1.98-21.56-4.31-32.04-1.51-6.81-5.21-13.21-8.4-19.56-2.25-4.46-.53-12.55,3.7-15.17a56.393,56.393,0,0,0,7.39-5.37c4.3-3.75,7.86-3.66,10.59,1.35,3.33,6.13,5.92,12.57,3.6,19.94a28.958,28.958,0,0,0-1.69,10.28c1.31,20.85-3.17,41.03-6.66,61.33-.31,1.79-.45,3.61-.67,5.42C419.3,695.5,418.91,695.5,418.51,695.49Z" transform="translate(503.2 199.186)" fill="#fff"/>
    <path id="Shin-2" data-name="Shin" d="M331.67,696.5c-3.39-22.89-9.3-44.63-7.67-67.25a24.081,24.081,0,0,0-1.45-9.8c-2.8-7.51-.19-14.09,3.03-20.47,2.71-5.36,6.81-6.12,10.73-1.75,4.13,4.62,11.65,6.21,12.56,13.67.2,1.66.53,3.84-.3,5.01-10.68,15.13-12.42,32.63-13.69,50.29-.63,8.78-1.37,17.56-2.13,26.33A24.246,24.246,0,0,1,331.67,696.5Z" transform="translate(503.2 199.186)" fill="#fff"/>
    <path id="Neck" d="M406.7,302.07a44.74,44.74,0,0,1-4.24,1.78c-2.06.63-4.23.93-6.28,1.58-13.05,4.13-17.81,10.26-18.26,23.98-.24,7.29-.04,14.59-.04,21.76-3.48,1.31-4.82.46-4.75-2.83.12-5.99.11-11.99.03-17.99-.2-14.69-5.92-21.82-20.27-25.52-2.85-.73-5.66-1.65-8.49-2.48.24-.82.47-1.65.71-2.47,7.8,2.06,15.6,4.12,22.81,6.02-2.53-12.1-5.31-25.38-8.01-38.32,5.41,3.3,10.45,8.78,15.51,8.8,5.08.02,10.18-5.39,15.66-8.65-2.66,12.75-5.42,25.93-7.98,38.22,7.07-1.9,15.04-4.05,23.01-6.19C406.3,300.54,406.5,301.3,406.7,302.07Z" transform="translate(503.2 199.186)" fill="#fff"/>
    <path id="Biceps" d="M445.41,384.19c-14.27-5.98-21.47-16.68-24.17-30.74a67.468,67.468,0,0,1-.97-12.39c-.03-5.85,7.43-9.66,12.47-6.45,4.78,3.04,10.77,4.56,12.79,11.02,3.36,10.69,4.4,21.45,1.91,32.44C447.01,379.98,446.21,381.81,445.41,384.19Z" transform="translate(503.2 199.186)" fill="#fff"/>
    <path id="Biceps-2" data-name="Biceps" d="M305.42,384c-4.87-14.12-4.46-27.75,1.43-41.02,2.86-6.43,14.86-10.72,20.58-7.8,1.38.7,2.99,2.48,3.11,3.88,1.35,16.21-4.41,35.97-22.96,44.29C307.15,383.54,306.66,383.63,305.42,384Z" transform="translate(503.2 199.186)" fill="#fff"/>
    <path id="Thigh_Muscle-3" data-name="Thigh Muscle" d="M417.18,476.6c8.71,10.68,8.22,22.54,6.45,34.04-2.61,16.89-6.47,33.58-9.89,50.34a29.751,29.751,0,0,1-2.04,5.14c-2.79-8.38-5.55-16.48-8.17-24.62a21.851,21.851,0,0,1,2.04-17.44c7.37-13.33,10.06-27.67,11.01-42.55C416.67,480.04,416.93,478.6,417.18,476.6Z" transform="translate(503.2 199.186)" fill="#fff"/>
    <path id="Thigh_Muscle-4" data-name="Thigh Muscle" d="M339.14,567.21c-2.2-7.88-4.81-14.88-6.03-22.11-2.54-15.06-4.57-30.21-6.36-45.38-.96-8.16.74-15.93,7.01-22.66.68,5.59,1.35,11.02,2.01,16.44a78.188,78.188,0,0,0,8.7,28.41c4.1,7.54,5.15,15.53,1.52,24C343.23,552.36,341.63,559.31,339.14,567.21Z" transform="translate(503.2 199.186)" fill="#fff"/>
    <path id="Shoulders" d="M442.57,337.7c-8.78-2.89-14.46-9.05-19.55-16.15-4.55-6.34-9.62-12.32-14.46-18.47,13.47-10.16,23.3-4.79,31.03,10.59C443.32,321.1,443.4,329.28,442.57,337.7Z" transform="translate(503.2 199.186)" fill="#fff"/>
    <path id="Shoulders-2" data-name="Shoulders" d="M324.22,327.91c-4.95,3.42-9.91,6.84-15.04,10.39-3.83-13.15,2.16-30.45,12.65-37.73,5.92-4.1,15.18-2.71,21.98,3.48-9.6,5.56-14.45,14.98-19.76,24.02Z" transform="translate(503.2 199.186)" fill="#fff"/>
    <path id="Abdominals" d="M367.56,465.08c-.21-.47-.42-.95-.63-1.42-8.16-15.11-12.12-31.39-13.96-47.65,6.87,1.54,13.52,3.04,20.31,4.56v49.35C371.28,468.22,369.42,466.65,367.56,465.08Z" transform="translate(503.2 199.186)" fill="#fff"/>
    <path id="Abdominals-2" data-name="Abdominals" d="M377.63,470.38V420.52q10.3-2.28,20-4.43C397.23,431.46,389.22,461.65,377.63,470.38Z" transform="translate(503.2 199.186)" fill="#fff"/>
    <path id="Hand_fingers" data-name="Hand/fingers" d="M273.01,493.22c.42-2.56.85-5.11,1.45-8.78-7.05,3.7-6.41,11.47-11.82,16.53,1.91-5.67,3.44-10.19,4.97-14.71-.58-.26-1.17-.52-1.75-.77q-3.675,6.975-7.34,13.95c-.26-.11-.51-.21-.77-.32q2.49-6.765,4.97-13.53c-.59-.28-1.19-.57-1.78-.85q-3.3,5.535-6.61,11.06c-.25-.1-.5-.2-.75-.31,2.32-6.19,4.64-12.37,7.38-19.67l-10.36,1.04c6.04-4.37,11.62-8.34,17.12-12.42,1.59-1.18,3.41-2.41,4.33-4.06,1.97-3.55,4.43-3.95,7.87-2.46,3.78,1.64,4.84,4.52,3.66,8.11-3.04,9.27-6.32,18.46-9.5,27.69C273.73,493.56,273.37,493.39,273.01,493.22Z" transform="translate(503.2 199.186)" fill="#fff"/>
    <path id="Hand_fingers-2" data-name="Hand/fingers" d="M492.82,471.21c2.05,1.58,4.09,3.16,6.42,4.95H490.2c2.52,6.88,4.81,13.13,7.52,20.53-2.99-4.56-5.34-8.13-7.68-11.7-.47.17-.94.34-1.41.52q.975,3.78,1.96,7.56-2.91-3.525-5.81-7.06c-.45.11-.9.22-1.36.33,1.46,4.47,2.92,8.94,4.67,14.3-5.37-4.8-3.92-13.06-11.72-16.3.7,3.9,1.25,6.98,1.8,10.05-.42.13-.84.26-1.26.4-3.18-10.38-6.44-20.73-9.5-31.14-1.09-3.71,1.87-4.91,4.52-5.98,2.49-1,4.26-.51,6.46,1.68C482.77,463.71,487.96,467.3,492.82,471.21Z" transform="translate(503.2 199.186)" fill="#fff"/>
    <path id="Abdominals-3" data-name="Abdominals" d="M352.25,356.12c7.83-1.01,14.35-1.85,21.35-2.75v23.92c-6.56-.38-13.34-.67-20.1-1.29-.98-.09-2.62-1.78-2.58-2.67C351.18,367.41,351.8,361.51,352.25,356.12Z" transform="translate(503.2 199.186)" fill="#fff"/>
    <path id="Abdominals-4" data-name="Abdominals" d="M377.25,377.33V353.36c7.03.9,13.68,1.75,21.39,2.74.49,5.36,1.16,11.37,1.45,17.41.04.84-1.72,2.47-2.75,2.56C390.71,376.67,384.04,376.94,377.25,377.33Z" transform="translate(503.2 199.186)" fill="#fff"/>
    <path id="Abdominals-5" data-name="Abdominals" d="M351.02,378.41h22.49v19.23c-6.57,0-13.32.09-20.07-.11a3.469,3.469,0,0,1-2.31-2.48C350.92,389.27,351.02,383.49,351.02,378.41Z" transform="translate(503.2 199.186)" fill="#fff"/>
    <path id="Abdominals-6" data-name="Abdominals" d="M377.49,397.79v-19.4h22.42c0,5.24.1,11.28-.13,17.3-.03.73-1.83,1.98-2.84,2C390.49,397.88,384.03,397.79,377.49,397.79Z" transform="translate(503.2 199.186)" fill="#fff"/>
    <path id="TFL_Abductors" data-name="TFL/Abductors" d="M321.09,489.6c1.29-13.48,2.54-26.96,3.93-40.43.24-2.28,0-5.37,4.13-4.48,3.13.68,5.82,1.16,4.96,5.56a28.671,28.671,0,0,0-.19,8.43c1.33,12.25-3.52,22.2-11.18,31.18C322.19,489.78,321.64,489.69,321.09,489.6Z" transform="translate(503.2 199.186)" fill="#fff"/>
    <path id="TFL_Abductors-2" data-name="TFL/Abductors" d="M424.78,444.56c4.3,14.68,4.19,29.8,4.1,45.75-7.04-8.99-13.06-17.44-11.74-28.98a63.7,63.7,0,0,0-.05-8.95C416.91,445.27,416.9,445.27,424.78,444.56Z" transform="translate(503.2 199.186)" fill="#fff"/>
    <path id="Abdominals-7" data-name="Abdominals" d="M399.64,399.95c.01,14.02-7.56,20.01-22.1,17.34V399.95Z" transform="translate(503.2 199.186)" fill="#fff"/>
    <path id="Abdominals-8" data-name="Abdominals" d="M373.5,417.31c-11.56,1.86-25.01-1.75-21.83-17.54H373.5Z" transform="translate(503.2 199.186)" fill="#fff"/>
    <path id="Knee_area" data-name="Knee area" d="M421.09,561.82c3.31,14.3,6.6,28.49,9.89,42.68-4.59-10.27-15.58-16.65-16.95-28.71-.61-5.35-2.36-10.74,5.26-12.55A4.068,4.068,0,0,0,421.09,561.82Z" transform="translate(503.2 199.186)" fill="#fff"/>
    <path id="Knee_area-2" data-name="Knee area" d="M320.09,604.49c3.25-14.11,6.52-28.34,9.76-42.42a29.841,29.841,0,0,1,5.88,3.25,6.534,6.534,0,0,1,1.81,4.61c-.07,7.87-2.95,14.87-7.48,21.2C326.87,595.59,323.51,599.93,320.09,604.49Z" transform="translate(503.2 199.186)" fill="#fff"/>
    <path id="Knee_area-3" data-name="Knee area" d="M410.83,571.75q3.885,10.26,7.81,20.62c-2.73,2.06-5.98,4.5-10.3,7.75-2.37-5.89-4.85-11.71-6.97-17.67-.33-.92.71-2.72,1.61-3.62C405.52,576.27,408.34,573.96,410.83,571.75Z" transform="translate(503.2 199.186)" fill="#fff"/>
    <path id="Knee_area-4" data-name="Knee area" d="M340.31,571.37c1.74,1.79,3.29,4.18,5.49,5.47,4.16,2.43,4.81,5.51,2.97,9.54-2.05,4.49-4.17,8.94-6.35,13.6-3.8-2.89-7-5.33-10.06-7.66Q336.125,582.39,340.31,571.37Z" transform="translate(503.2 199.186)" fill="#fff"/>
    <path id="Thigh_muscle-5" data-name="Thigh muscle" d="M348.95,543.89c2,9.66,4.18,19.29,5.81,29.01.27,1.6-1.87,3.61-2.83,5.3-8.3-3.25-10.88-6.5-9.58-14.03,1.21-7,3.7-13.77,5.62-20.65C348.3,543.65,348.62,543.77,348.95,543.89Z" transform="translate(503.2 199.186)" fill="#fff"/>
    <path id="Thigh_muscle-6" data-name="Thigh muscle" d="M402.96,543.6c1.91,6.48,4.27,12.87,5.63,19.46,1.64,7.91.11,10.11-8.38,15.15-1.45-1.12-2.98-2.31-4.11-3.18,1.97-10.64,3.85-20.86,5.74-31.08C402.21,543.84,402.59,543.72,402.96,543.6Z" transform="translate(503.2 199.186)" fill="#fff"/>
    <path id="Abductors" d="M414.88,563.38c6.83-23.52,11.23-46.59,12.46-70.57.49,1.89,1.48,3.81,1.36,5.66-.41,6.46-1.15,12.9-1.87,19.33-1.33,12.02-2.61,24.04-4.17,36.03C422.12,558.07,420.21,561.73,414.88,563.38Z" transform="translate(503.2 199.186)" fill="#fff"/>
    <path id="Abductors-2" data-name="Abductors" d="M334.06,563.73c-1.78-2.74-4.1-5.28-5.21-8.27a44.732,44.732,0,0,1-2.02-10.74c-1.55-14.2-3.06-28.4-4.34-42.62a25.772,25.772,0,0,1,1.4-9.99c.89,24.1,5.35,47.5,12.03,70.53C335.3,563.01,334.68,563.37,334.06,563.73Z" transform="translate(503.2 199.186)" fill="#fff"/>
    <path id="Neck_traps" data-name="Neck/traps" d="M385.33,302.94c1.47-6.08,2.96-12.22,4.44-18.36,2.25,8.33,8.59,11.43,17.03,13.56C399.03,299.88,392.34,301.37,385.33,302.94Z" transform="translate(503.2 199.186)" fill="#fff"/>
    <path id="Neck_traps-2" data-name="Neck/traps" d="M344.26,298.2c8.21-2.24,14.96-5.15,16.99-13.77,1.47,6.15,2.94,12.3,4.42,18.5C358.87,301.42,352.12,299.93,344.26,298.2Z" transform="translate(503.2 199.186)" fill="#fff"/>
    <path id="Knee_area-5" data-name="Knee area" d="M349.21,606.48c-1.42-1.84-3.2-4.12-4.72-6.09,3.28-8,6.48-15.8,9.68-23.59.57.23,1.15.45,1.72.68C353.65,587.21,351.41,596.94,349.21,606.48Z" transform="translate(503.2 199.186)" fill="#fff"/>
    <path id="Knee_area-6" data-name="Knee area" d="M406.53,600.36c-1.56,2.05-3.33,4.37-4.72,6.21-2.19-9.55-4.45-19.34-6.7-29.13.56-.22,1.13-.45,1.69-.67C399.97,584.45,403.14,592.14,406.53,600.36Z" transform="translate(503.2 199.186)" fill="#fff"/>
    <path id="Path_434" data-name="Path 434" d="M374.91,461.52V425.91h1.08v35.78C375.63,461.63,375.27,461.57,374.91,461.52Z" transform="translate(503.2 199.186)" fill="#fff"/>
  </g>
</svg>
