<svg xmlns="http://www.w3.org/2000/svg" width="244.19" height="587.237" viewBox="0 0 244.19 587.237">
  <g id="right" transform="translate(-1018.95 -395.399)">
    <path id="Path_385" data-name="Path 385" d="M539.55,469.38c3.94-23.05,4.08-46.77,12.33-69.04a5.55,5.55,0,0,1,.52-1.4c7.31-9.8,7.05-21.16,7.25-32.61.18-10.23-.17-20.71,5.04-30.2.48-.87.14-2.29-.04-3.42-3.05-19.97,4.01-32.15,23.18-39.04,10.4-3.74,20.26-8.28,29.46-16.07-3.88-.6-7.1-.84-10.15-1.7-1.42-.4-3.57-2.02-3.56-3.07.22-19.99.64-40.05,8.69-58.83,1.92-4.47,5.4-8.28,8.24-12.34a8.18,8.18,0,0,1,2.26-1.94c10.44-6.99,29.43-3.05,36.2,7.56,6.04,9.48,8.65,20.2,9.97,31.12,1.28,10.55,1.41,21.24,2.25,31.86.32,3.95-.89,5.89-5.04,6-2.58.07-5.15.73-8.8,1.29a82.4,82.4,0,0,0,22.59,13.57c5.67,2.34,11.58,4.33,16.83,7.42,11.07,6.51,15.1,16.92,13.98,29.32A31.663,31.663,0,0,0,712,341.28c2.03,6.21,2.51,13.03,2.95,19.63.49,7.3.14,14.65.27,21.98a8.288,8.288,0,0,0,.91,4.2c8.83,13.67,11.88,29.12,14.06,44.85,1.62,11.69,3.04,23.42,5,35.06a20.091,20.091,0,0,0,4.25,9.39c5.07,5.89,10.85,11.17,16.23,16.8a60.054,60.054,0,0,1,4.27,5.58c-.55.58-1.09,1.16-1.64,1.74q-4.755-2.94-9.5-5.89c-.19.14-.38.28-.56.42a105.944,105.944,0,0,1,5.65,9.01c.92,1.82.93,4.1,1.35,6.17-1.88-.87-3.77-1.74-5.65-2.63-.39-.18-.75-.44-1.71-1.01,1.06,2.35,2.21,4.07,2.54,5.94.24,1.35-.59,2.9-.94,4.36-1.22-.64-2.95-.98-3.57-1.99-2.16-3.54-3.95-7.3-5.83-11a10.649,10.649,0,0,1-.58-1.99c-.55.38-1.1.76-1.65,1.15a71.468,71.468,0,0,1,2.6,8.81c.35,2.03-.26,4.23-.43,6.35-1.59-1.6-3.85-2.94-4.63-4.87-1.54-3.82-2.13-8.02-3.39-11.97-.67-2.09-1.94-4-3.44-6.96-2.25,4.46-3.75,7.92-5.73,11.08-.7,1.12-2.56,1.53-3.89,2.26-.14-1.33-.66-2.75-.37-3.99,1.37-5.8,3.55-11.48,4.28-17.34.57-4.55.65-9.86-1.15-13.89-7.94-17.76-16.71-35.21-21.01-54.31-1.99-8.85-2.48-18.03-3.68-27.06-.17-1.26-.15-2.76-.83-3.7-7.5-10.38-9.24-22.61-11.29-34.74-.58-3.43-.81-6.93-2.07-10.64-.72,2.52-1.62,5.01-2.14,7.58-2.83,14-5.9,27.97-8.25,42.05-2.06,12.32,1.39,23.92,7.39,34.52,8.65,15.27,10.94,32,12.21,48.97,1.33,17.76,2.29,35.55,3.01,53.34a141.307,141.307,0,0,1-4.75,42.51c-2.85,10.65-1.22,21.41,1.37,31.62,4.8,18.96,2.79,37.54.22,56.44-1.99,14.65-2.46,29.51-3.37,44.29-.1,1.57,1.09,3.5,2.21,4.8,4.24,4.93,6.81,10.04,4.6,16.86a54.573,54.573,0,0,0-2,11.77c-.55,5.89-2.39,8.52-7.68,9.96-5.39,1.47-11.16-.3-13.8-4.48-3.47-5.5-5.82-11.72-4.38-18.05,3.95-17.34.62-33.69-3.91-50.47-3.95-14.66-5.82-29.98-7.54-45.13-1.78-15.65-2.4-31.43-3.27-47.17-.75-13.62-.65-27.31-1.88-40.89a157.823,157.823,0,0,0-5.18-26.28c-2.05-7.67-5.21-15.04-8.29-23.67-7.22,19.43-13.99,37.47-14.45,57.59-.49,21.58-3.12,43.1-4.49,64.67-.46,7.28,1.07,14.78-.08,21.9-2.67,16.54-5.55,33.15-10,49.28A75.939,75.939,0,0,0,606.69,719c1.5,8.07.86,15.94-3.78,23.08-2.7,4.16-8.15,6.11-13.65,4.85-5.04-1.16-7.3-4.06-8-9.82a76.067,76.067,0,0,0-2.03-12.27c-1.81-6.15-.33-11.46,4.02-15.53a8.713,8.713,0,0,0,2.89-7.88c-1.43-17.24-2.4-34.54-4.61-51.68-1.92-14.85-2.42-29.36,1.03-44.08,3.48-14.86,3.02-29.57-.11-44.86-2.96-14.48-2.78-29.8-2.42-44.72.56-23.26,1.32-46.61,6.77-69.41,1.19-4.96,2.71-10.1,5.29-14.42,10.91-18.23,12.73-37.38,7.52-57.68-2.76-10.73-4.91-21.62-8.31-32.32-1.34,7.84-2.03,15.85-4.19,23.46-2.1,7.4-5.73,14.36-8.61,21.54a10.823,10.823,0,0,0-.97,4.24c.72,19.67-6.17,37.55-13.16,55.35a219.668,219.668,0,0,1-11.14,23.9c-3.62,6.71-2.43,13.1-.54,19.74,1.36,4.78,2.69,9.56,3.84,14.39.2.86-.55,1.95-.87,2.93-1-.4-2.47-.5-2.93-1.24-2.16-3.5-4.04-7.17-6.19-11.08-1.13.93-2.22,1.83-3.32,2.73-.19-.15-.38-.3-.56-.45,1.21-1.38,2.43-2.76,3.64-4.14a29.751,29.751,0,0,1,3.31,3.92c1.57,2.66,2.85,5.5,4.25,8.26.38-.18.77-.36,1.15-.55-2.41-9.17-4.83-18.34-7.29-27.71-1.39-.57-3.3-1.43-5.26-2.15-1.37-.5-2.82-.79-4.23-1.18-.19-.16-.38-.33-.56-.49.64-1.48,1.27-2.96,1.92-4.45a21.14,21.14,0,0,0,1.29,2.56c3.44,4.99,8.03,4.68,10.62-.68,8.68-17.92,16.74-36.08,21.64-55.48,2.11-8.34,3.45-16.7,2.5-23.92l-16.86-3.53c-2.7,7.1-6.88,14.88-8.54,23.16-3.36,16.72-5.28,33.73-7.98,50.59C541.92,464.54,540.5,466.92,539.55,469.38Zm48.72.42a19.432,19.432,0,0,1,.57-4.56c3.64-9.82,8.34-19,16.81-26.21a69.158,69.158,0,0,0-14.06,2.1,3.617,3.617,0,0,0-2.28,2.28c-1.84,10.03-3.5,20.1-5.2,30.16l1.08.06c1.08-1.31,2.15-2.62,3.23-3.93-1.23,10.19,1.72,19.47,6.68,28.1,4.21,7.32,15.36,11.66,24.58,9.85,8.68-1.7,14.18-7.59,14.99-15.93,1.21-12.45,1.15-25.05.97-37.58-.04-2.7-2.36-5.96-4.56-7.93-5.69-5.12-13.06-6.23-20.39-6.97a4.056,4.056,0,0,0-3.05,1.27c-4.61,5.58-9.37,11.07-13.45,17.03C591.65,461.22,590.22,465.67,588.27,469.8Zm16.8-195.99a26.915,26.915,0,0,0,4.78.98q25.7.255,51.38.36c1.49.01,2.99-.26,4.48-.37,3-.22,4.35-1.55,4.09-4.81-.52-6.64-.45-13.33-1.08-19.96-1.34-13.94-3.17-27.8-10.16-40.33-4.88-8.76-10.36-11.59-20.35-10.56a6.762,6.762,0,0,1-2.46-.14c-6.92-1.99-12.26.93-16.16,6.11a52.293,52.293,0,0,0-7.37,13.45C605.92,236.2,605.19,254.65,605.07,273.81Zm-3.46,18.82c.17.28.63,1.14,1.19,1.93a57.579,57.579,0,0,1,10.71,34.66,68.967,68.967,0,0,0,1.52,13.86c2.85,14.8,14.63,24.06,22.17,35.99,4.35-5.58,8.42-10.83,12.52-16.06,7.11-9.04,11.45-19.11,11.24-30.79-.26-14.62,3.51-27.95,12.26-39.77.12-.17-.1-.59.11.46C649.28,285.18,625.5,285.57,601.61,292.63Zm36.78,179.6h-.05c0,4.33-.27,8.68.06,12.98.67,9.05,3.86,16.98,12.53,21.13,7.92,3.79,20.31,1.03,26.27-5.63,7.02-7.84,10.75-17.92,9.04-27.65-2.27-12.9-8.18-25-19.8-32.9a6.046,6.046,0,0,0-4.15-.85,82.989,82.989,0,0,0-12.51,3.15c-7.69,2.8-11.69,8.37-11.42,16.79C638.51,463.57,638.39,467.9,638.39,472.23Zm-.98-19.97c4.86-11.41,15.04-12.83,25.4-14.96-7.48-7.32-8.23-16.24-8.53-25.3-.08-2.33-.06-4.66-.12-7-.28-11.37-8.04-16.6-15.4-20.21a4.2,4.2,0,0,0-3.17.23c-9.47,4.45-15.45,11.23-15.3,22.4.15,10.62.44,21.37-8.39,29.89C622.28,439.45,632.23,440.87,637.41,452.26Zm22.91,202.2c2.3,9.45,3.67,17.87,6.43,25.8a72.225,72.225,0,0,1,2.72,39.71c-1.49,7.07-.78,14.27,3.36,20.71,2.71,4.21,6.99,5.83,12.1,4.53,4.85-1.23,7.07-3.92,7.07-9.24,0-4.41,1.23-8.86,2.28-13.2,1.23-5.07-.94-8.63-4.66-11.79.09,1.9.18,3.81.27,5.71-3.9-6.71-3.1-14.02-2.92-21.15.19-7.48.94-14.94,1.61-22.4.63-7.06,1.48-14.1,2.36-22.26-5.75,7.51-6.96,7.82-15.51,4.79C669.43,660.47,667.91,660.45,660.32,654.46Zm-75.35,56.55c-.59-.13-1.18-.27-1.77-.4-1.03,3.34-3.06,6.74-2.89,10.02.33,6.58,1.8,13.11,2.92,19.65a4.938,4.938,0,0,0,1.54,2.43,11.344,11.344,0,0,0,17.51-2.77,24.728,24.728,0,0,0,3.23-17.8,76.236,76.236,0,0,1,2.64-42.66c2.8-7.79,4.08-16.13,6.27-25.12-2.61,1.88-4.05,3.48-5.84,4.09-5.64,1.92-10.93-4.79-16.88-.89-.54.36-2.28-.52-3.08-1.25-1.7-1.56-3.14-3.39-4.99-5.46,5.37,37.67,5.86,59.72,1.34,65.76C584.97,714.57,584.97,712.79,584.97,711.01Zm52.17-329.27c-4.7-6.2-9.32-11.81-13.37-17.8-4.03-5.96-7.5-12.3-10.99-18.1-5.35.97-10.99,2-17.02,3.09,1.6,7.5,3.47,15.37,4.94,23.31,2.48,13.37,5.84,26.74,1.59,40.41a4.387,4.387,0,0,0,.31,2.84c2.96,6.48,6.02,12.92,9.1,19.48.82-1.11,3.03-2.86,3.52-5.01,1.55-6.73,3.49-13.62,3.37-20.42-.2-11.68,4.38-19.81,14.47-25.18C634.08,383.82,635.01,383.12,637.14,381.74Zm25.43-35.83c-8.1,12-16.26,24.11-24.8,36.77,15.73,5.91,19.27,17.75,18.54,32.41-.24,4.93,1.63,10.08,3.14,14.94.68,2.18,2.84,3.89,3.66,4.95,2.93-6.52,5.7-12.61,8.39-18.73.49-1.11,1.2-2.53.89-3.53-3.84-12.46-1.34-24.75.94-37.01,1.69-9.08,3.74-18.09,5.55-26.74C672.81,347.83,667.16,346.77,662.57,345.91ZM585.55,477.49c-.75,2.4-2,4.77-2.18,7.21-.87,12.27-1.62,24.56-2.1,36.86a193.059,193.059,0,0,0,3.93,47.08c1.46,7.02,1.04,14.44,1.45,21.67.06.98.01,1.97.01,2.96a24.526,24.526,0,0,0,4.76-7.76c4.22-11.44,10.4-22.22,9.52-35.23-.44-6.53.74-13.26,1.85-19.78,1.25-7.29,3.26-14.46,4.98-21.84C592.43,504.08,588.73,491.36,585.55,477.49Zm102.14,115.9c-1.61-10.76.86-20.89,2.94-31.17,5.29-26.11,2.23-52.37.59-78.58-.12-2-1.46-3.92-2.23-5.88-3.12,14.11-7.31,26.62-22.61,31.21a121.111,121.111,0,0,1,7.66,44.38C673.81,568.41,682.06,580.34,687.69,593.39Zm10.6-201.63c.75,6.37,1.02,13.7,2.57,20.75,4.6,20.89,13.3,40.29,22.66,59.4,1.12,2.3,1.73,4.93,5.27,3.25,2.87-1.36,6.16-2.28,5.01-6.65a45.2,45.2,0,0,1-1.04-4.86c-2.32-15.76-4.34-31.57-7-47.27-1.75-10.33-5.33-20.13-10.8-27.8C709.31,389.66,704.47,390.59,698.29,391.76Zm-89.22,120.6c-.77,2.07-1.59,3.49-1.8,4.99-1.76,12.62-3.43,25.26-5.09,37.89-.5,3.77-.04,7.94-1.53,11.25-5.68,12.59-3.09,25.06-.49,37.62.21,1.03.96,2.73,1.56,2.78,6.71.51,10.78,4.93,14.65,10.25.77-6.59,1.74-12.48,2.09-18.41.73-12.24,2.75-24.71,1.26-36.71C617.68,545.57,612.88,529.45,609.07,512.36Zm57.85.97c-.59.03-1.18.07-1.77.1-.88,4.56-1.6,9.16-2.67,13.68-2.36,10.02-5.42,19.9-7.24,30.01-3.59,19.95,1.22,39.55,3.09,59.67,4.84-5.58,4.86-5.53,14.25-9.8a4.546,4.546,0,0,0,2.08-2.99c2.21-12.25,5.27-24.49-.42-36.72-1.08-2.33-1.3-5.16-1.49-7.78-.45-6.31-.21-12.7-1.05-18.94C670.48,531.44,668.55,522.4,666.92,513.33ZM686.9,327.27c-.6,4.02-1.77,7.45-1.48,10.76.79,8.92,1.58,17.93,3.58,26.63,1.61,7.02,4.55,13.84,7.69,20.37,2.27,4.73,7.02,5.17,11.76,3.73,4.44-1.35,5.64-4.74,5.38-8.99-.67-11.12-1.13-22.26-2.02-33.36-.59-7.46-4.69-12.74-11.73-15.34C696.08,329.59,691.88,328.68,686.9,327.27Zm-98.08-.07c-4.68,1.16-7.44,1.73-10.13,2.52-11.16,3.28-15.46,8.22-16.3,19.84-.74,10.28-.82,20.61-1.32,30.92-.18,3.72.8,6.64,4.49,8,3.97,1.46,8.07,1.79,11.02-1.81,2.17-2.65,4.38-5.69,5.25-8.92a285.591,285.591,0,0,0,6.8-30.06C589.63,341.3,588.82,334.64,588.82,327.2Zm-22.37,5.35c5.92-1.99,11.57-3.71,17.05-5.86,1.4-.55,3.26-2.46,3.24-3.71-.11-5.59,3.04-8.47,7.49-10.71a44.59,44.59,0,0,0,7.74-4.42c3.07-2.44,4.45-5.21,1.65-9.34-4.73-6.99-4.45-7.19-12.47-4.36-1.72.61-3.45,1.21-5.13,1.92C569.03,303.25,562.91,314.92,566.45,332.55Zm141.71.08c3.85-13-.82-26.22-12.7-33.05-5.27-3.03-11.23-4.88-16.93-7.15-.8-.32-2.39-.38-2.72.09-2.32,3.21-5.71,6.43-6.11,9.95-.26,2.29,3.93,5.1,6.17,7.64a3.254,3.254,0,0,0,1.32.68c6.92,2.55,12.24,6.29,10.64,14.43C694.87,327.8,701.36,330.16,708.16,332.63ZM585.64,598.28c-.42,2.28-.79,4.23-1.14,6.18-2.04,11.09-5.16,22.2-2.43,33.52a59.636,59.636,0,0,0,6.25,15.48c.87,1.51,4.83,1.68,7.34,1.55.7-.04,1.54-3.29,1.78-5.13.31-2.44-.14-4.98.14-7.44,1-8.73,2.65-17.42,3.16-26.18C601.22,607.74,594.63,600.33,585.64,598.28Zm103.25-.12c-9.79,2.9-14.98,9.53-14.83,18.88.05,3.15.52,6.29.82,9.43.75,7.93,1.44,15.86,2.35,23.77.19,1.7.9,4.5,1.85,4.72,2.11.49,5,.35,6.69-.81,1.87-1.29,3.06-3.88,4.02-6.13C696.94,631.27,692.16,614.78,688.89,598.16ZM608.15,305.53c-5.37,3.35-9.44,6.11-13.72,8.5-5.31,2.97-6.74,5.35-5.46,11.33.94,4.38,2.21,8.69,3.49,12.98,2.56,8.59,4.17,9.49,13.09,7.53,1.29-.28,2.55-.74,3.82-1.12,2.84-.85,3.8-2.58,3.39-5.64-.59-4.44-.37-8.98-1.01-13.41C610.77,318.91,609.36,312.17,608.15,305.53Zm59.31.46c.27-.24-.06-.07-.19.19-5.57,11.18-3.67,23.49-5.24,35.27a3.2,3.2,0,0,0,1.87,2.46,91.118,91.118,0,0,0,13.05,2.35c1.19.1,3.26-1.7,3.73-3.04a166.07,166.07,0,0,0,4.78-16.24c1.85-7.7.22-10.3-6.87-13.82C674.82,311.29,671.46,308.61,667.46,305.99Zm3.95,303.09c-4.2.1-7.52,3.13-10.06,7.14-5.62,8.88-4.72,29.33,1.86,37.64,1.36,1.72,4.38,3.68,6.03,3.24a9.291,9.291,0,0,0,5.71-5.3c1.02-3.35.82-7.23.44-10.82C674.27,630.47,672.8,620.01,671.41,609.08Zm-68.43.23c-.97,8.91-1.97,17.77-2.89,26.64-.41,3.95-.72,7.92-.99,11.88-.3,4.45,1.29,8.23,5.73,9.35,4.68,1.18,6.81-2.71,8.41-6.18a43.815,43.815,0,0,0,2.58-29.22C613.91,613.96,608.67,609.6,602.98,609.31Zm131.7-135.25c-2.59,1.2-5.66,2.63-8.05,3.74-2.41,9.51-4.7,18.51-6.98,27.51.44.16.89.33,1.33.49,1.46-3.07,2.95-6.13,4.38-9.22,1.63-3.51,4.02-3.72,5.81-.61,1.78,3.09,2.68,6.69,3.84,10.11,1.17,3.46,2.19,6.98,3.27,10.47l1.29-.36c.22-5.39-4.94-10.41-1.09-17.72,3.66,6.25,6.67,11.39,9.68,16.54.34-.2.68-.39,1.02-.59q-3.435-8.58-6.88-17.17c.34-.12.67-.23,1.01-.35q4.92,6.15,9.83,12.31c.39-.29.79-.57,1.18-.86q-4.53-8.055-9.06-16.1c.53-.4,1.07-.8,1.6-1.2,3.4,2.31,6.79,4.63,11.37,7.74C749.66,489.8,742.19,481.95,734.68,474.06Zm-63.97-184.3c-9.93-9.59-21.07-15.27-35.05-13.63-4.62.54-9.29.63-13.93.97a4.622,4.622,0,0,0-2.34.59c-5.1,3.85-10.13,7.78-15.84,12.2,11.67-1.72,22.71-4.62,33.75-4.62C648.39,285.26,659.48,288.13,670.71,289.76ZM629.46,506.43c-5.85,1.27-12,2.6-19.02,4.12,3.02,13.64,6.13,27.73,9.25,41.82l1.44-.27c.71-7.87.85-15.84,2.27-23.57C624.85,520.75,627.56,513.21,629.46,506.43Zm15.29-.26c5.76,14.29,9.13,29.94,8.32,46.39l1.97.06c3.11-14.27,6.21-28.54,9.16-42.08C656.98,508.92,650.85,507.54,644.75,506.17Zm44.86-31.31,1.31-.36c-1.73-10.17-3.4-20.34-5.26-30.49a4.139,4.139,0,0,0-2.34-2.79c-4.62-1.19-9.33-2.02-14.01-2.98-.26.52-.53,1.04-.79,1.56C681.02,448.23,684.11,462.26,689.61,474.86Zm-24.39-38.62c7.22.97,12.71,1.7,18.61,2.49l-10.24-21.67-1.73-.33C669.7,423.1,667.53,429.46,665.22,436.24Zm-63.98-19.61c-3.6,7.68-6.89,14.7-10.36,22.11,6.02-.83,11.52-1.59,17.2-2.38C608.28,429.15,606.53,422.63,601.24,416.63ZM595.3,581.67c-2.64,5.15-5.06,9.86-7.47,14.57,3.2,2.14,6.44,4.3,9.84,6.57C596.88,595.76,596.12,588.97,595.3,581.67Zm84.19.11c-.86,7.38-1.63,14-2.45,21.04,3.61-2.42,6.72-4.51,9.79-6.57C684.45,591.56,682.1,586.93,679.49,581.78Z" transform="translate(503.2 199.186)"/>
    <path id="Path_386" data-name="Path 386" d="M543.29,498.23c-1.44,5.45-2.67,10.97-4.44,16.31-.5,1.51-2.56,2.5-3.91,3.73-.35-1.92-1.24-3.92-.94-5.73.54-3.19,1.8-6.26,2.75-9.38-.41-.21-.81-.42-1.22-.63-1.08,1.84-2.22,3.65-3.22,5.53-1.01,1.91-1.59,4.13-2.91,5.77-1.04,1.3-2.92,1.92-4.43,2.85a23.859,23.859,0,0,1-.32-4.96c.19-1.41,1.07-2.74,2.01-4.96a21.027,21.027,0,0,1-1.95,1.34c-1.64.77-3.31,1.49-4.96,2.23.28-2.05.09-4.33.95-6.09,1.55-3.16,3.74-6,4.84-9.7-2.21,1.61-4.34,3.35-6.67,4.75-.78.47-2.06.09-3.12.1a25.107,25.107,0,0,1,.29-3.14c.09-.42.6-.78.94-1.13q10.365-10.68,20.74-21.36c.19.16.37.33.56.49-.71,1.45-1.12,3.18-2.18,4.29-5.02,5.25-10.22,10.33-15.37,15.45-1.14,1.13-2.36,2.17-3.54,3.26.22.21.44.42.67.63l10.5-6.96c.46.48.93.96,1.39,1.44q-4.755,7.995-9.5,16c.45.29.9.59,1.35.88l10.01-12.56c.36.14.71.29,1.07.43l-7.35,17.49c.4.19.8.37,1.19.56,3.05-5.21,6.09-10.42,9.71-16.6,4.03,7.11-1.51,12.11-.43,17.57a28.243,28.243,0,0,0,3.03-6.7c1.31-3.87,2.59-7.76,3.87-11.64C542.91,497.93,543.1,498.08,543.29,498.23Z" transform="translate(503.2 199.186)"/>
    <path id="Path_388" data-name="Path 388" d="M560.6,781.25c-1.03.73-2.07,1.47-3.1,2.2-.11-.11-.22-.23-.33-.34.99-.8,1.97-1.6,2.96-2.4C560.28,780.88,560.44,781.07,560.6,781.25Z" transform="translate(503.2 199.186)"/>
    <path id="Head_back" data-name="Head back" d="M605.07,273.81c.12-19.16.85-37.61,7.16-55.26a51.7,51.7,0,0,1,7.37-13.45c3.89-5.19,9.24-8.1,16.16-6.11a6.762,6.762,0,0,0,2.46.14c9.98-1.03,15.46,1.8,20.35,10.56,6.99,12.54,8.82,26.4,10.16,40.33.64,6.63.56,13.32,1.08,19.96.26,3.26-1.09,4.59-4.09,4.81-1.49.11-2.99.37-4.48.37q-25.7-.12-51.38-.36A28.251,28.251,0,0,1,605.07,273.81Z" transform="translate(503.2 199.186)" fill="#fff"/>
    <path id="Traps" d="M601.61,292.63c23.89-7.06,47.67-7.45,71.73.3-.21-1.05.01-.63-.11-.46-8.75,11.82-12.52,25.15-12.26,39.77.21,11.68-4.13,21.75-11.24,30.79-4.11,5.23-8.18,10.48-12.52,16.06-7.54-11.93-19.32-21.19-22.17-35.99a68.406,68.406,0,0,1-1.52-13.86,57.579,57.579,0,0,0-10.71-34.66C602.25,293.77,601.79,292.91,601.61,292.63Z" transform="translate(503.2 199.186)" fill="#fff"/>
    <path id="Gluteus_Maximus" data-name="Gluteus Maximus" d="M638.39,472.23c0-4.33.11-8.66-.02-12.98-.27-8.42,3.73-13.99,11.42-16.79a82.987,82.987,0,0,1,12.51-3.15,6.123,6.123,0,0,1,4.15.85c11.62,7.9,17.53,20,19.8,32.9,1.71,9.72-2.02,19.81-9.04,27.65-5.96,6.66-18.36,9.42-26.27,5.63-8.68-4.15-11.86-12.08-12.53-21.13-.32-4.3-.06-8.65-.06-12.98Z" transform="translate(503.2 199.186)" fill="#fff"/>
    <path id="Gluteus_Maximus-2" data-name="Gluteus Maximus" d="M588.29,469.79c1.93-4.11,3.36-8.57,5.9-12.27,4.08-5.95,8.85-11.45,13.45-17.03a4.056,4.056,0,0,1,3.05-1.27c7.33.74,14.7,1.85,20.39,6.97,2.19,1.98,4.52,5.23,4.56,7.93.18,12.53.24,25.13-.97,37.58-.81,8.34-6.31,14.22-14.99,15.93-9.22,1.81-20.37-2.53-24.58-9.85-4.96-8.63-7.91-17.91-6.68-28.1Z" transform="translate(503.2 199.186)" fill="#fff"/>
    <path id="Lower_back" data-name="Lower back" d="M637.41,452.26c-5.17-11.39-15.13-12.81-25.49-14.95,8.82-8.52,8.54-19.27,8.39-29.89-.16-11.16,5.83-17.95,15.3-22.4a4.2,4.2,0,0,1,3.17-.23c7.35,3.61,15.12,8.84,15.4,20.21.06,2.33.04,4.66.12,7,.3,9.06,1.05,17.98,8.53,25.3C652.45,439.43,642.26,440.86,637.41,452.26Z" transform="translate(503.2 199.186)" fill="#fff"/>
    <path id="Achilles" d="M660.32,654.46c7.59,5.99,9.1,6.01,15.1,1.22,8.55,3.03,9.76,2.73,15.51-4.79-.87,8.15-1.72,15.2-2.36,22.26-.67,7.46-1.42,14.92-1.61,22.4-.18,7.13-.98,14.44,2.92,21.15-.09-1.9-.18-3.81-.27-5.71,3.72,3.16,5.88,6.71,4.66,11.79-1.05,4.34-2.28,8.8-2.28,13.2,0,5.31-2.21,8.01-7.07,9.24-5.11,1.3-9.4-.32-12.1-4.53-4.14-6.43-4.85-13.64-3.36-20.71a72.405,72.405,0,0,0-2.72-39.71C663.99,672.33,662.62,663.91,660.32,654.46Z" transform="translate(503.2 199.186)" fill="#fff"/>
    <path id="Achilles-2" data-name="Achilles" d="M584.97,711.01v5.59c4.52-6.03,4.03-28.09-1.34-65.76,1.86,2.07,3.3,3.9,4.99,5.46.79.73,2.53,1.61,3.08,1.25,5.95-3.9,11.24,2.82,16.88.89,1.78-.61,3.23-2.21,5.84-4.09-2.19,8.99-3.47,17.33-6.27,25.12a76.236,76.236,0,0,0-2.64,42.66,24.728,24.728,0,0,1-3.23,17.8,11.344,11.344,0,0,1-17.51,2.77,4.938,4.938,0,0,1-1.54-2.43c-1.12-6.53-2.6-13.06-2.92-19.65-.16-3.29,1.86-6.68,2.89-10.02C583.78,710.74,584.38,710.87,584.97,711.01Z" transform="translate(503.2 199.186)" fill="#fff"/>
    <path id="Lats" d="M637.14,381.74c-2.13,1.38-3.06,2.07-4.08,2.61-10.09,5.38-14.67,13.51-14.47,25.18.12,6.8-1.82,13.69-3.37,20.42-.49,2.15-2.7,3.9-3.52,5.01-3.08-6.56-6.14-12.99-9.1-19.48a4.323,4.323,0,0,1-.31-2.84c4.25-13.67.89-27.03-1.59-40.41-1.47-7.94-3.34-15.81-4.94-23.31,6.03-1.1,11.67-2.12,17.02-3.09,3.49,5.8,6.96,12.14,10.99,18.1C627.83,369.93,632.45,375.54,637.14,381.74Z" transform="translate(503.2 199.186)" fill="#fff"/>
    <path id="Lats-2" data-name="Lats" d="M662.57,345.91c4.59.86,10.23,1.92,16.32,3.07-1.81,8.65-3.87,17.66-5.55,26.74-2.28,12.26-4.78,24.54-.94,37.01.31,1-.4,2.42-.89,3.53-2.69,6.12-5.46,12.21-8.39,18.73-.82-1.05-2.98-2.77-3.66-4.95-1.51-4.86-3.39-10.01-3.14-14.94.72-14.66-2.81-26.5-18.54-32.41C646.31,370.01,654.48,357.91,662.57,345.91Z" transform="translate(503.2 199.186)" fill="#fff"/>
    <path id="Hamstring_Group" data-name="Hamstring Group" d="M585.55,477.49c3.18,13.87,6.88,26.59,22.23,31.18-1.72,7.38-3.73,14.55-4.98,21.84-1.12,6.52-2.3,13.25-1.85,19.78.88,13-5.3,23.79-9.52,35.23a24.346,24.346,0,0,1-4.76,7.76c0-.99.05-1.97-.01-2.96-.41-7.24.01-14.65-1.45-21.67a193.1,193.1,0,0,1-3.93-47.08c.48-12.3,1.23-24.58,2.1-36.86C583.55,482.26,584.8,479.89,585.55,477.49Z" transform="translate(503.2 199.186)" fill="#fff"/>
    <path id="Hamstring_Group-2" data-name="Hamstring Group" d="M687.69,593.39c-5.63-13.05-13.88-24.98-13.64-40.03a121.358,121.358,0,0,0-7.66-44.38c15.31-4.6,19.5-17.11,22.61-31.21.77,1.96,2.1,3.88,2.23,5.88,1.64,26.21,4.7,52.47-.59,78.58C688.54,572.5,686.08,582.63,687.69,593.39Z" transform="translate(503.2 199.186)" fill="#fff"/>
    <path id="Forearm" d="M539.55,469.38c.95-2.46,2.37-4.84,2.77-7.38,2.7-16.86,4.62-33.87,7.98-50.59,1.66-8.29,5.85-16.07,8.54-23.16l16.86,3.53c.94,7.22-.4,15.58-2.5,23.92-4.9,19.4-12.96,37.56-21.64,55.48-2.59,5.35-7.18,5.67-10.62.68a21.14,21.14,0,0,1-1.29-2.56C539.64,469.31,539.55,469.38,539.55,469.38Z" transform="translate(503.2 199.186)" fill="#fff"/>
    <path id="Forearm-2" data-name="Forearm" d="M698.29,391.76c6.19-1.18,11.02-2.1,16.67-3.17,5.46,7.67,9.04,17.47,10.8,27.8,2.66,15.7,4.68,31.51,7,47.27a44.689,44.689,0,0,0,1.04,4.86c1.15,4.37-2.14,5.29-5.01,6.65-3.54,1.68-4.14-.95-5.27-3.25-9.36-19.12-18.06-38.51-22.66-59.4C699.31,405.47,699.04,398.13,698.29,391.76Z" transform="translate(504.2 200.186)" fill="#fff"/>
    <path id="Hamstring_Group-3" data-name="Hamstring Group" d="M609.07,512.36c3.8,17.09,8.61,33.2,10.65,49.66,1.49,12.01-.54,24.47-1.26,36.71-.35,5.93-1.32,11.81-2.09,18.41-3.87-5.32-7.93-9.74-14.65-10.25-.6-.05-1.35-1.75-1.56-2.78-2.6-12.56-5.2-25.03.49-37.62,1.49-3.3,1.03-7.48,1.53-11.25,1.67-12.63,3.33-25.27,5.09-37.89C607.48,515.86,608.31,514.44,609.07,512.36Z" transform="translate(503.2 199.186)" fill="#fff"/>
    <path id="Hamstring_Group-4" data-name="Hamstring Group" d="M666.92,513.33c1.63,9.07,3.56,18.11,4.79,27.24.84,6.25.6,12.63,1.05,18.94.19,2.63.4,5.46,1.49,7.78,5.68,12.23,2.63,24.47.42,36.72a4.546,4.546,0,0,1-2.08,2.99c-9.39,4.27-9.41,4.22-14.25,9.8-1.87-20.12-6.69-39.72-3.09-59.67,1.82-10.11,4.88-19.99,7.24-30.01,1.06-4.52,1.79-9.12,2.67-13.68C665.74,513.4,666.33,513.36,666.92,513.33Z" transform="translate(503.2 199.186)" fill="#fff"/>
    <path id="Triceps" d="M686.9,327.27c4.97,1.41,9.18,2.32,13.18,3.8,7.04,2.6,11.13,7.88,11.73,15.34.89,11.1,1.35,22.24,2.02,33.36.25,4.24-.94,7.64-5.38,8.99-4.74,1.44-9.49.99-11.76-3.73-3.14-6.53-6.08-13.35-7.69-20.37-1.99-8.7-2.78-17.71-3.58-26.63C685.13,334.72,686.3,331.29,686.9,327.27Z" transform="translate(503.2 199.186)" fill="#fff"/>
    <path id="Triceps-2" data-name="Triceps" d="M588.82,327.2c0,7.44.81,14.11-.19,20.49a285.589,285.589,0,0,1-6.8,30.06c-.87,3.22-3.08,6.27-5.25,8.92-2.95,3.6-7.05,3.27-11.02,1.81-3.69-1.36-4.67-4.29-4.49-8,.5-10.3.58-20.63,1.32-30.92.84-11.62,5.14-16.56,16.3-19.84C581.38,328.93,584.14,328.35,588.82,327.2Z" transform="translate(503.2 199.186)" fill="#fff"/>
    <path id="Shoulders" d="M566.45,332.55c-3.55-17.63,2.58-29.3,19.57-36.47,1.68-.71,3.41-1.31,5.13-1.92,8.03-2.83,7.74-2.63,12.47,4.36,2.79,4.13,1.42,6.89-1.65,9.34a44.319,44.319,0,0,1-7.74,4.42c-4.44,2.24-7.6,5.12-7.49,10.71.03,1.25-1.83,3.16-3.24,3.71C578.02,328.84,572.37,330.56,566.45,332.55Z" transform="translate(503.2 199.186)" fill="#fff"/>
    <path id="Shoulders-2" data-name="Shoulders" d="M708.16,332.63c-6.8-2.47-13.29-4.84-20.34-7.4,1.6-8.14-3.71-11.89-10.64-14.43a3.254,3.254,0,0,1-1.32-.68c-2.24-2.54-6.43-5.35-6.17-7.64.4-3.52,3.79-6.75,6.11-9.95.34-.46,1.92-.41,2.72-.09,5.69,2.27,11.65,4.12,16.93,7.15C707.34,306.41,712.01,319.63,708.16,332.63Z" transform="translate(503.2 199.186)" fill="#fff"/>
    <path id="Calf_Muscle" data-name="Calf Muscle" d="M585.64,598.28c8.99,2.06,15.58,9.46,15.08,18-.51,8.76-2.15,17.44-3.16,26.18-.28,2.45.17,4.99-.14,7.44-.23,1.84-1.07,5.09-1.78,5.13-2.5.13-6.47-.04-7.34-1.55A60.131,60.131,0,0,1,582.05,638c-2.73-11.32.39-22.43,2.43-33.52C584.86,602.51,585.22,600.56,585.64,598.28Z" transform="translate(503.2 199.186)" fill="#fff"/>
    <path id="Calf_Muscle-2" data-name="Calf Muscle" d="M688.89,598.16c3.27,16.61,8.05,33.11.9,49.85-.96,2.25-2.15,4.84-4.02,6.13-1.69,1.16-4.58,1.3-6.69.81-.95-.22-1.66-3.02-1.85-4.72-.9-7.91-1.59-15.84-2.35-23.77-.3-3.14-.77-6.28-.82-9.43C673.91,607.7,679.1,601.06,688.89,598.16Z" transform="translate(503.2 199.186)" fill="#fff"/>
    <path id="Upper_Back" data-name="Upper Back" d="M608.15,305.53c1.21,6.64,2.62,13.38,3.6,20.19.64,4.43.42,8.97,1.01,13.41.41,3.06-.56,4.78-3.39,5.64-1.27.38-2.53.83-3.82,1.12-8.92,1.96-10.53,1.06-13.09-7.53-1.28-4.29-2.55-8.61-3.49-12.98-1.28-5.97.15-8.36,5.46-11.33C598.71,311.64,602.78,308.88,608.15,305.53Z" transform="translate(503.2 199.186)" fill="#fff"/>
    <path id="Upper_Back-2" data-name="Upper Back" d="M667.46,305.99c4,2.62,7.36,5.3,11.13,7.17,7.09,3.52,8.73,6.12,6.87,13.82a166.867,166.867,0,0,1-4.78,16.24c-.47,1.35-2.54,3.14-3.73,3.04a89.507,89.507,0,0,1-13.05-2.35,3.191,3.191,0,0,1-1.87-2.46c1.58-11.78-.33-24.1,5.24-35.27C667.4,305.92,667.72,305.75,667.46,305.99Z" transform="translate(503.2 199.186)" fill="#fff"/>
    <path id="Calf_Muscle-3" data-name="Calf Muscle" d="M671.41,609.08c1.39,10.93,2.86,21.39,3.98,31.89.38,3.58.58,7.47-.44,10.82a9.264,9.264,0,0,1-5.71,5.3c-1.64.44-4.67-1.52-6.03-3.24-6.58-8.31-7.48-28.76-1.86-37.64C663.89,612.21,667.21,609.18,671.41,609.08Z" transform="translate(503.2 199.186)" fill="#fff"/>
    <path id="Calf_Muscle-4" data-name="Calf Muscle" d="M602.98,609.31c5.68.29,10.92,4.65,12.83,12.48a43.76,43.76,0,0,1-2.58,29.22c-1.59,3.47-3.72,7.36-8.41,6.18-4.44-1.12-6.03-4.9-5.73-9.35.27-3.97.58-7.93.99-11.88C601.01,627.08,602.01,618.22,602.98,609.31Z" transform="translate(503.2 199.186)" fill="#fff"/>
    <path id="Hand_Wrist" data-name="Hand\Wrist" d="M734.68,474.06c7.5,7.88,14.98,15.74,23.55,24.74-4.58-3.12-7.97-5.43-11.37-7.74-.53.4-1.07.8-1.6,1.2q4.53,8.055,9.06,16.1c-.39.29-.79.57-1.18.86q-4.92-6.15-9.83-12.31c-.34.12-.67.23-1.01.35q3.435,8.58,6.88,17.17c-.34.2-.68.39-1.02.59-3.01-5.15-6.03-10.29-9.68-16.54-3.85,7.31,1.31,12.34,1.09,17.72l-1.29.36c-1.08-3.49-2.1-7.01-3.27-10.47-1.16-3.42-2.06-7.03-3.84-10.11-1.79-3.11-4.19-2.9-5.81.61-1.43,3.09-2.92,6.15-4.38,9.22-.44-.16-.89-.33-1.33-.49,2.28-9,4.57-18,6.98-27.51C729.02,476.69,732.09,475.27,734.68,474.06Z" transform="translate(503.2 199.186)" fill="#fff"/>
    <path id="Hand_Wrist-2" data-name="Hand\Wrist" d="M542.72,497.78c-1.29,3.88-2.56,7.77-3.87,11.64a28.643,28.643,0,0,1-3.03,6.7c-1.08-5.46,4.46-10.47.43-17.57-3.61,6.18-6.66,11.39-9.71,16.6-.4-.19-.8-.37-1.19-.56l7.35-17.49c-.36-.14-.71-.29-1.07-.43l-10.01,12.56c-.45-.29-.9-.59-1.35-.88q4.755-7.995,9.5-16c-.46-.48-.93-.96-1.39-1.44l-10.5,6.96c-.22-.21-.44-.42-.67-.63,1.18-1.08,2.41-2.13,3.54-3.26,5.15-5.12,10.35-10.21,15.37-15.45,1.06-1.11,1.47-2.85,2.18-4.29,1.41.39,2.86.68,4.23,1.18,1.96.71,3.87,1.57,5.26,2.15,2.47,9.36,4.88,18.54,7.29,27.71-.38.18-.77.36-1.15.55-1.4-2.76-2.68-5.59-4.25-8.26a29,29,0,0,0-3.31-3.92C545.15,495.02,543.94,496.4,542.72,497.78Z" transform="translate(503.2 199.186)" fill="#fff"/>
    <path id="Neck" d="M670.71,289.76c-11.23-1.63-22.32-4.5-33.41-4.5-11.04.01-22.08,2.9-33.75,4.62,5.71-4.42,10.74-8.35,15.84-12.2a4.6,4.6,0,0,1,2.34-.59c4.64-.34,9.31-.43,13.93-.97C649.64,274.5,660.78,280.17,670.71,289.76Z" transform="translate(503.2 199.186)" fill="#fff"/>
    <path id="Hamstring_Group-5" data-name="Hamstring Group" d="M629.46,506.43c-1.91,6.78-4.62,14.32-6.05,22.09-1.43,7.74-1.57,15.71-2.27,23.57l-1.44.27c-3.12-14.09-6.23-28.17-9.25-41.82C617.46,509.03,623.61,507.7,629.46,506.43Z" transform="translate(503.2 199.186)" fill="#fff"/>
    <path id="Hamstring_Group-6" data-name="Hamstring Group" d="M644.75,506.17c6.1,1.37,12.23,2.75,19.45,4.37-2.95,13.53-6.05,27.8-9.16,42.08l-1.97-.06C653.88,536.11,650.51,520.46,644.75,506.17Z" transform="translate(503.2 199.186)" fill="#fff"/>
    <path id="TFL_Abductors" data-name="TFL/Abductors" d="M689.61,474.86c-5.5-12.6-8.58-26.63-21.1-35.06.26-.52.53-1.04.79-1.56,4.68.96,9.39,1.79,14.01,2.98a4.139,4.139,0,0,1,2.34,2.79c1.86,10.14,3.54,20.32,5.26,30.49Z" transform="translate(503.2 199.186)" fill="#fff"/>
    <path id="TFL_Abductors-2" data-name="TFL/Abductors" d="M588.41,469.69c-1.08,1.31-2.15,2.62-3.23,3.93l-1.08-.06c1.71-10.06,3.37-20.12,5.2-30.16a3.639,3.639,0,0,1,2.28-2.28,69.158,69.158,0,0,1,14.06-2.1c-8.47,7.21-13.17,16.39-16.81,26.21a19.413,19.413,0,0,0-.56,4.55C588.29,469.79,588.41,469.69,588.41,469.69Z" transform="translate(503.2 199.186)" fill="#fff"/>
    <path id="Obliques" d="M665.22,436.24c2.31-6.77,4.47-13.14,6.64-19.5l1.73.33c3.36,7.11,6.72,14.21,10.24,21.67C677.94,437.94,672.44,437.21,665.22,436.24Z" transform="translate(503.2 199.186)" fill="#fff"/>
    <path id="Obliques-2" data-name="Obliques" d="M601.24,416.63c5.29,6,7.04,12.52,6.84,19.73-5.67.79-11.18,1.55-17.2,2.38C594.35,431.34,597.64,424.32,601.24,416.63Z" transform="translate(503.2 199.186)" fill="#fff"/>
    <path id="Hamstring_Group-7" data-name="Hamstring Group" d="M595.3,581.67c.82,7.3,1.58,14.09,2.37,21.14-3.4-2.27-6.64-4.43-9.84-6.57C590.24,591.53,592.66,586.82,595.3,581.67Z" transform="translate(503.2 199.186)" fill="#fff"/>
    <path id="Hamstring_Group-8" data-name="Hamstring Group" d="M679.49,581.78c2.61,5.15,4.96,9.78,7.34,14.47-3.07,2.06-6.18,4.15-9.79,6.57C677.86,595.78,678.63,589.16,679.49,581.78Z" transform="translate(503.2 199.186)" fill="#fff"/>
  </g>
</svg>
